<?xml version="1.0" encoding="UTF-8"?>
<svg version="1.1" xmlns="http://www.w3.org/2000/svg" width="920" height="258">
<path d="M0 0 C0 -2.31 0 -4.62 0 -7 C3.79160297 -7.05786668 7.58309311 -7.09355054 11.375 -7.125 C12.45523438 -7.14175781 13.53546875 -7.15851563 14.6484375 -7.17578125 C15.6796875 -7.18222656 16.7109375 -7.18867187 17.7734375 -7.1953125 C19.20308838 -7.21102295 19.20308838 -7.21102295 20.66162109 -7.22705078 C23 -7 23 -7 25 -5 C25.25726891 -2.59375477 25.25726891 -2.59375477 25.26742554 0.49247742 C25.27595551 1.65994507 25.28448547 2.82741272 25.29327393 4.03025818 C25.29236755 5.31795609 25.29146118 6.60565399 25.29052734 7.93237305 C25.29650987 9.29747893 25.30331478 10.66258143 25.31088257 12.02767944 C25.32859719 15.74540973 25.33324077 19.463048 25.33451414 23.18081641 C25.33593543 25.50833388 25.34020504 27.83582796 25.34550858 30.16333961 C25.36404046 38.29844266 25.37217694 46.43348007 25.37060547 54.56860352 C25.36940943 62.12336228 25.39039724 69.67783285 25.4220928 77.23251885 C25.44838545 83.73381493 25.45896707 90.23501783 25.45769465 96.73636657 C25.45718797 100.61186534 25.46270355 104.48710921 25.48405075 108.36255455 C25.5036481 112.02098332 25.50341384 115.67892024 25.48901749 119.33736801 C25.48598145 121.29422689 25.50246238 123.25108693 25.51989746 125.20787048 C25.40011274 142.40136344 20.16936468 157.27260653 8.21484375 169.84375 C-2.3111123 180.09124161 -18.01813162 184.21336874 -32.515625 184.01953125 C-41.9486666 183.68129863 -50.20915884 182.72136247 -59 179 C-60.66650743 178.33293539 -62.3331274 177.6661516 -64 177 C-64 176.34 -64 175.68 -64 175 C-64.87011719 174.83757812 -64.87011719 174.83757812 -65.7578125 174.671875 C-69.7778889 173.4672528 -72.75367209 170.57961565 -76 168 C-76.59941406 167.54882812 -77.19882812 167.09765625 -77.81640625 166.6328125 C-79.99930544 164.93909313 -81.75580261 163.45966567 -83.0625 161 C-82.89840978 155.7491129 -78.10130097 151.67646423 -74.625 148.125 C-74.15578125 147.61453125 -73.6865625 147.1040625 -73.203125 146.578125 C-71.7890625 145.1328125 -71.7890625 145.1328125 -69 143 C-64.98227226 142.96391263 -62.95705476 144.54720915 -60.125 147.25 C-57.62362696 149.53549469 -55.14578261 151.77368051 -52.4375 153.8125 C-51.94121094 154.19019531 -51.44492187 154.56789062 -50.93359375 154.95703125 C-41.93544161 159.81057998 -29.62024982 159.16203968 -19.875 156.8125 C-11.79275651 154.16674316 -8.07410152 149.63327023 -4.2578125 142.23046875 C-0.81509109 133.38844824 -0.60187807 123.40010112 -1 114 C-4.01232184 114.91070195 -6.65194133 115.77968004 -9.3203125 117.46875 C-21.25539575 124.28879757 -39.23861152 123.68771473 -52.1875 120.25 C-57.26505216 118.72455515 -61.62422924 116.98833125 -66 114 C-66 113.34 -66 112.68 -66 112 C-66.680625 111.835 -67.36125 111.67 -68.0625 111.5 C-72.45471593 109.25716633 -74.99485242 105.84472318 -78 102 C-78.52980469 101.32839844 -79.05960937 100.65679687 -79.60546875 99.96484375 C-91.00342035 84.28899772 -94.14604078 61.96563939 -91.23022461 43.14306641 C-88.29117915 26.44605624 -81.40539369 10.9193025 -68 0 C-65.7265625 -0.75 -65.7265625 -0.75 -64 -1 C-64 -1.66 -64 -2.32 -64 -3 C-43.15507762 -12.38379667 -19.77026037 -13.18017358 0 0 Z M-56.5 25.8125 C-57.38013851 27.17930333 -58.21495354 28.57644909 -59 30 C-59.38671875 30.70125 -59.7734375 31.4025 -60.171875 32.125 C-67.4035882 46.79804128 -65.89886571 62.88117511 -61.37890625 78.08984375 C-58.79704892 85.16188774 -53.6206727 90.5088825 -47.0625 94 C-38.49318371 97.51046474 -26.99905972 97.31702302 -18.08203125 94.87890625 C-10.69731871 91.76153229 -3.39628781 86.41436287 0 79 C0.75362763 73.79148779 0.61138229 68.67638554 0.4375 63.4375 C0.41591721 62.05928446 0.39702077 60.68102415 0.38085938 59.30273438 C0.33006714 55.88132312 0.22029239 52.46539851 0.07977295 49.04656982 C0.02609509 47.66946786 -0.01912359 46.29201291 -0.05633545 44.91436768 C-0.11139908 42.89153841 -0.19401642 40.86951846 -0.27734375 38.84765625 C-0.31980225 37.67340088 -0.36226074 36.49914551 -0.40600586 35.28930664 C-1.11532119 31.36139648 -2.5441593 29.11508071 -5 26 C-7.10039331 24.61131484 -7.10039331 24.61131484 -9 24 C-9 23.34 -9 22.68 -9 22 C-23.62019019 13.87767212 -44.85526251 11.28568998 -56.5 25.8125 Z " fill="#36B9E7" transform="translate(448,73)"/>
<path d="M0 0 C0.66 -1.98 1.32 -3.96 2 -6 C5.81248426 -6.02887236 9.6249407 -6.04675492 13.4375 -6.0625 C14.52611328 -6.07087891 15.61472656 -6.07925781 16.73632812 -6.08789062 C17.77080078 -6.09111328 18.80527344 -6.09433594 19.87109375 -6.09765625 C20.82943115 -6.10289307 21.78776855 -6.10812988 22.77514648 -6.11352539 C25 -6 25 -6 26 -5 C26.90229442 1.39716664 27.14399529 7.65595387 27.12939453 14.10839844 C27.13202301 15.56205307 27.13202301 15.56205307 27.13470459 17.04507446 C27.13908522 20.23319319 27.13619382 23.42125575 27.1328125 26.609375 C27.13348771 28.85874441 27.13445954 31.10811375 27.13571167 33.35748291 C27.13718446 38.07817274 27.13505157 42.79884363 27.13037109 47.51953125 C27.12473888 53.48223881 27.12801584 59.44490116 27.13379955 65.40760708 C27.16866014 107.37444062 27.16866014 107.37444062 26.58984375 125.30078125 C26.55581451 126.40907288 26.52178528 127.5173645 26.48672485 128.65924072 C25.88401932 143.98132066 21.24325202 158.41801307 10.75 169.9375 C-2.6703131 182.09581118 -19.71328658 185.58591527 -37.2734375 185.18359375 C-50.21873498 184.31191899 -62.82968142 179.05229726 -73 171 C-73.33 170.01 -73.66 169.02 -74 168 C-75.65438613 167.30341637 -77.32254318 166.63903117 -79 166 C-80.875 164.6875 -80.875 164.6875 -82 163 C-81.98263805 158.23414595 -79.32745044 155.75659024 -76.1796875 152.53515625 C-75.54289062 151.90480469 -74.90609375 151.27445313 -74.25 150.625 C-73.62867188 149.97144531 -73.00734375 149.31789062 -72.3671875 148.64453125 C-67.74698906 144.01458556 -67.74698906 144.01458556 -64.19921875 143.9453125 C-61.13681777 145.41395951 -59.30921891 147.52181385 -57 150 C-48.97129248 157.1745897 -40.25236362 160.6145766 -29.453125 160.3125 C-21.19203015 159.26013123 -12.74642177 156.19973578 -7 150 C0.29138914 139.38925724 0.32668755 127.4322762 0 115 C-2.62732992 116.0307955 -5.22115925 117.09915101 -7.796875 118.25390625 C-14.0067552 121.00563888 -19.22104477 122.84460848 -26 123 C-26.63711914 123.02964844 -27.27423828 123.05929688 -27.93066406 123.08984375 C-44.94140752 123.85505938 -59.333928 120.42258578 -72.33984375 108.76953125 C-75.69338712 105.19504855 -78.3634075 101.11804423 -81 97 C-81.76376953 95.83984375 -81.76376953 95.83984375 -82.54296875 94.65625 C-84.32228018 91.41246508 -85.47869219 88.08327968 -86.5625 84.5625 C-86.8867395 83.51231689 -86.8867395 83.51231689 -87.2175293 82.44091797 C-93.10889192 62.58193905 -92.55043052 40.74972615 -83.5 21.87109375 C-75.76753413 7.85599936 -65.26311975 -2.67303682 -49.73828125 -7.2890625 C-32.46515816 -11.77366792 -15.53641244 -8.09570227 0 0 Z M-52.55859375 23.50390625 C-62.02549449 34.05678563 -63.36786924 44.40955833 -63.4375 58.3125 C-63.47037109 59.45912109 -63.50324219 60.60574219 -63.53710938 61.78710938 C-63.60019302 71.9206361 -60.82013136 81.4413942 -54.5 89.5390625 C-49.35914941 94.54603677 -42.12727111 97.60005241 -35 98 C-21.9858065 97.34595335 -11.118237 94.92278732 -2 85 C1.7633483 80.26951477 1.45170427 75.69184588 1.43359375 69.9140625 C1.4388356 68.93891693 1.44407745 67.96377136 1.44947815 66.95907593 C1.45589052 64.89981028 1.45457154 62.84050797 1.44604492 60.78125 C1.43754754 57.64255965 1.46628756 54.50569763 1.49804688 51.3671875 C1.49965944 49.36197971 1.4990803 47.35676871 1.49609375 45.3515625 C1.50732773 44.4190567 1.51856171 43.4865509 1.53013611 42.52578735 C1.45690898 35.62325554 -0.01814348 31.44618454 -4.60546875 26.14453125 C-16.73314433 15.93332786 -39.93840135 11.32652761 -52.55859375 23.50390625 Z " fill="#36B9E7" transform="translate(582,72)"/>
<path d="M0 0 C1.01964844 -0.01224609 2.03929687 -0.02449219 3.08984375 -0.03710938 C4.55744141 -0.04000977 4.55744141 -0.04000977 6.0546875 -0.04296875 C6.95429199 -0.04707764 7.85389648 -0.05118652 8.78076172 -0.05541992 C11.125 0.1875 11.125 0.1875 14.125 2.1875 C14.50976086 4.18274117 14.50976086 4.18274117 14.52372742 6.67996216 C14.54253464 8.09766403 14.54253464 8.09766403 14.5617218 9.54400635 C14.55956917 11.10414459 14.55956917 11.10414459 14.55737305 12.69580078 C14.5675647 13.78849274 14.57775635 14.88118469 14.58825684 16.00698853 C14.618542 19.63231429 14.62767659 23.25737653 14.63671875 26.8828125 C14.6535539 29.39103077 14.67170254 31.89924055 14.69111633 34.40744019 C14.73387558 40.34306535 14.76334926 46.27866308 14.78643972 52.21438873 C14.81611194 59.63390293 14.86631633 67.05325384 14.91601562 74.47265625 C15.00219929 87.71087305 15.07004808 100.94911863 15.125 114.1875 C15.85614014 113.45635986 16.58728027 112.72521973 17.34057617 111.97192383 C37.26245117 92.05004883 37.26245117 92.05004883 38.71621704 90.59642029 C40.09767289 89.21482977 41.47865087 87.83276147 42.85961914 86.45068359 C44.34362809 84.96811403 45.83295399 83.49084315 47.328125 82.01953125 C48.00359375 81.35308594 48.6790625 80.68664062 49.375 80 C50.06078125 79.32582031 50.7465625 78.65164062 51.453125 77.95703125 C53.19949111 76.27951005 53.19949111 76.27951005 54.125 74.1875 C54.785 74.1875 55.445 74.1875 56.125 74.1875 C56.62 72.7025 56.62 72.7025 57.125 71.1875 C60.26109684 67.45508694 63.56851932 65.41680296 68.40625 64.70410156 C72.16255653 64.59784828 75.87028936 64.66368525 79.625 64.8125 C81.5740625 64.85310547 81.5740625 64.85310547 83.5625 64.89453125 C86.75173425 64.96488201 89.93748507 65.06328629 93.125 65.1875 C93.785 66.5075 94.445 67.8275 95.125 69.1875 C77.47504614 89.92619579 77.47504614 89.92619579 68.125 94.1875 C68.125 94.8475 68.125 95.5075 68.125 96.1875 C66.47497172 97.54136936 64.8075613 98.87428142 63.125 100.1875 C62.795 100.8475 62.465 101.5075 62.125 102.1875 C61.465 102.1875 60.805 102.1875 60.125 102.1875 C59.76341797 103.04021484 59.76341797 103.04021484 59.39453125 103.91015625 C57.87531912 106.63538908 56.05081019 108.45440339 53.8125 110.625 C53.01328125 111.40617187 52.2140625 112.18734375 51.390625 112.9921875 C50.26914063 114.07886719 50.26914063 114.07886719 49.125 115.1875 C48.10182263 116.2059839 47.08040413 117.22624585 46.0625 118.25 C45.423125 118.889375 44.78375 119.52875 44.125 120.1875 C44.6096875 120.79335937 45.094375 121.39921875 45.59375 122.0234375 C46.2640625 122.86132812 46.934375 123.69921875 47.625 124.5625 C48.35847656 125.47902344 49.09195313 126.39554687 49.84765625 127.33984375 C51.27342563 129.12266687 52.69808464 130.90637917 54.12109375 132.69140625 C57.54886271 136.98818706 61.00298629 141.25933311 64.5 145.5 C67.94697244 149.71096109 71.34289488 153.95753832 74.6875 158.25 C75.1294873 158.81050049 75.57147461 159.37100098 76.02685547 159.94848633 C79.125 163.95462268 79.125 163.95462268 79.125 166.1875 C79.785 166.1875 80.445 166.1875 81.125 166.1875 C81.2075 166.80625 81.29 167.425 81.375 168.0625 C81.89964297 170.34657985 81.89964297 170.34657985 83.96875 171.0703125 C86.54664811 172.40596261 87.6749189 173.85203506 89.375 176.1875 C89.89578125 176.88875 90.4165625 177.59 90.953125 178.3125 C92.125 180.1875 92.125 180.1875 92.125 182.1875 C92.785 182.1875 93.445 182.1875 94.125 182.1875 C94.41375 182.80625 94.7025 183.425 95 184.0625 C96.06220042 186.32075765 96.06220042 186.32075765 98.125 188.1875 C97.465 189.8375 96.805 191.4875 96.125 193.1875 C91.56139449 193.16468868 87.00029047 193.08735829 82.4375 193 C81.14392578 192.99419922 79.85035156 192.98839844 78.51757812 192.98242188 C77.27041016 192.95341797 76.02324219 192.92441406 74.73828125 192.89453125 C73.59141846 192.8788208 72.44455566 192.86311035 71.26293945 192.84692383 C67.22551871 191.99847806 65.68422323 190.35276837 63.125 187.1875 C63.125 186.5275 63.125 185.8675 63.125 185.1875 C62.465 185.1875 61.805 185.1875 61.125 185.1875 C59.8359375 183.7265625 59.8359375 183.7265625 58.5 181.8125 C58.05398437 181.18601563 57.60796875 180.55953125 57.1484375 179.9140625 C56.125 178.1875 56.125 178.1875 56.125 176.1875 C55.465 176.1875 54.805 176.1875 54.125 176.1875 C53.135 173.7125 53.135 173.7125 52.125 171.1875 C51.465 171.1875 50.805 171.1875 50.125 171.1875 C49.465 169.5375 48.805 167.8875 48.125 166.1875 C47.465 166.1875 46.805 166.1875 46.125 166.1875 C44.72265625 164.578125 44.72265625 164.578125 43.1875 162.4375 C42.68347656 161.74140625 42.17945313 161.0453125 41.66015625 160.328125 C41.15355469 159.62171875 40.64695313 158.9153125 40.125 158.1875 C39.56683594 157.48109375 39.00867188 156.7746875 38.43359375 156.046875 C37.125 154.1875 37.125 154.1875 37.125 152.1875 C36.465 152.1875 35.805 152.1875 35.125 152.1875 C33.79296875 150.61328125 33.79296875 150.61328125 32.3125 148.5 C29.8145825 145.04464975 27.2256591 142.10576739 24.125 139.1875 C19.72380712 141.94883732 15.8321011 145.10632049 14.62200928 150.37927246 C13.91968377 156.75040224 14.15026008 163.16607067 14.3125 169.5625 C14.35891628 172.46724506 14.39233963 175.37093293 14.40339661 178.27603149 C14.41294312 180.07591465 14.44427688 181.87584441 14.49980164 183.67489624 C14.56857302 189.65678199 14.56857302 189.65678199 12.40014648 192.2512207 C9.83903562 193.30518145 8.18845767 193.48597184 5.4296875 193.33203125 C4.54925781 193.28626953 3.66882813 193.24050781 2.76171875 193.19335938 C1.85035156 193.12955078 0.93898437 193.06574219 0 193 C-0.91910156 192.95552734 -1.83820313 192.91105469 -2.78515625 192.86523438 C-9.60271516 192.45978484 -9.60271516 192.45978484 -11.875 190.1875 C-12.07023498 187.6812704 -12.13993092 185.2857457 -12.12223816 182.77854919 C-12.12465257 182.00575451 -12.12706699 181.23295983 -12.12955457 180.43674713 C-12.13521454 177.83331652 -12.12651126 175.23012878 -12.11791992 172.62670898 C-12.11899223 170.76599053 -12.12093014 168.9052724 -12.12367249 167.04455566 C-12.12853189 161.98068607 -12.12085178 156.91690421 -12.11071944 151.85304523 C-12.10195796 146.56438971 -12.10369601 141.2757371 -12.1040802 135.98707581 C-12.10314277 127.10538254 -12.09444774 118.22372338 -12.08081055 109.34204102 C-12.06507937 99.0582644 -12.05981256 88.77452515 -12.0605461 78.49073738 C-12.06115544 68.61611945 -12.05605888 58.74151375 -12.04775429 48.86689949 C-12.0442143 44.65597501 -12.04239002 40.44505485 -12.04186058 36.23412895 C-12.04085951 31.28070319 -12.03478234 26.32730907 -12.02469444 21.37389374 C-12.02176196 19.55051174 -12.02054558 17.7271261 -12.02112198 15.90374184 C-12.0216091 13.42561612 -12.0159924 10.9475804 -12.00871277 8.46946716 C-12.01026137 7.73835502 -12.01180997 7.00724287 -12.0134055 6.25397581 C-11.97238006 -2.13216595 -7.20202319 0.00451821 0 0 Z " fill="#36B8E6" transform="translate(138.875,0.8125)"/>
<path d="M0 0 C12.76808769 11.03975095 19.99667265 25.26386947 22 42 C22.1325395 45.27229279 22.13987316 48.53792507 22.125 51.8125 C22.12886719 52.68326172 22.13273438 53.55402344 22.13671875 54.45117188 C22.13542969 55.27810547 22.13414062 56.10503906 22.1328125 56.95703125 C22.13168457 57.70960205 22.13055664 58.46217285 22.12939453 59.23754883 C22 61 22 61 21 62 C11.55695162 63.22843148 2.00044501 63.14866537 -7.50390625 63.1328125 C-8.95873531 63.13348872 -10.41356426 63.13446138 -11.86839294 63.13571167 C-14.89461357 63.13717322 -17.92080437 63.13508402 -20.94702148 63.13037109 C-24.7916504 63.12466962 -28.63620953 63.12796538 -32.48083591 63.13394356 C-35.47772226 63.1375868 -38.47459254 63.13639353 -41.47147942 63.13381577 C-42.88780666 63.13315713 -44.30413546 63.13393688 -45.72046089 63.13629532 C-54.20134683 63.14732682 -62.56124821 62.86662485 -71 62 C-70.27275406 67.52706913 -68.66554027 72.69960141 -67 78 C-66.34 78 -65.68 78 -65 78 C-64.649375 78.70125 -64.29875 79.4025 -63.9375 80.125 C-59.183254 87.17968761 -50.13854629 91.26587876 -42 93 C-28.24091605 94.34038811 -17.69660043 92.41442415 -5.91796875 85.265625 C-3 84 -3 84 -0.89453125 84.52734375 C4.51882442 88.73525115 10.34796156 94.18993885 14 100 C13.77289484 102.78203826 13.16916789 103.83119513 11.1796875 105.81640625 C6.61124408 109.27758288 2.43360026 112.02414536 -3 114 C-3.60199219 114.25394531 -4.20398438 114.50789063 -4.82421875 114.76953125 C-21.47291734 121.62487773 -43.15461242 121.22662114 -59.875 114.9375 C-75.91143627 107.82406134 -88.93118078 95.83001938 -95.44140625 79.3515625 C-102.0678345 60.81928183 -102.40620753 40.36665858 -94.78515625 22.0859375 C-87.41264276 7.2554321 -75.56193837 -3.98964197 -60.140625 -10 C-39.77468653 -16.48467693 -16.86276071 -13.43512151 0 0 Z M-57 15 C-57 15.66 -57 16.32 -57 17 C-57.598125 17.26683594 -58.19625 17.53367187 -58.8125 17.80859375 C-64.67905918 21.0037733 -67.76672456 26.99868991 -70.43359375 32.88671875 C-71.26634097 35.30999936 -71.26634097 35.30999936 -70 39 C-48.88 39 -27.76 39 -6 39 C-7.19073187 28.28341321 -10.17349263 22.92933571 -18.3125 16.0625 C-30.63728549 7.23528877 -43.96015798 8.52631956 -57 15 Z " fill="#35B9E7" transform="translate(772,76)"/>
<path d="M0 0 C11.25313828 -0.34601896 22.53405847 1.37478349 32.296875 7.16015625 C33.286875 7.69640625 34.276875 8.23265625 35.296875 8.78515625 C36.286875 9.46578125 36.286875 9.46578125 37.296875 10.16015625 C37.296875 10.82015625 37.296875 11.48015625 37.296875 12.16015625 C37.87308594 12.38574219 38.44929688 12.61132812 39.04296875 12.84375 C45.57294243 16.65761678 49.79162918 25.00943241 51.82421875 32.08984375 C51.98019531 32.77304688 52.13617188 33.45625 52.296875 34.16015625 C52.46862747 34.8482991 52.64037994 35.53644196 52.81733704 36.24543762 C53.45500714 40.12131207 53.44432672 43.9498689 53.44213867 47.8659668 C53.44549728 48.73155212 53.4488559 49.59713745 53.45231628 50.48895264 C53.46179318 53.34160812 53.46376731 56.19420477 53.46484375 59.046875 C53.46805701 61.03033981 53.47142114 63.01380437 53.47492981 64.99726868 C53.48091176 69.14898224 53.48277051 73.30067501 53.48217773 77.45239258 C53.4820758 82.78247537 53.49576423 88.11242587 53.51294994 93.44247723 C53.52404117 97.5352897 53.52609788 101.6280698 53.52556801 105.72089577 C53.52675108 107.68696362 53.53119107 109.65303222 53.53890038 111.61908531 C53.54864854 114.3603294 53.54584359 117.10128096 53.53979492 119.8425293 C53.54541443 120.65969925 53.55103394 121.4768692 53.55682373 122.31880188 C53.52519512 127.93183613 53.52519512 127.93183613 51.296875 130.16015625 C49.08203125 130.40307617 49.08203125 130.40307617 46.359375 130.390625 C44.89371094 130.38772461 44.89371094 130.38772461 43.3984375 130.38476562 C42.37492187 130.37251953 41.35140625 130.36027344 40.296875 130.34765625 C39.27335937 130.34701172 38.24984375 130.34636719 37.1953125 130.34570312 C29.57752003 130.30047876 29.57752003 130.30047876 27.296875 129.16015625 C26.171875 127.09765625 26.171875 127.09765625 25.296875 125.16015625 C24.13671875 125.66675781 24.13671875 125.66675781 22.953125 126.18359375 C12.11155873 130.82614564 4.15044563 132.61269404 -7.703125 132.16015625 C-8.52296875 132.13050781 -9.3428125 132.10085937 -10.1875 132.0703125 C-18.5153813 131.46491687 -26.07057364 128.17141728 -32.703125 123.16015625 C-33.25484375 122.79921875 -33.8065625 122.43828125 -34.375 122.06640625 C-41.20291668 117.11163486 -45.47623746 109.09679226 -47.16650391 100.91796875 C-48.894613 89.03377999 -47.55051503 80.25859884 -40.453125 70.41015625 C-24.8530588 51.63719523 2.68746292 50.20579813 25.296875 47.16015625 C26.61845886 41.94623636 25.74568189 38.84814455 23.296875 34.16015625 C19.78494692 29.74516095 15.73506236 26.67346136 10.296875 25.16015625 C0.63483215 24.14686998 -7.85230838 24.90047058 -16.703125 29.16015625 C-17.60635498 29.59400635 -17.60635498 29.59400635 -18.52783203 30.03662109 C-22.61981701 32.01483849 -26.67027978 34.06425421 -30.703125 36.16015625 C-33.60564621 33.34159226 -35.80888211 30.75921775 -37.703125 27.16015625 C-37.703125 26.50015625 -37.703125 25.84015625 -37.703125 25.16015625 C-38.363125 25.16015625 -39.023125 25.16015625 -39.703125 25.16015625 C-42.75536229 19.78821861 -42.75536229 19.78821861 -42.53515625 17.140625 C-39.95741854 11.00488314 -30.19952698 7.74524135 -24.46484375 5.2578125 C-16.3233398 2.02193894 -8.70357265 0.5156741 0 0 Z M-14.703125 80.16015625 C-14.703125 80.82015625 -14.703125 81.48015625 -14.703125 82.16015625 C-15.30125 82.36640625 -15.899375 82.57265625 -16.515625 82.78515625 C-19.61751753 84.73491727 -20.40075521 86.77399479 -21.703125 90.16015625 C-22.52507917 95.67899142 -20.59415476 98.64292225 -17.703125 103.16015625 C-17.043125 103.16015625 -16.383125 103.16015625 -15.703125 103.16015625 C-15.703125 103.82015625 -15.703125 104.48015625 -15.703125 105.16015625 C-6.34913209 109.72219419 3.99643752 109.52842781 13.859375 106.47265625 C18.63650149 104.63079413 22.46552723 102.56579871 26.296875 99.16015625 C27.51726039 95.93893179 27.33890569 92.92701965 27.17578125 89.51953125 C27.12744141 88.44960937 27.07910156 87.3796875 27.02929688 86.27734375 C26.94518555 84.61058594 26.94518555 84.61058594 26.859375 82.91015625 C26.78106445 81.22019531 26.78106445 81.22019531 26.70117188 79.49609375 C26.57164514 76.71715653 26.43668447 73.93859201 26.296875 71.16015625 C12.88242079 70.9670162 -2.81882406 73.83871958 -14.703125 80.16015625 Z " fill="#36B9E7" transform="translate(287.703125,62.83984375)"/>
<path d="M0 0 C0.95310059 0.01047363 1.90620117 0.02094727 2.88818359 0.03173828 C4.43505859 0.04140625 4.43505859 0.04140625 6.01318359 0.05126953 C7.63353516 0.07640625 7.63353516 0.07640625 9.28662109 0.10205078 C10.37458984 0.11107422 11.46255859 0.12009766 12.58349609 0.12939453 C15.27642261 0.15301669 17.96891365 0.18595522 20.66162109 0.22705078 C21.84014593 3.76262528 21.80332357 6.95067831 21.79533386 10.62890625 C21.79759942 11.38889357 21.79986498 12.14888088 21.80219918 12.93189812 C21.80854434 15.48602683 21.8077095 18.04010255 21.80688477 20.59423828 C21.80987589 22.42230295 21.81327831 24.25036698 21.81706238 26.07843018 C21.82591021 31.04937318 21.82824079 36.02029897 21.82887816 40.99124908 C21.82982654 45.13664622 21.83350391 49.28203933 21.83705026 53.42743492 C21.8451974 63.20374124 21.84763421 72.98003834 21.84692383 82.75634766 C21.8463226 92.85323464 21.85688285 102.95006828 21.87266749 113.04694176 C21.88572505 121.70685262 21.89110849 130.366746 21.89046842 139.02666664 C21.89021295 144.20283507 21.89309093 149.37895609 21.90364647 154.55511475 C21.91329775 159.42075291 21.91342714 164.28629803 21.90612984 169.15193939 C21.90508036 170.9406218 21.90746824 172.72930991 21.9134903 174.51798248 C21.92116202 176.95383099 21.91659771 179.38935424 21.90885925 181.82519531 C21.91400282 182.53812681 21.91914638 183.25105831 21.92444581 183.9855938 C21.89872443 187.63246804 21.74537327 189.10142252 19.66162109 192.22705078 C17.44677734 192.61523438 17.44677734 192.61523438 14.72412109 192.62548828 C13.74701172 192.62935547 12.76990234 192.63322266 11.76318359 192.63720703 C10.73966797 192.62560547 9.71615234 192.61400391 8.66162109 192.60205078 C7.63810547 192.61365234 6.61458984 192.62525391 5.56005859 192.63720703 C4.58294922 192.63333984 3.60583984 192.62947266 2.59912109 192.62548828 C1.70064453 192.62210449 0.80216797 192.6187207 -0.12353516 192.61523438 C-0.85443359 192.48713379 -1.58533203 192.3590332 -2.33837891 192.22705078 C-4.75512784 188.60192739 -4.61838245 185.96774308 -4.59234619 181.78050232 C-4.59546617 181.01572589 -4.59858615 180.25094945 -4.60180068 179.46299797 C-4.6097972 176.89265337 -4.60345067 174.32254376 -4.59716797 171.75219727 C-4.59987708 169.91265728 -4.60343755 168.07311838 -4.60778809 166.23358154 C-4.61692328 161.23169136 -4.61336335 156.22988348 -4.60702991 151.22799182 C-4.60197653 146.0011998 -4.60665945 140.77441497 -4.60980225 135.54762268 C-4.6134435 126.77026093 -4.60863827 117.99293282 -4.59912109 109.21557617 C-4.58823286 99.05618008 -4.59176417 88.89686424 -4.6027739 78.73747009 C-4.6118382 70.02576618 -4.61313637 61.31408648 -4.60789657 52.60237938 C-4.60477257 47.39439043 -4.60437933 42.18643924 -4.61096954 36.97845268 C-4.61673005 32.08408205 -4.61276997 27.1898153 -4.60118103 22.29545593 C-4.59852763 20.49506872 -4.59931105 18.69467282 -4.60370636 16.89428902 C-4.60913649 14.44494491 -4.60235887 11.99593797 -4.59234619 9.5466156 C-4.59680763 8.82688031 -4.60126908 8.10714502 -4.60586572 7.36559957 C-4.55061052 0.44185297 -4.55061052 0.44185297 0 0 Z " fill="#35B7E5" transform="translate(634.33837890625,0.77294921875)"/>
<path d="M0 0 C0.66 0 1.32 0 2 0 C2 62.04 2 124.08 2 188 C9.59 188 17.18 188 25 188 C22 191 22 191 19.85522461 191.28051758 C19.04577393 191.23564209 18.23632324 191.1907666 17.40234375 191.14453125 C16.51869141 191.09876953 15.63503906 191.05300781 14.72460938 191.00585938 C13.80486328 190.94205078 12.88511719 190.87824219 11.9375 190.8125 C11.01388672 190.76802734 10.09027344 190.72355469 9.13867188 190.67773438 C2.27141765 190.27141765 2.27141765 190.27141765 0 188 C-0.19304082 185.50386884 -0.26055407 183.11918147 -0.24050903 180.62228394 C-0.24221788 179.85286724 -0.24392673 179.08345055 -0.24568737 178.2907182 C-0.24899563 175.69876455 -0.23795675 173.10706673 -0.22705078 170.51513672 C-0.22648696 168.66264858 -0.22680267 166.81016 -0.22793579 164.95767212 C-0.22851142 159.91659016 -0.21672316 154.87560268 -0.20278788 149.83454275 C-0.19031548 144.57078113 -0.18911278 139.30701753 -0.18673706 134.04324341 C-0.180512 124.07015265 -0.16408734 114.09710555 -0.14403808 104.12403405 C-0.12171095 92.77233551 -0.11069368 81.42063492 -0.10064721 70.0689199 C-0.07972198 46.71258902 -0.04452612 23.35629695 0 0 Z " fill="#3CA0C6" transform="translate(127,3)"/>
<path d="M0 0 C1.00509743 6.39762042 1.14392072 12.70728537 1.12939453 19.171875 C1.13114685 20.14740326 1.13289917 21.12293152 1.13470459 22.12802124 C1.13908376 25.33536593 1.13619529 28.54265479 1.1328125 31.75 C1.13348753 34.00895193 1.13445922 36.26790379 1.13571167 38.52685547 C1.13718407 43.26432994 1.13505201 48.00178554 1.13037109 52.73925781 C1.12472647 58.73727967 1.12792195 64.73525624 1.13394356 70.73327637 C1.13760662 75.40604983 1.13638376 80.07881309 1.13381577 84.75158691 C1.13315951 86.95821132 1.13392804 89.16483673 1.13629532 91.37145996 C1.14619425 103.20938685 1.01497074 115.03533297 0.61669922 126.8671875 C0.58635653 127.93848907 0.55601383 129.00979065 0.52475166 130.11355591 C0.46764928 131.59817825 0.46764928 131.59817825 0.40939331 133.11279297 C0.37881773 133.98612274 0.34824215 134.85945251 0.31674004 135.75924683 C0 138 0 138 -2 141 C-2 94.8 -2 48.6 -2 1 C-8.93 1 -15.86 1 -23 1 C-23 0.67 -23 0.34 -23 0 C-19.54210946 -0.19635974 -16.08367803 -0.38058252 -12.625 -0.5625 C-11.64015625 -0.61857422 -10.6553125 -0.67464844 -9.640625 -0.73242188 C-8.69960938 -0.78076172 -7.75859375 -0.82910156 -6.7890625 -0.87890625 C-5.48509521 -0.94960327 -5.48509521 -0.94960327 -4.15478516 -1.02172852 C-2 -1 -2 -1 0 0 Z " fill="#26ABDA" transform="translate(608,67)"/>
<path d="M0 0 C0.62519531 0.34933594 1.25039063 0.69867188 1.89453125 1.05859375 C9.41208602 5.79186898 13.50791031 13.69303437 16 22 C16.25 24.9375 16.25 24.9375 16 27 C15 28 15 28 12.29820251 28.12025452 C11.09241043 28.11803391 9.88661835 28.11581329 8.64428711 28.11352539 C7.98089828 28.11367142 7.31750946 28.11381744 6.63401794 28.1139679 C4.43176044 28.11326881 2.22958655 28.10547665 0.02734375 28.09765625 C-1.49580336 28.09579206 -3.01895107 28.09436816 -4.542099 28.09336853 C-8.55837651 28.08954346 -12.57461808 28.07971328 -16.59088135 28.06866455 C-20.68623366 28.05845019 -24.78159176 28.05387086 -28.87695312 28.04882812 C-36.91798528 28.038091 -44.95898817 28.02101472 -53 28 C-52.01 27.505 -52.01 27.505 -51 27 C-50.67 26.34 -50.34 25.68 -50 25 C-18.32 25.495 -18.32 25.495 14 26 C11.68864214 15.59888965 8.10296872 8.25703935 -0.84375 2.18359375 C-7.60810546 -1.52944919 -14.02320991 -2.33826592 -21.65234375 -1.91015625 C-24 -2 -24 -2 -27 -4 C-17.71434053 -6.25263221 -8.2137877 -4.7604467 0 0 Z " fill="#3AA3C8" transform="translate(752,89)"/>
<path d="M0 0 C0.33 0 0.66 0 1 0 C1.04627129 10.78729626 1.08184264 21.57456904 1.10362434 32.3619442 C1.11407667 37.37056347 1.12826221 42.37911502 1.15087891 47.38769531 C1.17255575 52.21818333 1.1845577 57.04860606 1.18975449 61.87913895 C1.19345954 63.72519585 1.20069425 65.57124906 1.21146011 67.41727829 C1.22590657 69.99620124 1.22798083 72.57485191 1.22705078 75.15380859 C1.23783661 76.30718971 1.23783661 76.30718971 1.24884033 77.48387146 C1.22810432 82.77189568 1.22810432 82.77189568 -1 85 C-3.21484375 85.24291992 -3.21484375 85.24291992 -5.9375 85.23046875 C-7.40316406 85.22756836 -7.40316406 85.22756836 -8.8984375 85.22460938 C-9.92195313 85.21236328 -10.94546875 85.20011719 -12 85.1875 C-13.02351563 85.18685547 -14.04703125 85.18621094 -15.1015625 85.18554688 C-22.71935497 85.14032251 -22.71935497 85.14032251 -25 84 C-25 82.02 -25 80.04 -25 78 C-24.34 79.32 -23.68 80.64 -23 82 C-16.07 82 -9.14 82 -2 82 C-1.96241577 78.3805542 -1.96241577 78.3805542 -1.92407227 74.68798828 C-1.84071816 66.72911083 -1.75201696 58.77029951 -1.66066074 50.81151009 C-1.60541902 45.98455238 -1.55199702 41.15758863 -1.50268555 36.33056641 C-1.45506043 31.67509448 -1.4027183 27.01969761 -1.34705925 22.36431503 C-1.32662729 20.5852736 -1.30791561 18.80621158 -1.29092598 17.02713394 C-1.26690057 14.54161359 -1.23684354 12.05623576 -1.20532227 9.57080078 C-1.1995668 8.82993225 -1.19381134 8.08906372 -1.18788147 7.32574463 C-1.11405216 2.22810432 -1.11405216 2.22810432 0 0 Z " fill="#3EA1C9" transform="translate(340,108)"/>
<path d="M0 0 C13.86 0 27.72 0 42 0 C42 0.33 42 0.66 42 1 C23.19 1.495 23.19 1.495 4 2 C12.24211712 7.07677675 12.24211712 7.07677675 21 11 C21.33 10.34 21.66 9.68 22 9 C23.32 9.33 24.64 9.66 26 10 C26 10.99 26 11.98 26 13 C28.31 13.33 30.62 13.66 33 14 C33 14.33 33 14.66 33 15 C21.11796462 15.99016961 10.19803567 10.28249728 1 3 C0.67 2.01 0.34 1.02 0 0 Z " fill="#20A1CF" transform="translate(508,240)"/>
<path d="M0 0 C1.60294922 0.01353516 1.60294922 0.01353516 3.23828125 0.02734375 C4.04652344 0.03894531 4.85476563 0.05054687 5.6875 0.0625 C6.1825 1.5475 6.1825 1.5475 6.6875 3.0625 C5.16382813 2.95808594 5.16382813 2.95808594 3.609375 2.8515625 C-5.92730484 2.39339254 -13.39273717 3.09240356 -21.3125 9.0625 C-29.39661468 16.53508571 -31.0165446 27.75715179 -33.3125 38.0625 C-33.6425 38.0625 -33.9725 38.0625 -34.3125 38.0625 C-35.08449349 28.21958304 -32.26902625 18.31431696 -25.87890625 10.70703125 C-18.53025125 2.99185979 -10.5890111 -0.11636276 0 0 Z " fill="#2DA6D0" transform="translate(416.3125,86.9375)"/>
<path d="M0 0 C0.99 0.33 1.98 0.66 3 1 C1.1489635 2.10940611 -0.70599717 3.21226581 -2.5625 4.3125 C-3.59503906 4.92738281 -4.62757813 5.54226562 -5.69140625 6.17578125 C-11.67452658 9.47462092 -16.88310948 11.39534707 -23.6875 12.1875 C-24.37650391 12.26790527 -25.06550781 12.34831055 -25.77539062 12.43115234 C-31.853701 13.09043254 -37.88933649 13.20831807 -44 13 C-43.67 12.34 -43.34 11.68 -43 11 C-40.81748419 10.81935758 -38.62703437 10.73161575 -36.4375 10.6875 C-29.76342826 10.33300385 -26.2296148 9.07909955 -21 5 C-20.34 5.66 -19.68 6.32 -19 7 C-20.98 7.99 -20.98 7.99 -23 9 C-20.06556598 8.73343428 -20.06556598 8.73343428 -17 8 C-16.34 7.01 -15.68 6.02 -15 5 C-15 5.66 -15 6.32 -15 7 C-8.33758326 4.49860011 -8.33758326 4.49860011 -2.0625 1.1875 C-1.381875 0.795625 -0.70125 0.40375 0 0 Z " fill="#2AACD6" transform="translate(586,244)"/>
<path d="M0 0 C0.99 0.495 0.99 0.495 2 1 C2.625 3.5625 2.625 3.5625 3 6 C3.66 6 4.32 6 5 6 C5.350625 6.70125 5.70125 7.4025 6.0625 8.125 C10.84331955 15.21911933 19.85076807 19.1731182 28 21 C33.97849658 21.69472104 39.98699459 21.86770065 46 22 C44 24 44 24 41.27734375 24.265625 C27.29866661 24.20022768 16.19015679 21.53815207 5.6953125 11.765625 C2.0918444 8.01270431 0 5.41763185 0 0 Z " fill="#28A1CC" transform="translate(702,148)"/>
<path d="M0 0 C0.66 0 1.32 0 2 0 C1.54548816 1.73017508 1.08621143 3.45909877 0.625 5.1875 C0.24214844 6.63189453 0.24214844 6.63189453 -0.1484375 8.10546875 C-1.86762619 13.94913305 -3.66271019 17.71551397 -9 21 C-11.31691454 21.72166191 -13.64848923 22.40059529 -16 23 C-16.33 23.66 -16.66 24.32 -17 25 C-19.31 24.67 -21.62 24.34 -24 24 C-24 23.34 -24 22.68 -24 22 C-23.27554687 21.84144531 -22.55109375 21.68289062 -21.8046875 21.51953125 C-14.41332432 19.73574894 -9.43875593 17.92271591 -5.34375 11.3359375 C-3.26653114 7.62241889 -1.34719302 4.04157906 0 0 Z " fill="#2DB4DF" transform="translate(446,209)"/>
<path d="M0 0 C2.81046073 0.50471412 5.47843813 1.14475224 8.21484375 1.97265625 C19.86284651 5.38272212 30.92762343 5.43401796 43 5 C43.33 4.34 43.66 3.68 44 3 C46.32249342 2.59802999 48.65885633 2.27313343 51 2 C52.66934283 1.68033861 54.3373217 1.35268934 56 1 C53.57051613 3.88955224 51.43471658 4.69517854 47.8125 5.625 C46.91144531 5.86476562 46.01039063 6.10453125 45.08203125 6.3515625 C38.20139168 7.79920023 31.74606284 8.17141853 24.75 7.8125 C23.92242187 7.77060547 23.09484375 7.72871094 22.2421875 7.68554688 C15.37419995 7.23089038 9.36116347 5.65048478 3 3 C2.01 2.67 1.02 2.34 0 2 C0 1.34 0 0.68 0 0 Z " fill="#2CA3CF" transform="translate(386,249)"/>
<path d="M0 0 C7.38443968 -1.39483861 14.98366732 0.68053138 22.12890625 2.44140625 C24.9297961 3.28918418 24.9297961 3.28918418 27 2 C27.66 2.66 28.32 3.32 29 4 C28.01 4.495 28.01 4.495 27 5 C28.051875 5.66 29.10375 6.32 30.1875 7 C34.36007749 9.94285445 36.60855711 13.55874891 39 18 C38.01 18.495 38.01 18.495 37 19 C36.64808594 18.46890625 36.29617188 17.9378125 35.93359375 17.390625 C32.4072839 12.34514772 29.53864658 9.67041889 24 7 C22.9275 6.443125 21.855 5.88625 20.75 5.3125 C17.33716626 3.68364753 14.7331431 2.87418689 10.98828125 2.90234375 C10.23095703 2.90556641 9.47363281 2.90878906 8.69335938 2.91210938 C7.51483398 2.92467773 7.51483398 2.92467773 6.3125 2.9375 C5.51521484 2.94201172 4.71792969 2.94652344 3.89648438 2.95117188 C1.93095743 2.9629415 -0.03453085 2.98087652 -2 3 C-1.34 2.01 -0.68 1.02 0 0 Z " fill="#2EA7D2" transform="translate(545,87)"/>
<path d="M0 0 C0.66 0 1.32 0 2 0 C2 1.98 2 3.96 2 6 C3.32 6 4.64 6 6 6 C6 6.66 6 7.32 6 8 C5.01 8 4.02 8 3 8 C3.185625 9.258125 3.37125 10.51625 3.5625 11.8125 C4.19117906 17.29597851 3.66318446 22.54148179 3 28 C2.34 28 1.68 28 1 28 C-0.35700647 25.28598706 -0.1123861 23.15153684 -0.09765625 20.1171875 C-0.09443359 18.95058594 -0.09121094 17.78398437 -0.08789062 16.58203125 C-0.07951172 15.35871094 -0.07113281 14.13539063 -0.0625 12.875 C-0.05798828 11.64394531 -0.05347656 10.41289062 -0.04882812 9.14453125 C-0.0370133 6.09630608 -0.02054028 3.04817686 0 0 Z " fill="#26B4E1" transform="translate(314,132)"/>
<path d="M0 0 C1.82586833 3.12773281 2.23995704 5.39638026 2.23828125 9 C2.25761719 10.44693237 2.25761719 10.44693237 2.27734375 11.9230957 C2.28894531 12.93847412 2.30054688 13.95385254 2.3125 15 C2.53913735 24.07895065 3.41162758 31.01685204 8 39 C8.33 39.66 8.66 40.32 9 41 C8.01 41 7.02 41 6 41 C0.62242921 31.14112022 -0.30011585 22.61123817 -0.125 11.4375 C-0.11597656 10.33341797 -0.10695313 9.22933594 -0.09765625 8.09179688 C-0.07430128 5.3942983 -0.04155054 2.69726923 0 0 Z " fill="#389CCA" transform="translate(517,117)"/>
<path d="M0 0 C0.66 1.32 1.32 2.64 2 4 C2.7425 3.649375 3.485 3.29875 4.25 2.9375 C7.21122875 1.9279902 8.12062561 2.12019116 11 3 C-0.58675462 9.72031768 -12.92346141 10.49449096 -26 10 C-25.67 9.34 -25.34 8.68 -25 8 C-22.45511762 7.73621949 -19.98923109 7.58166222 -17.4375 7.5 C-11.70245841 7.24110893 -6.51141353 6.72231673 -1 5 C-0.67 3.35 -0.34 1.7 0 0 Z " fill="#32A7D5" transform="translate(433,185)"/>
<path d="M0 0 C6.94632303 2.04953347 10.28848116 8.18910853 14 14 C15.42899155 16.96400505 16.34093265 19.78255301 17 23 C17.24363281 24.08474609 17.24363281 24.08474609 17.4921875 25.19140625 C18.10055563 28.56226231 18.29598458 30.48524421 16.5625 33.5 C16.046875 33.995 15.53125 34.49 15 35 C14.49351311 32.25049975 14.0195293 29.55951447 13.921875 26.76171875 C13.51208758 17.58540761 9.60653195 10.31701042 3.125 3.875 C2.52945312 3.33617188 1.93390625 2.79734375 1.3203125 2.2421875 C0.88460938 1.83226563 0.44890625 1.42234375 0 1 C0 0.67 0 0.34 0 0 Z " fill="#20ABD4" transform="translate(323,74)"/>
<path d="M0 0 C21.12 0 42.24 0 64 0 C64 0.33 64 0.66 64 1 C51.39812083 1.92218913 38.88161202 2.0976671 26.25 2 C22.71354501 1.97330498 19.17714289 1.9534337 15.640625 1.9375 C14.84481018 1.92920166 14.04899536 1.92090332 13.22906494 1.91235352 C9.35470435 1.89518856 5.76464797 2.04711452 2 3 C2 2.34 2 1.68 2 1 C1.34 0.67 0.68 0.34 0 0 Z " fill="#32BFF3" transform="translate(699,117)"/>
<path d="M0 0 C0.33 0 0.66 0 1 0 C1 22.11 1 44.22 1 67 C-0.32 66.67 -1.64 66.34 -3 66 C-3 65.34 -3 64.68 -3 64 C-2.01 63.505 -2.01 63.505 -1 63 C-0.67 42.21 -0.34 21.42 0 0 Z " fill="#34BEF3" transform="translate(150,48)"/>
<path d="M0 0 C0 0.66 0 1.32 0 2 C-6.6 2.66 -13.2 3.32 -20 4 C-20.33 4.99 -20.66 5.98 -21 7 C-22.36125 6.9690625 -22.36125 6.9690625 -23.75 6.9375 C-26.42672588 6.9889755 -28.46988052 7.2215017 -31 8 C-30.67 7.01 -30.34 6.02 -30 5 C-20.25244721 0.54134021 -10.54308983 -0.17158736 0 0 Z " fill="#2FACD2" transform="translate(553,63)"/>
<path d="M0 0 C0 0.66 0 1.32 0 2 C-6.625 6 -6.625 6 -10 6 C-10.33 6.66 -10.66 7.32 -11 8 C-17.93 8 -24.86 8 -32 8 C-32.33 7.34 -32.66 6.68 -33 6 C-31.31583984 5.92652344 -31.31583984 5.92652344 -29.59765625 5.8515625 C-19.77243438 5.37982898 -8.57104601 0 0 0 Z " fill="#4795D1" transform="translate(439,163)"/>
<path d="M0 0 C0.33 0.99 0.66 1.98 1 3 C0.5153125 3.40347656 0.030625 3.80695313 -0.46875 4.22265625 C-7.76619472 10.83245714 -12.88749862 19.66249585 -16 29 C-16.99 28.67 -17.98 28.34 -19 28 C-14.10861231 16.95583525 -8.68126782 8.42593641 0 0 Z " fill="#2EA4C9" transform="translate(514,74)"/>
<path d="M0 0 C1 4 1 4 0 6 C-2.64860427 6.59355614 -5.29197322 6.74209269 -8 7 C-8.33 8.32 -8.66 9.64 -9 11 C-10.3921875 11.1546875 -10.3921875 11.1546875 -11.8125 11.3125 C-15.03254358 12.0070192 -16.02579865 12.47740939 -18 15 C-18.66 14.67 -19.32 14.34 -20 14 C-18.92643323 12.84501103 -17.84070212 11.70132133 -16.75 10.5625 C-16.14671875 9.92441406 -15.5434375 9.28632812 -14.921875 8.62890625 C-12.89951984 6.91483694 -11.58729395 6.40641122 -9 6 C-9 5.34 -9 4.68 -9 4 C-6.03 2.68 -3.06 1.36 0 0 Z " fill="#2EB1E3" transform="translate(393,66)"/>
<path d="M0 0 C1.8701559 0.69548502 3.7224896 1.43858951 5.5703125 2.19140625 C5.2403125 3.18140625 4.9103125 4.17140625 4.5703125 5.19140625 C3.7453125 4.84078125 2.9203125 4.49015625 2.0703125 4.12890625 C-1.18158701 3.25786174 -2.50396521 3.18723136 -5.6796875 3.69140625 C-6.9171875 3.85640625 -8.1546875 4.02140625 -9.4296875 4.19140625 C-10.0896875 3.53140625 -10.7496875 2.87140625 -11.4296875 2.19140625 C-10.1096875 1.86140625 -8.7896875 1.53140625 -7.4296875 1.19140625 C-11.8846875 0.20140625 -11.8846875 0.20140625 -16.4296875 -0.80859375 C-10.57805751 -3.73440874 -6.03708542 -2.0091265 0 0 Z " fill="#32B9E7" transform="translate(435.4296875,66.80859375)"/>
<path d="M0 0 C0.33 0 0.66 0 1 0 C1.14695312 0.70125 1.29390625 1.4025 1.4453125 2.125 C3.0619218 8.96307154 5.27979304 13.78810482 10 19 C10.47050781 19.52207031 10.94101562 20.04414063 11.42578125 20.58203125 C13.22904615 22.20631204 14.99915482 23.14713918 17.1875 24.1875 C17.90292969 24.53167969 18.61835938 24.87585938 19.35546875 25.23046875 C20.16951172 25.61138672 20.16951172 25.61138672 21 26 C20.67 26.66 20.34 27.32 20 28 C10.86163812 24.34097784 5.38025534 19.25038599 1.0625 10.375 C-0.08326066 6.73552496 -0.23221126 3.79278398 0 0 Z " fill="#389FCF" transform="translate(384,142)"/>
<path d="M0 0 C0.81791016 0.34417969 0.81791016 0.34417969 1.65234375 0.6953125 C-2.97265625 3.6953125 -2.97265625 3.6953125 -6.34765625 3.6953125 C-6.34765625 4.3553125 -6.34765625 5.0153125 -6.34765625 5.6953125 C-7.35828125 6.4584375 -8.36890625 7.2215625 -9.41015625 8.0078125 C-14.76176821 12.36555367 -17.37676911 18.60905738 -20.34765625 24.6953125 C-21.29076522 22.15926947 -21.49635113 21.05987583 -20.45703125 18.51171875 C-19.78414062 17.39603516 -19.78414062 17.39603516 -19.09765625 16.2578125 C-18.659375 15.51660156 -18.22109375 14.77539062 -17.76953125 14.01171875 C-17.3003125 13.24730469 -16.83109375 12.48289062 -16.34765625 11.6953125 C-15.90808594 10.85613281 -15.46851563 10.01695313 -15.015625 9.15234375 C-13.00208731 6.18626598 -10.93175741 4.73085 -7.91015625 2.8203125 C-6.48896484 1.89605469 -6.48896484 1.89605469 -5.0390625 0.953125 C-2.34765625 -0.3046875 -2.34765625 -0.3046875 0 0 Z " fill="#26B1D6" transform="translate(721.34765625,87.3046875)"/>
<path d="M0 0 C0.66 0.66 1.32 1.32 2 2 C1.16210938 2.51046875 0.32421875 3.0209375 -0.5390625 3.546875 C-4.64199418 6.28216278 -7.94795374 9.72994413 -11.375 13.25 C-12.01566406 13.8996875 -12.65632812 14.549375 -13.31640625 15.21875 C-14.88229364 16.80800885 -16.44328509 18.40176417 -18 20 C-18.66 19.67 -19.32 19.34 -20 19 C-5.52590674 1.84196891 -5.52590674 1.84196891 0 0 Z " fill="#18AAD9" transform="translate(173,98)"/>
<path d="M0 0 C-0.61746094 0.18175781 -1.23492187 0.36351562 -1.87109375 0.55078125 C-7.62042737 2.25720447 -13.32305366 4.06654726 -19 6 C-19 6.66 -19 7.32 -19 8 C-19.61875 8.45375 -20.2375 8.9075 -20.875 9.375 C-23.13442278 11.10279389 -23.92750301 12.40813228 -25 15 C-25.66 14.34 -26.32 13.68 -27 13 C-25.38405168 10.95880212 -23.7143618 8.95927063 -22 7 C-21.34 7 -20.68 7 -20 7 C-20 6.34 -20 5.68 -20 5 C-19.34 4.34 -18.68 3.68 -18 3 C-18 2.34 -18 1.68 -18 1 C-16.68 0.67 -15.36 0.34 -14 0 C-14 0.66 -14 1.32 -14 2 C-12.98679687 1.65775391 -12.98679687 1.65775391 -11.953125 1.30859375 C-10.61507813 0.87740234 -10.61507813 0.87740234 -9.25 0.4375 C-7.92742187 0.00244141 -7.92742187 0.00244141 -6.578125 -0.44140625 C-3.92165684 -1.01697435 -2.52968894 -0.89248371 0 0 Z " fill="#29B0D7" transform="translate(292,137)"/>
<path d="M0 0 C3.80775061 3.02889253 7.34545328 5.85890712 10 10 C9.80618141 12.88965893 9.14199173 13.86338246 7.0390625 15.88671875 C6.24242187 16.48097656 5.44578125 17.07523438 4.625 17.6875 C3.83351563 18.28949219 3.04203125 18.89148438 2.2265625 19.51171875 C0 21 0 21 -3 22 C-3 21.01 -3 20.02 -3 19 C-0.8125 17.39453125 -0.8125 17.39453125 2 15.8125 C2.928125 15.28269531 3.85625 14.75289062 4.8125 14.20703125 C5.534375 13.80871094 6.25625 13.41039062 7 13 C6.43040847 9.37386801 5.07625466 7.74482259 2.4375 5.25 C1.79683594 4.63640625 1.15617188 4.0228125 0.49609375 3.390625 C0.00238281 2.93171875 -0.49132812 2.4728125 -1 2 C-0.67 1.34 -0.34 0.68 0 0 Z " fill="#26A0CC" transform="translate(776,166)"/>
<path d="M0 0 C2.5625 2.25 2.5625 2.25 4 4 C0.31642885 3.21242131 -2.61022409 1.71773171 -5.90234375 -0.0625 C-11.01637742 -2.34810164 -15.9924816 -2.02765474 -21.4765625 -1.83984375 C-24 -2 -24 -2 -27 -4 C-17.89541804 -6.20870414 -7.99452353 -4.94488848 0 0 Z " fill="#23ABD7" transform="translate(752,89)"/>
<path d="M0 0 C0.99 0 1.98 0 3 0 C3 3.96 3 7.92 3 12 C2.01 12.495 2.01 12.495 1 13 C0.53348793 15.12576782 0.53348793 15.12576782 0.375 17.5625 C0.30023438 18.38878906 0.22546875 19.21507812 0.1484375 20.06640625 C0.09945313 20.70449219 0.05046875 21.34257812 0 22 C-0.33 22 -0.66 22 -1 22 C-1.66 18.7 -2.32 15.4 -3 12 C-2.34 12 -1.68 12 -1 12 C-0.67 9.69 -0.34 7.38 0 5 C-0.66 5 -1.32 5 -2 5 C-1.125 1.125 -1.125 1.125 0 0 Z " fill="#3AB0DD" transform="translate(381,123)"/>
<path d="M0 0 C0.66 0 1.32 0 2 0 C1.86722656 1.01578125 1.73445313 2.0315625 1.59765625 3.078125 C0.52824586 11.37464723 -0.39930637 19.65352005 -1 28 C-1.66 28 -2.32 28 -3 28 C-3.44723112 18.17747938 -2.21157554 9.5176733 0 0 Z " fill="#26A7D4" transform="translate(359,107)"/>
<path d="M0 0 C0.66 0.33 1.32 0.66 2 1 C1.31164062 2.051875 1.31164062 2.051875 0.609375 3.125 C-2.95067221 8.62961082 -6.19416587 14.07657239 -9 20 C-9.66385027 21.33473782 -10.32982381 22.66842721 -11 24 C-11.66 23.67 -12.32 23.34 -13 23 C-9.80281663 14.63922402 -6.42573505 6.42573505 0 0 Z " fill="#34A3C8" transform="translate(687,84)"/>
<path d="M0 0 C5.02409019 1.7219664 8.35607223 3.25622224 11.96875 7.24609375 C11.63875 7.90609375 11.30875 8.56609375 10.96875 9.24609375 C10.288125 8.64796875 9.6075 8.04984375 8.90625 7.43359375 C0.88676984 1.46164044 -6.44372158 1.91293639 -16.03125 2.24609375 C-16.03125 1.58609375 -16.03125 0.92609375 -16.03125 0.24609375 C-11.27642112 -2.13132069 -4.99844861 -1.24317085 0 0 Z " fill="#2EA5CD" transform="translate(299.03125,85.75390625)"/>
<path d="M0 0 C3.00283975 0.8928562 4.39052204 2.00985625 6.640625 4.16015625 C9.49785522 6.80634105 12.28766249 8.79433476 15.640625 10.78515625 C15.640625 11.44515625 15.640625 12.10515625 15.640625 12.78515625 C14.650625 13.11515625 13.660625 13.44515625 12.640625 13.78515625 C12.640625 13.12515625 12.640625 12.46515625 12.640625 11.78515625 C11.650625 11.78515625 10.660625 11.78515625 9.640625 11.78515625 C9.310625 10.79515625 8.980625 9.80515625 8.640625 8.78515625 C7.15677677 7.08847495 7.15677677 7.08847495 5.328125 5.53515625 C4.73386719 4.99375 4.13960938 4.45234375 3.52734375 3.89453125 C1.70114045 2.5675554 1.70114045 2.5675554 -0.44921875 3.015625 C-2.74302574 3.93971493 -4.45510472 5.22093424 -6.359375 6.78515625 C-5.95937783 4.46517266 -5.45369621 2.92192201 -4.109375 0.97265625 C-2.359375 -0.21484375 -2.359375 -0.21484375 0 0 Z " fill="#35A4C5" transform="translate(381.359375,216.21484375)"/>
<path d="M0 0 C0 0.66 0 1.32 0 2 C-0.63164062 2.20753906 -1.26328125 2.41507812 -1.9140625 2.62890625 C-8.38538596 4.85750324 -14.38486018 7.56850111 -20.40283203 10.80102539 C-21.90690016 11.5905016 -23.45113979 12.30248608 -25 13 C-25.66 12.67 -26.32 12.34 -27 12 C-27 11.34 -27 10.68 -27 10 C-26.21625 9.95875 -25.4325 9.9175 -24.625 9.875 C-21.12476113 9.03011476 -19.18902564 8.01675719 -16.1875 6.125 C-11.35602996 3.08431689 -5.86742385 0 0 0 Z " fill="#32A1D6" transform="translate(282,86)"/>
<path d="M0 0 C0.33 0 0.66 0 1 0 C1.117292 3.18718443 1.18760766 6.37380568 1.25 9.5625 C1.30027344 10.90538086 1.30027344 10.90538086 1.3515625 12.27539062 C1.44183231 18.43630526 0.64410146 21.9844625 -3 27 C-8.12820513 31 -8.12820513 31 -11 31 C-11 30.34 -11 29.68 -11 29 C-9.35496646 27.46313305 -7.59712595 26.11683015 -5.82421875 24.73046875 C-0.76441042 19.93069339 -0.49545493 15.31046829 -0.3125 8.6875 C-0.27833984 7.85154297 -0.24417969 7.01558594 -0.20898438 6.15429688 C-0.12694539 4.10332228 -0.0617849 2.05168462 0 0 Z " fill="#2AA0C6" transform="translate(583,134)"/>
<path d="M0 0 C2.67053989 0.363378 3.77260595 0.74591911 5.59765625 2.78515625 C9.86726632 9.42297671 13 14.90504553 13 23 C9.7 23 6.4 23 3 23 C3 22.67 3 22.34 3 22 C5.64 22 8.28 22 11 22 C9.85233656 14.09387411 6.80890866 9.28333821 2 3 C1.34 2.01 0.68 1.02 0 0 Z " fill="#33A5C9" transform="translate(755,93)"/>
<path d="M0 0 C1.13034513 7.76170321 0.9242661 15.24086745 0.5625 23.0625 C0.51029297 24.30966797 0.45808594 25.55683594 0.40429688 26.84179688 C0.27562425 29.89484731 0.14070861 32.9474846 0 36 C-0.66 35.67 -1.32 35.34 -2 35 C-2 25 -2 15 -2 5 C-2.3062434 3.66018514 -2.63451555 2.32488113 -3 1 C-1 0 -1 0 0 0 Z " fill="#21B4DE" transform="translate(584,98)"/>
<path d="M0 0 C2.64 0 5.28 0 8 0 C8 0.66 8 1.32 8 2 C9.65 2 11.3 2 13 2 C13 2.33 13 2.66 13 3 C10.03 3 7.06 3 4 3 C4 4.98 4 6.96 4 9 C2.68 9 1.36 9 0 9 C0 6.03 0 3.06 0 0 Z " fill="#2AC2EB" transform="translate(632,1)"/>
<path d="M0 0 C0.33 0.99 0.66 1.98 1 3 C0.29875 3.36351563 -0.4025 3.72703125 -1.125 4.1015625 C-7.161197 7.3000908 -12.68498886 10.70534916 -18 15 C-18 14.01 -18 13.02 -18 12 C-12.76763108 6.77835315 -6.71611906 2.9849418 0 0 Z " fill="#2FABD7" transform="translate(709,67)"/>
<path d="M0 0 C0.99 0.33 1.98 0.66 3 1 C3.144375 1.639375 3.28875 2.27875 3.4375 2.9375 C3.623125 3.618125 3.80875 4.29875 4 5 C4.61488281 5.28746094 5.22976562 5.57492188 5.86328125 5.87109375 C8.46800248 7.24726274 9.28349338 8.59934972 10.75 11.125 C11.39195312 12.21167969 11.39195312 12.21167969 12.046875 13.3203125 C12.51867187 14.15175781 12.51867187 14.15175781 13 15 C9.23511958 13.27845212 6.84936103 11.00765886 4 8 C4 8.66 4 9.32 4 10 C3.34 10 2.68 10 2 10 C1.34 8.02 0.68 6.04 0 4 C0.66 4 1.32 4 2 4 C2 3.34 2 2.68 2 2 C1.34 2 0.68 2 0 2 C0 1.34 0 0.68 0 0 Z " fill="#30AFDB" transform="translate(217,166)"/>
<path d="M0 0 C5.55871886 0.75800712 5.55871886 0.75800712 7.9375 2.0625 C10.95297586 3.43317084 13.73661871 3.12551466 17 3 C16.67 3.99 16.34 4.98 16 6 C16.99 6.33 17.98 6.66 19 7 C15.07440511 8.55131943 12.69775159 7.37152113 8.9375 5.75 C7.89464844 5.31171875 6.85179687 4.8734375 5.77734375 4.421875 C3.29768884 3.15240329 1.78330344 2.09800405 0 0 Z " fill="#26ABD5" transform="translate(703,185)"/>
<path d="M0 0 C0.33 0.99 0.66 1.98 1 3 C0.28972656 3.69867188 -0.42054688 4.39734375 -1.15234375 5.1171875 C-2.07144531 6.02726562 -2.99054688 6.93734375 -3.9375 7.875 C-4.85402344 8.77992187 -5.77054688 9.68484375 -6.71484375 10.6171875 C-9.01187627 12.77682255 -9.01187627 12.77682255 -10 15 C-10.66 15 -11.32 15 -12 15 C-12.28875 15.61875 -12.5775 16.2375 -12.875 16.875 C-14 19 -14 19 -16 21 C-16.99 20.67 -17.98 20.34 -19 20 C-15.25816067 15.41624682 -11.40956067 11.53471845 -6.90234375 7.7109375 C-4.27983056 5.35229114 -2.16758342 2.77721626 0 0 Z " fill="#3FA2C3" transform="translate(193,75)"/>
<path d="M0 0 C-1.71829999 7.44596662 -6.79218294 13.69281415 -13 18 C-13 15 -13 15 -11.625 13.3125 C-10 12 -10 12 -8 12 C-7.72736328 11.07767578 -7.72736328 11.07767578 -7.44921875 10.13671875 C-7.19785156 9.32847656 -6.94648438 8.52023438 -6.6875 7.6875 C-6.44386719 6.88699219 -6.20023437 6.08648437 -5.94921875 5.26171875 C-4.68640936 2.25280256 -3.45729878 0 0 0 Z " fill="#39A0D1" transform="translate(467,226)"/>
<path d="M0 0 C7.26 0 14.52 0 22 0 C19 3 19 3 16.82348633 3.2487793 C16.00130615 3.19117432 15.17912598 3.13356934 14.33203125 3.07421875 C13.43935547 3.01943359 12.54667969 2.96464844 11.62695312 2.90820312 C10.23379883 2.79895508 10.23379883 2.79895508 8.8125 2.6875 C7.87212891 2.62626953 6.93175781 2.56503906 5.96289062 2.50195312 C3.64059043 2.34870489 1.32028542 2.1808714 -1 2 C-0.67 1.34 -0.34 0.68 0 0 Z " fill="#3FA1CE" transform="translate(130,191)"/>
<path d="M0 0 C0.33 0 0.66 0 1 0 C0.6146562 5.78015703 0.34877941 8.03493642 -4 12 C-5.18572228 14.28675011 -6.07290615 16.589556 -7 19 C-7.66 19 -8.32 19 -9 19 C-7.07659354 12.01499761 -4.15127876 5.95348061 0 0 Z " fill="#2AABD4" transform="translate(370,83)"/>
<path d="M0 0 C0.66 0 1.32 0 2 0 C2.45375 0.639375 2.9075 1.27875 3.375 1.9375 C4.788082 4.16374935 4.788082 4.16374935 7 4.5 C9.7579808 5.1894952 10.50041754 6.67564718 12 9 C11.01 9.495 11.01 9.495 10 10 C10 10.66 10 11.32 10 12 C6.60812721 10.58426179 4.90302459 8.95769034 2.75 6 C2.22921875 5.29875 1.7084375 4.5975 1.171875 3.875 C0 2 0 2 0 0 Z " fill="#30B3DC" transform="translate(683,165)"/>
<path d="M0 0 C2.375 0.75 2.375 0.75 5 2 C5.66666667 3.33333333 6.33333333 4.66666667 7 6 C9.29534258 7.13545562 9.29534258 7.13545562 12 8 C14.00751815 8.98482022 16.00934459 9.98152514 18 11 C17.67 11.66 17.34 12.32 17 13 C11.37567461 11.78691021 8.99325182 10.30850854 5 6 C4.071875 5.46375 3.14375 4.9275 2.1875 4.375 C1.465625 3.92125 0.74375 3.4675 0 3 C0 2.01 0 1.02 0 0 Z " fill="#23B7DF" transform="translate(522,157)"/>
<path d="M0 0 C0.66 0.33 1.32 0.66 2 1 C1.58427734 2.08667969 1.58427734 2.08667969 1.16015625 3.1953125 C-1.55621227 10.42755647 -1.55621227 10.42755647 -3 18 C-3.33 18 -3.66 18 -4 18 C-4 12.39 -4 6.78 -4 1 C-3.01 1 -2.02 1 -1 1 C-0.67 0.67 -0.34 0.34 0 0 Z " fill="#2EAFD7" transform="translate(522,103)"/>
<path d="M0 0 C0.33 0 0.66 0 1 0 C2.0712828 6.02596573 2.09945415 11.88909517 2 18 C1.01 18 0.02 18 -1 18 C-2.125 11.25 -2.125 11.25 -1 9 C-0.77532169 7.46331135 -0.59203195 5.92031946 -0.4375 4.375 C-0.35371094 3.55773437 -0.26992188 2.74046875 -0.18359375 1.8984375 C-0.12300781 1.27195312 -0.06242188 0.64546875 0 0 Z " fill="#2CAFE4" transform="translate(792,119)"/>
<path d="M0 0 C0.66 0.66 1.32 1.32 2 2 C0.02 3.32 -1.96 4.64 -4 6 C-3.34 7.32 -2.68 8.64 -2 10 C-3.65 10 -5.3 10 -7 10 C-7 9.34 -7 8.68 -7 8 C-7.99 7.67 -8.98 7.34 -10 7 C-10 6.34 -10 5.68 -10 5 C-6.7 3.35 -3.4 1.7 0 0 Z " fill="#35B2DE" transform="translate(310,164)"/>
<path d="M0 0 C1.15242188 0.00902344 2.30484375 0.01804688 3.4921875 0.02734375 C4.36101562 0.03894531 5.22984375 0.05054688 6.125 0.0625 C5.795 0.7225 5.465 1.3825 5.125 2.0625 C2.91015625 2.44140625 2.91015625 2.44140625 0.1875 2.625 C-3.48175121 2.83051323 -3.48175121 2.83051323 -6.875 4.0625 C-8.89427511 3.45671747 -10.89753397 2.79330266 -12.875 2.0625 C-12.875 1.7325 -12.875 1.4025 -12.875 1.0625 C-8.52167264 0.22226812 -4.43057481 -0.04520995 0 0 Z M-9.875 5.0625 C-7.875 6.0625 -7.875 6.0625 -7.875 6.0625 Z " fill="#39A5D2" transform="translate(412.875,62.9375)"/>
<path d="M0 0 C0.66 0 1.32 0 2 0 C2.36351562 1.06927734 2.36351562 1.06927734 2.734375 2.16015625 C5.05569233 8.7948212 5.05569233 8.7948212 8.3125 15 C9.1478125 16.485 9.1478125 16.485 10 18 C9.67 18.99 9.34 19.98 9 21 C4.30130413 14.43094946 0 8.34462413 0 0 Z " fill="#2D9FCC" transform="translate(495,152)"/>
<path d="M0 0 C-1 3 -1 3 -3.94921875 4.640625 C-5.19026689 5.18865483 -6.43667098 5.72467731 -7.6875 6.25 C-8.30044922 6.53101563 -8.91339844 6.81203125 -9.54492188 7.1015625 C-13.76421284 8.90919087 -16.57421367 9.16933218 -21 8 C-21 7.67 -21 7.34 -21 7 C-20.21496094 6.82984375 -19.42992187 6.6596875 -18.62109375 6.484375 C-13.0646307 5.20263874 -5.14624269 0 0 0 Z " fill="#2DA6DA" transform="translate(580,185)"/>
<path d="M0 0 C6.75982745 -1.07463923 13.46934733 0.28704192 20 2 C19.67 2.66 19.34 3.32 19 4 C18.13713379 3.75552124 18.13713379 3.75552124 17.25683594 3.50610352 C15.04291893 3.00962472 13.15326203 2.88520256 10.890625 2.90234375 C9.75947266 2.90717773 9.75947266 2.90717773 8.60546875 2.91210938 C7.82816406 2.92048828 7.05085937 2.92886719 6.25 2.9375 C5.45722656 2.94201172 4.66445313 2.94652344 3.84765625 2.95117188 C1.89840492 2.96291435 -0.05080738 2.98084854 -2 3 C-1.34 2.01 -0.68 1.02 0 0 Z " fill="#39A3CB" transform="translate(545,87)"/>
<path d="M0 0 C3.60401481 -0.08701039 7.20776012 -0.14039388 10.8125 -0.1875 C12.34874023 -0.22520508 12.34874023 -0.22520508 13.91601562 -0.26367188 C15.39038086 -0.27817383 15.39038086 -0.27817383 16.89453125 -0.29296875 C18.25348511 -0.31653442 18.25348511 -0.31653442 19.63989258 -0.34057617 C22.42444206 0.06124927 23.27599535 0.83688562 25 3 C24.01 3.495 24.01 3.495 23 4 C22.34 3.67 21.68 3.34 21 3 C19.33434251 2.84777027 17.66343504 2.75082785 15.9921875 2.68359375 C15.00605469 2.64169922 14.01992187 2.59980469 13.00390625 2.55664062 C11.45509766 2.49766602 11.45509766 2.49766602 9.875 2.4375 C8.83472656 2.39431641 7.79445312 2.35113281 6.72265625 2.30664062 C4.14857472 2.2003712 1.57439492 2.09833417 -1 2 C-0.67 1.34 -0.34 0.68 0 0 Z " fill="#1ABADB" transform="translate(128,1)"/>
<path d="M0 0 C-3.42388092 3.82669043 -6.00724943 5.72278474 -11 7 C-10.61502006 4.76711635 -10.10506663 3.16343698 -8.875 1.25 C-6.00254099 -0.66497267 -3.35516417 -0.18991495 0 0 Z " fill="#32AEDC" transform="translate(453,244)"/>
<path d="M0 0 C2.88437779 1.29299694 4.87219421 2.65941363 7 5 C6.67 5.99 6.34 6.98 6 8 C3.4375 9.1875 3.4375 9.1875 1 10 C1.57584432 7.61435923 2.22227595 5.33317216 3 3 C1.35 3.33 -0.3 3.66 -2 4 C-1.34 2.68 -0.68 1.36 0 0 Z " fill="#2CB4DD" transform="translate(769,160)"/>
<path d="M0 0 C-3.42453224 3.18112186 -5.8999681 3.38107846 -10.5 3.3125 C-11.6240625 3.30863281 -12.748125 3.30476562 -13.90625 3.30078125 C-16.83088934 3.01644131 -18.52707449 2.52133407 -21 1 C-18.43761495 0.83138242 -15.87511576 0.66504227 -13.3125 0.5 C-12.59126953 0.45230469 -11.87003906 0.40460938 -11.12695312 0.35546875 C-7.41171286 0.11796481 -3.72305126 -0.05874637 0 0 Z " fill="#2EABD3" transform="translate(297,192)"/>
<path d="M0 0 C4.00990777 1.55222236 7.91048854 3.30377723 11.81640625 5.09765625 C13.86793738 5.94542672 15.83557983 6.52392572 18 7 C18 7.66 18 8.32 18 9 C13.22140673 8.41724472 9.36064234 7.0188159 5 5 C4.21625 4.67 3.4325 4.34 2.625 4 C1 3 1 3 0 0 Z " fill="#26ABD6" transform="translate(381,184)"/>
<path d="M0 0 C0.84820313 0.16371094 1.69640625 0.32742187 2.5703125 0.49609375 C6.0645531 1.00948445 9.34627574 1.09850739 12.875 1.0625 C14.02742187 1.05347656 15.17984375 1.04445312 16.3671875 1.03515625 C17.67042969 1.01775391 17.67042969 1.01775391 19 1 C18.67 1.66 18.34 2.32 18 3 C12.39 3 6.78 3 1 3 C0.67 2.01 0.34 1.02 0 0 Z " fill="#27A8D3" transform="translate(540,231)"/>
<path d="M0 0 C0.99 0.33 1.98 0.66 3 1 C-0.61251516 5.56048012 -3.98797445 9.01665146 -9 12 C-9 10.68 -9 9.36 -9 8 C-7.68 7.34 -6.36 6.68 -5 6 C-5 5.34 -5 4.68 -5 4 C-4.360625 3.71125 -3.72125 3.4225 -3.0625 3.125 C-0.84793921 2.17176549 -0.84793921 2.17176549 0 0 Z " fill="#37A8DD" transform="translate(222,78)"/>
<path d="M0 0 C0 0.66 0 1.32 0 2 C-0.88042969 2.33773437 -1.76085937 2.67546875 -2.66796875 3.0234375 C-4.41013672 3.69246094 -4.41013672 3.69246094 -6.1875 4.375 C-7.91033203 5.03628906 -7.91033203 5.03628906 -9.66796875 5.7109375 C-12.45335994 6.78852143 -15.22997721 7.8836443 -18 9 C-17 6 -17 6 -14.56640625 4.6484375 C-13.57511719 4.22820312 -12.58382813 3.80796875 -11.5625 3.375 C-10.57378906 2.94960937 -9.58507812 2.52421875 -8.56640625 2.0859375 C-7.71949219 1.72757812 -6.87257813 1.36921875 -6 1 C-4 0 -4 0 0 0 Z " fill="#329FD2" transform="translate(272,66)"/>
<path d="M0 0 C1.98 0.99 1.98 0.99 4 2 C4 2.66 4 3.32 4 4 C4.66 4 5.32 4 6 4 C6 4.66 6 5.32 6 6 C6.70125 6.12375 7.4025 6.2475 8.125 6.375 C11.17656387 7.03838345 14.05340938 7.97211955 17 9 C17 9.33 17 9.66 17 10 C15.02 10.33 13.04 10.66 11 11 C11 10.34 11 9.68 11 9 C10.443125 8.9175 9.88625 8.835 9.3125 8.75 C6.26322081 7.76104459 4.34810037 6.15242534 2 4 C2 3.34 2 2.68 2 2 C1.34 2 0.68 2 0 2 C0 1.34 0 0.68 0 0 Z " fill="#30A4CE" transform="translate(266,162)"/>
<path d="M0 0 C0.33 0.99 0.66 1.98 1 3 C-1.72285663 8.21880854 -5.04457595 10.87991819 -10 14 C-10.66 14 -11.32 14 -12 14 C-10.84488359 10.53465077 -10.0549227 10.11047875 -7.125 8.125 C-3.82925104 5.76245595 -1.75991252 3.7398141 0 0 Z " fill="#32A3CA" transform="translate(578,217)"/>
<path d="M0 0 C0 0.66 0 1.32 0 2 C-6.625 6 -6.625 6 -10 6 C-10.33 6.66 -10.66 7.32 -11 8 C-12.32 7.34 -13.64 6.68 -15 6 C-13.96875 5.566875 -12.9375 5.13375 -11.875 4.6875 C-9.41715468 3.64054763 -7.07393602 2.52823156 -4.6875 1.3125 C-2 0 -2 0 0 0 Z " fill="#25A5D0" transform="translate(439,163)"/>
<path d="M0 0 C4.35354956 0.49558795 6.30066031 1.80087599 9.3125 4.9375 C10.00988281 5.64777344 10.70726562 6.35804687 11.42578125 7.08984375 C13 9 13 9 13 11 C7.42542386 8.52241061 3.63138013 4.84184017 0 0 Z " fill="#299FC1" transform="translate(766,74)"/>
<path d="M0 0 C1.32 0 2.64 0 4 0 C4 0.99 4 1.98 4 3 C5.98 3 7.96 3 10 3 C9.67 3.99 9.34 4.98 9 6 C9.99 7.485 9.99 7.485 11 9 C10.484375 8.731875 9.96875 8.46375 9.4375 8.1875 C6.33598585 6.67650593 3.17737194 5.34427274 0 4 C0 2.68 0 1.36 0 0 Z " fill="#2DBDEB" transform="translate(692,174)"/>
<path d="M0 0 C0.66 0.33 1.32 0.66 2 1 C1.01 2.3303125 1.01 2.3303125 0 3.6875 C-1.98860067 6.98111986 -2.43735074 8.28251873 -2 12 C-3.65 12 -5.3 12 -7 12 C-6.40477663 10.55877387 -5.79842381 9.12214132 -5.1875 7.6875 C-4.85105469 6.88699219 -4.51460937 6.08648437 -4.16796875 5.26171875 C-3.01799296 3.03484255 -1.86373039 1.65012233 0 0 Z " fill="#2EACD5" transform="translate(248,133)"/>
<path d="M0 0 C0.99 0 1.98 0 3 0 C3.33 0.99 3.66 1.98 4 3 C4.99 3.33 5.98 3.66 7 4 C7.33 4.99 7.66 5.98 8 7 C7.01 8.485 7.01 8.485 6 10 C4.99106869 8.90398831 3.99311775 7.79786082 3 6.6875 C2.1646875 5.76517578 2.1646875 5.76517578 1.3125 4.82421875 C0 3 0 3 0 0 Z " fill="#30ACD6" transform="translate(165,138)"/>
<path d="M0 0 C-1.72569639 1.13031603 -3.45571739 2.25403107 -5.1875 3.375 C-6.15042969 4.00148438 -7.11335938 4.62796875 -8.10546875 5.2734375 C-10.69803936 6.81988312 -13.16853116 7.97508075 -16 9 C-5.47552448 -1.82517483 -5.47552448 -1.82517483 0 0 Z " fill="#38A0CD" transform="translate(265,123)"/>
<path d="M0 0 C-4.63237481 3.08824987 -9.03342444 4.21070452 -14.5 3.625 C-15.325 3.41875 -16.15 3.2125 -17 3 C-16.67 2.34 -16.34 1.68 -16 1 C-13.1640625 0.33203125 -13.1640625 0.33203125 -9.625 -0.1875 C-8.46226562 -0.36667969 -7.29953125 -0.54585938 -6.1015625 -0.73046875 C-3 -1 -3 -1 0 0 Z " fill="#2FA7D5" transform="translate(309,112)"/>
<path d="M0 0 C0.33 0.66 0.66 1.32 1 2 C1.66 2 2.32 2 3 2 C4.02104551 2.97850195 5.0206121 3.97980427 6 5 C6.66 5.33 7.32 5.66 8 6 C7.67 7.32 7.34 8.64 7 10 C6.34 10 5.68 10 5 10 C2 5.61538462 2 5.61538462 2 3 C1.34 3 0.68 3 0 3 C0 2.01 0 1.02 0 0 Z M8 5 C9.65 5 11.3 5 13 5 C13 5.66 13 6.32 13 7 C11.35 6.67 9.7 6.34 8 6 C8 5.67 8 5.34 8 5 Z " fill="#30ADD3" transform="translate(248,85)"/>
<path d="M0 0 C1.65 0.33 3.3 0.66 5 1 C5 1.99 5 2.98 5 4 C7.31 4.33 9.62 4.66 12 5 C12 5.33 12 5.66 12 6 C2.58997722 6.3690205 2.58997722 6.3690205 -2 4 C-1.34 3.67 -0.68 3.34 0 3 C0 2.01 0 1.02 0 0 Z " fill="#29ADD9" transform="translate(529,249)"/>
<path d="M0 0 C3.153498 0.70077733 6.08961104 1.5841351 9 3 C9.33 3.99 9.66 4.98 10 6 C11.49985609 7.66710346 11.49985609 7.66710346 13 9 C9.02348017 9 7.85083826 7.55718178 4.8125 5.0625 C3.91144531 4.33160156 3.01039063 3.60070312 2.08203125 2.84765625 C1.39496094 2.23792969 0.70789063 1.62820312 0 1 C0 0.67 0 0.34 0 0 Z " fill="#3AA1CE" transform="translate(367,236)"/>
<path d="M0 0 C1.22541995 3.67625984 0.63382842 5.40247587 -0.3125 9.125 C-0.57675781 10.20007813 -0.84101562 11.27515625 -1.11328125 12.3828125 C-2 15 -2 15 -4 16 C-3.03644647 6.58997722 -3.03644647 6.58997722 -2 2 C-1.34 2 -0.68 2 0 2 C0 1.34 0 0.68 0 0 Z " fill="#36A5D0" transform="translate(607,206)"/>
<path d="M0 0 C3 1 3 1 4.0625 2.9375 C4.371875 3.618125 4.68125 4.29875 5 5 C5.66 5.66 6.32 6.32 7 7 C6.34 8.65 5.68 10.3 5 12 C2.03 11.505 2.03 11.505 -1 11 C-0.01 10.34 0.98 9.68 2 9 C2 5.20442119 1.49821059 3.37097383 0 0 Z " fill="#2FAED4" transform="translate(230,182)"/>
<path d="M0 0 C0.86882813 0.19207031 1.73765625 0.38414063 2.6328125 0.58203125 C4.875 1.1875 4.875 1.1875 6.875 2.1875 C6.875 2.8475 6.875 3.5075 6.875 4.1875 C3.245 3.8575 -0.385 3.5275 -4.125 3.1875 C-4.125 2.5275 -4.125 1.8675 -4.125 1.1875 C-5.775 1.1875 -7.425 1.1875 -9.125 1.1875 C-5.74668917 -0.9259084 -3.83917579 -0.88816753 0 0 Z " fill="#28AFD8" transform="translate(749.125,64.8125)"/>
<path d="M0 0 C1.24716797 0.63228516 1.24716797 0.63228516 2.51953125 1.27734375 C4.14955078 2.09912109 4.14955078 2.09912109 5.8125 2.9375 C7.43091797 3.75541016 7.43091797 3.75541016 9.08203125 4.58984375 C11.96211527 6.0585207 11.96211527 6.0585207 15 7 C15 7.66 15 8.32 15 9 C9.46091731 8.05044297 4.60079782 6.28628416 0 3 C0 2.01 0 1.02 0 0 Z " fill="#26A8D4" transform="translate(256,184)"/>
<path d="M0 0 C0.66 0 1.32 0 2 0 C2.86604534 1.76505435 3.71748642 3.53728074 4.5625 5.3125 C5.27599609 6.79169922 5.27599609 6.79169922 6.00390625 8.30078125 C7 11 7 11 6 14 C2.7563715 10.292996 0 5.02493834 0 0 Z " fill="#359DD0" transform="translate(676,151)"/>
<path d="M0 0 C0 0.66 0 1.32 0 2 C-1.64333504 3.03789581 -3.31243867 4.03567924 -5 5 C-5.66 5.66 -6.32 6.32 -7 7 C-7.33 6.34 -7.66 5.68 -8 5 C-9.32 5.33 -10.64 5.66 -12 6 C-11.67 5.01 -11.34 4.02 -11 3 C-9.00390625 2.05078125 -9.00390625 2.05078125 -6.5625 1.3125 C-5.75941406 1.06113281 -4.95632813 0.80976562 -4.12890625 0.55078125 C-2 0 -2 0 0 0 Z " fill="#2DACD6" transform="translate(278,116)"/>
<path d="M0 0 C2.90292752 3.27672915 3.58029064 5.95282609 4.1875 10.25 C4.34605469 11.32765625 4.50460937 12.4053125 4.66796875 13.515625 C4.83232422 14.74539062 4.83232422 14.74539062 5 16 C4.01 15.67 3.02 15.34 2 15 C1.95101563 14.40832031 1.90203125 13.81664063 1.8515625 13.20703125 C1.43543133 8.80895528 0.95034405 5.03071103 -1 1 C-0.67 0.67 -0.34 0.34 0 0 Z " fill="#31A0D4" transform="translate(312,95)"/>
<path d="M0 0 C0 0.99 0 1.98 0 3 C-1.49165082 4.26466048 -2.98798145 5.52543367 -4.53125 6.7265625 C-6.30666591 8.26588587 -7.1872514 9.80557877 -8 12 C-9 9 -9 9 -7.8125 6.5625 C-3.17073171 0 -3.17073171 0 0 0 Z " fill="#36A4D4" transform="translate(374,223)"/>
<path d="M0 0 C5.19644079 1.59890486 10.06612142 3.74138003 15 6 C14.01 6.66 13.02 7.32 12 8 C8.04 6.02 4.08 4.04 0 2 C0 1.34 0 0.68 0 0 Z " fill="#28A7D0" transform="translate(518,185)"/>
<path d="M0 0 C0.7425 0.78375 1.485 1.5675 2.25 2.375 C5.58974657 5.71888731 5.58974657 5.71888731 10 7 C10 8.65 10 10.3 10 12 C4.79857016 9.55226831 2.17811135 5.59788619 -1 1 C-0.67 0.67 -0.34 0.34 0 0 Z " fill="#2BADD3" transform="translate(506,173)"/>
<path d="M0 0 C0 1.65 0 3.3 0 5 C-1.3921875 5.1546875 -1.3921875 5.1546875 -2.8125 5.3125 C-6.03254358 6.0070192 -7.02579865 6.47740939 -9 9 C-9.66 8.67 -10.32 8.34 -11 8 C-9.87811441 6.85111717 -8.75238316 5.70598863 -7.625 4.5625 C-6.99851562 3.92441406 -6.37203125 3.28632812 -5.7265625 2.62890625 C-3.74785826 0.76211967 -2.74097805 0 0 0 Z " fill="#34A5CF" transform="translate(384,72)"/>
<path d="M0 0 C3.29680965 0.65784963 5.84117922 1.89420573 8.75 3.5625 C9.94882812 4.24505859 9.94882812 4.24505859 11.171875 4.94140625 C11.77515625 5.29074219 12.3784375 5.64007813 13 6 C12.67 6.66 12.34 7.32 12 8 C10.37025436 7.23925157 8.74633352 6.46601567 7.125 5.6875 C6.22007812 5.25824219 5.31515625 4.82898438 4.3828125 4.38671875 C2 3 2 3 0 0 Z " fill="#269DD0" transform="translate(392,162)"/>
<path d="M0 0 C0.99 0.33 1.98 0.66 3 1 C2.2575 1.70125 1.515 2.4025 0.75 3.125 C-2.09191836 5.92478751 -2.09191836 5.92478751 -4.1875 9.3125 C-4.785625 10.199375 -5.38375 11.08625 -6 12 C-6.66 12 -7.32 12 -8 12 C-6.49087042 7.01987239 -3.44338151 3.75740058 0 0 Z " fill="#37A0D6" transform="translate(394,94)"/>
<path d="M0 0 C3.15140423 0.34069235 4.60781561 0.58076841 6.8125 2.9375 C8 5 8 5 8 7 C7.34 7 6.68 7 6 7 C5.67 6.34 5.34 5.68 5 5 C1.97065509 4.34227572 1.97065509 4.34227572 -1 4 C-0.67 2.68 -0.34 1.36 0 0 Z " fill="#2DB2DD" transform="translate(515,216)"/>
<path d="M0 0 C-1.98 0.66 -3.96 1.32 -6 2 C-6 2.66 -6 3.32 -6 4 C-6.61875 4.45375 -7.2375 4.9075 -7.875 5.375 C-10.13442278 7.10279389 -10.92750301 8.40813228 -12 11 C-12.66 10.34 -13.32 9.68 -14 9 C-12.38405168 6.95880212 -10.7143618 4.95927063 -9 3 C-8.34 3 -7.68 3 -7 3 C-7 2.34 -7 1.68 -7 1 C-3.375 -1.125 -3.375 -1.125 0 0 Z " fill="#34A0CD" transform="translate(279,141)"/>
<path d="M0 0 C0.66 0 1.32 0 2 0 C3.35384615 7.38461538 3.35384615 7.38461538 1.5625 10.5 C1.046875 10.995 0.53125 11.49 0 12 C-0.92844389 7.66726186 -0.92844389 4.33273814 0 0 Z " fill="#29ADE3" transform="translate(338,97)"/>
<path d="M0 0 C0.66 0.33 1.32 0.66 2 1 C0.625 3 0.625 3 -1 5 C-1.66 5 -2.32 5 -3 5 C-3.2475 5.61875 -3.495 6.2375 -3.75 6.875 C-5.20628639 9.35068687 -6.37812506 9.95125002 -9 11 C-7.59155282 7.78475695 -5.89655214 5.67816132 -3.375 3.25 C-2.74335938 2.63640625 -2.11171875 2.0228125 -1.4609375 1.390625 C-0.73777344 0.70226562 -0.73777344 0.70226562 0 0 Z " fill="#16B5DE" transform="translate(202,98)"/>
<path d="M0 0 C0.33 0.99 0.66 1.98 1 3 C0.01 3.33 -0.98 3.66 -2 4 C-2.99 5.485 -2.99 5.485 -4 7 C-5.32 6.34 -6.64 5.68 -8 5 C-8 4.34 -8 3.68 -8 3 C-5.36 2.01 -2.72 1.02 0 0 Z " fill="#2EADD9" transform="translate(757,166)"/>
<path d="M0 0 C0.66 0 1.32 0 2 0 C2 5.94 2 11.88 2 18 C1.34 18 0.68 18 0 18 C-0.19430855 15.3753399 -0.38073238 12.75053235 -0.5625 10.125 C-0.61857422 9.37863281 -0.67464844 8.63226563 -0.73242188 7.86328125 C-1.11328125 2.2265625 -1.11328125 2.2265625 0 0 Z " fill="#269FD0" transform="translate(241,146)"/>
<path d="M0 0 C2.1171875 0.4140625 2.1171875 0.4140625 4 1 C2.04669132 2.03041513 0.08718472 3.0490893 -1.875 4.0625 C-2.96554687 4.63097656 -4.05609375 5.19945313 -5.1796875 5.78515625 C-6.11039062 6.18605469 -7.04109375 6.58695312 -8 7 C-8.66 6.67 -9.32 6.34 -10 6 C-10 5.34 -10 4.68 -10 4 C-8.63875 3.8453125 -8.63875 3.8453125 -7.25 3.6875 C-4.00359898 3.24404377 -4.00359898 3.24404377 -1.875 1.375 C-1.25625 0.92125 -0.6375 0.4675 0 0 Z " fill="#2EAACF" transform="translate(265,92)"/>
<path d="M0 0 C3.6607519 1.22025063 3.92339441 2.126491 5.6875 5.4375 C6.34298828 6.64212891 6.34298828 6.64212891 7.01171875 7.87109375 C8 10 8 10 8 12 C7.34 12 6.68 12 6 12 C4.02 8.04 2.04 4.08 0 0 Z " fill="#2FA9D0" transform="translate(242,168)"/>
<path d="M0 0 C0 0.99 0 1.98 0 3 C-0.9590625 3.680625 -0.9590625 3.680625 -1.9375 4.375 C-4.24764553 5.8662773 -4.24764553 5.8662773 -4.75 8.6875 C-4.8325 9.450625 -4.915 10.21375 -5 11 C-7 8 -7 8 -7 6.0625 C-5.47841502 2.92423097 -2.9308084 1.74601352 0 0 Z " fill="#39A9D2" transform="translate(252,74)"/>
<path d="M0 0 C0.33 0.99 0.66 1.98 1 3 C-0.98 4.98 -2.96 6.96 -5 9 C-5.99 8.67 -6.98 8.34 -8 8 C-5.36 5.36 -2.72 2.72 0 0 Z " fill="#3599BF" transform="translate(514,74)"/>
<path d="M0 0 C0.66 0 1.32 0 2 0 C0.87548273 2.9719385 -0.22293791 5.33440687 -2 8 C-2.99 7.67 -3.98 7.34 -5 7 C-5 5.68 -5 4.36 -5 3 C-4.01 3.33 -3.02 3.66 -2 4 C-1.34 2.68 -0.68 1.36 0 0 Z " fill="#2FAAD9" transform="translate(597,231)"/>
<path d="M0 0 C0.66 0.33 1.32 0.66 2 1 C1.125 5.75 1.125 5.75 0 8 C-0.99 7.67 -1.98 7.34 -3 7 C-2.625 4.0625 -2.625 4.0625 -2 1 C-1.34 0.67 -0.68 0.34 0 0 Z " fill="#26B7E0" transform="translate(581,213)"/>
<path d="M0 0 C0.66 0 1.32 0 2 0 C1.67 1.98 1.34 3.96 1 6 C0.01 6 -0.98 6 -2 6 C-2.33 6.66 -2.66 7.32 -3 8 C-3 7.01 -3 6.02 -3 5 C-3.66 4.67 -4.32 4.34 -5 4 C-4.34 3.34 -3.68 2.68 -3 2 C-3 2.66 -3 3.32 -3 4 C-2.34 4 -1.68 4 -1 4 C-0.67 2.68 -0.34 1.36 0 0 Z " fill="#3DB5DE" transform="translate(499,102)"/>
<path d="M0 0 C0.66 0.66 1.32 1.32 2 2 C-2.5 5 -2.5 5 -7 8 C-6.4376049 4.73810844 -5.5859495 3.08865152 -3 1 C-2.01 0.67 -1.02 0.34 0 0 Z " fill="#2B9DDA" transform="translate(173,98)"/>
<path d="M0 0 C0.66 0.33 1.32 0.66 2 1 C1.01 1.33 0.02 1.66 -1 2 C-1.33 2.66 -1.66 3.32 -2 4 C-2.33 4.66 -2.66 5.32 -3 6 C-3.99 6.33 -4.98 6.66 -6 7 C-6.33 7.99 -6.66 8.98 -7 10 C-7.33 9.01 -7.66 8.02 -8 7 C-7.01 6.67 -6.02 6.34 -5 6 C-4.3162955 4.67532254 -3.65035814 3.34136367 -3 2 C-2.01 1.34 -1.02 0.68 0 0 Z " fill="#31A2CD" transform="translate(532,92)"/>
<path d="M0 0 C0 0.66 0 1.32 0 2 C-1.26839526 2.50615298 -2.53983102 3.00469099 -3.8125 3.5 C-4.87404297 3.91765625 -4.87404297 3.91765625 -5.95703125 4.34375 C-8 5 -8 5 -11 5 C-11 4.34 -11 3.68 -11 3 C-9.73160474 2.49384702 -8.46016898 1.99530901 -7.1875 1.5 C-6.12595703 1.08234375 -6.12595703 1.08234375 -5.04296875 0.65625 C-3 0 -3 0 0 0 Z " fill="#36A6D6" transform="translate(772,187)"/>
<path d="M0 0 C-4.455 2.97 -4.455 2.97 -9 6 C-9.33 5.01 -9.66 4.02 -10 3 C-3.375 -1.125 -3.375 -1.125 0 0 Z " fill="#37A5CC" transform="translate(783,182)"/>
<path d="M0 0 C0.66 0 1.32 0 2 0 C1.52269162 1.4589426 1.04308958 2.91713496 0.5625 4.375 C0.29566406 5.18710938 0.02882813 5.99921875 -0.24609375 6.8359375 C-1 9 -1 9 -2 11 C-2.66 11 -3.32 11 -4 11 C-3.71125 10.29875 -3.4225 9.5975 -3.125 8.875 C-1.97866412 5.94547497 -0.97374346 2.99078347 0 0 Z " fill="#359DD4" transform="translate(446,209)"/>
<path d="M0 0 C0.66 0.66 1.32 1.32 2 2 C-3.625 6 -3.625 6 -7 6 C-6 3 -6 3 -2.9375 1.3125 C-1.968125 0.879375 -0.99875 0.44625 0 0 Z " fill="#21B0D4" transform="translate(310,164)"/>
<path d="M0 0 C3.66881155 0.70554068 6.70450534 2.27735506 10 4 C9.67 4.66 9.34 5.32 9 6 C2.35384615 4.52307692 2.35384615 4.52307692 0.5625 1.875 C0.376875 1.25625 0.19125 0.6375 0 0 Z " fill="#2A9FD1" transform="translate(530,164)"/>
<path d="M0 0 C3.16115776 1.36983503 3.9927092 1.9890638 6 5 C4.68 5.33 3.36 5.66 2 6 C0 3 0 3 0 0 Z " fill="#29ACD8" transform="translate(210,158)"/>
<path d="M0 0 C0.66 0.33 1.32 0.66 2 1 C1.23883449 2.15227823 0.46567307 3.2966386 -0.3125 4.4375 C-0.74175781 5.07558594 -1.17101562 5.71367188 -1.61328125 6.37109375 C-3 8 -3 8 -6 9 C-4.47291037 5.56404834 -2.40072955 2.88087546 0 0 Z " fill="#2FA8D3" transform="translate(687,84)"/>
<path d="M0 0 C0.556875 0.226875 1.11375 0.45375 1.6875 0.6875 C-2.9375 3.6875 -2.9375 3.6875 -6.3125 3.6875 C-6.3125 4.3475 -6.3125 5.0075 -6.3125 5.6875 C-7.3025 6.0175 -8.2925 6.3475 -9.3125 6.6875 C-7.70234959 2.442558 -4.80443663 -0.64924819 0 0 Z " fill="#35A1CD" transform="translate(721.3125,87.3125)"/>
<path d="M0 0 C0 3.11227195 -0.45627049 5.94152152 -1 9 C-1.66 9 -2.32 9 -3 9 C-3.33 7.02 -3.66 5.04 -4 3 C-2.68 2.01 -1.36 1.02 0 0 Z " fill="#2FAFDC" transform="translate(520,70)"/>
<path d="M0 0 C4.35522853 0.50642192 7.44239635 1.38411497 11 4 C11 4.66 11 5.32 11 6 C7.2089881 4.55049545 3.6125362 2.84827434 0 1 C0 0.67 0 0.34 0 0 Z " fill="#29A1D2" transform="translate(571,69)"/>
<path d="M0 0 C7.42857143 -0.28571429 7.42857143 -0.28571429 11 2 C10.67 2.99 10.34 3.98 10 5 C5.05 3.02 5.05 3.02 0 1 C0 0.67 0 0.34 0 0 Z " fill="#24ABD3" transform="translate(430,67)"/>
<path d="M0 0 C1.32 0.33 2.64 0.66 4 1 C3.67 1.66 3.34 2.32 3 3 C3.99 3.33 4.98 3.66 6 4 C3.39417629 4.93065133 2.35801776 5.14917407 -0.25 4.0625 C-0.8275 3.711875 -1.405 3.36125 -2 3 C-1.34 2.01 -0.68 1.02 0 0 Z " fill="#33AFD8" transform="translate(716,188)"/>
<path d="M0 0 C0.33 1.32 0.66 2.64 1 4 C-0.875 4.625 -0.875 4.625 -3 5 C-3.66 4.34 -4.32 3.68 -5 3 C-4.67 2.34 -4.34 1.68 -4 1 C-1.9375 0.375 -1.9375 0.375 0 0 Z M-7 4 C-5 5 -5 5 -5 5 Z " fill="#25BDE6" transform="translate(299,169)"/>
<path d="M0 0 C0.66 0.66 1.32 1.32 2 2 C-0.64 3.98 -3.28 5.96 -6 8 C-6 5 -6 5 -4.6875 3.61328125 C-3.125 2.40885417 -1.5625 1.20442708 0 0 Z " fill="#34A8C5" transform="translate(697,74)"/>
<path d="M0 0 C2.31 0.66 4.62 1.32 7 2 C7 2.33 7 2.66 7 3 C3.7 3.66 0.4 4.32 -3 5 C-3 4.34 -3 3.68 -3 3 C-2.34 3 -1.68 3 -1 3 C-0.67 2.01 -0.34 1.02 0 0 Z " fill="#35AADA" transform="translate(560,64)"/>
<path d="M0 0 C0.99 0.33 1.98 0.66 3 1 C3 1.66 3 2.32 3 3 C2.01 3 1.02 3 0 3 C0 3.66 0 4.32 0 5 C-1.32 5 -2.64 5 -4 5 C-4 4.34 -4 3.68 -4 3 C-3.34 3 -2.68 3 -2 3 C-2 2.34 -2 1.68 -2 1 C-1.34 0.67 -0.68 0.34 0 0 Z " fill="#31B6DD" transform="translate(398,229)"/>
<path d="M0 0 C2.96404505 2.80804268 5.44499019 5.18315774 7 9 C3.26955235 7.75651745 2.20459674 6.19286425 0 3 C0 2.01 0 1.02 0 0 Z " fill="#2C9AC3" transform="translate(192,134)"/>
<path d="M0 0 C3.48331435 3.01887244 4.79157144 5.56909529 6 10 C5.34 10 4.68 10 4 10 C0 3.375 0 3.375 0 0 Z " fill="#339CC6" transform="translate(780,85)"/>
<path d="M0 0 C0 0.66 0 1.32 0 2 C-6.0546875 2.1953125 -6.0546875 2.1953125 -8 2 C-8.66 1.34 -9.32 0.68 -10 0 C-6.42355152 -1.2380014 -3.66305234 -0.74926071 0 0 Z " fill="#28A2D5" transform="translate(429,65)"/>
<path d="M0 0 C1.98 0.99 3.96 1.98 6 3 C6 3.66 6 4.32 6 5 C5.01 5.33 4.02 5.66 3 6 C3 5.34 3 4.68 3 4 C2.01 4 1.02 4 0 4 C0 2.68 0 1.36 0 0 Z " fill="#299ED5" transform="translate(391,224)"/>
<path d="M0 0 C3.99455527 0.61454696 6.74466336 2.70646737 10 5 C9.01 5.33 8.02 5.66 7 6 C5.17578125 5.0390625 5.17578125 5.0390625 3.3125 3.625 C2.68988281 3.16351563 2.06726563 2.70203125 1.42578125 2.2265625 C0.95527344 1.82179687 0.48476563 1.41703125 0 1 C0 0.67 0 0.34 0 0 Z " fill="#31A1C7" transform="translate(693,178)"/>
<path d="M0 0 C0.66 0 1.32 0 2 0 C3.2890625 1.75 3.2890625 1.75 4.625 4 C5.07101562 4.7425 5.51703125 5.485 5.9765625 6.25 C6.31429687 6.8275 6.65203125 7.405 7 8 C6.01 8.495 6.01 8.495 5 9 C4.16094435 7.87926138 3.32892169 6.75325453 2.5 5.625 C2.0359375 4.99851563 1.571875 4.37203125 1.09375 3.7265625 C0 2 0 2 0 0 Z " fill="#24ABCD" transform="translate(683,165)"/>
<path d="M0 0 C2.66666667 1.33333333 5.33333333 2.66666667 8 4 C7.67 4.66 7.34 5.32 7 6 C5.1875 5.8125 5.1875 5.8125 3 5 C1.25 2.4375 1.25 2.4375 0 0 Z " fill="#2DA3D1" transform="translate(181,160)"/>
<path d="M0 0 C-3.32307692 3.93846154 -3.32307692 3.93846154 -6.75 4.25 C-7.4925 4.1675 -8.235 4.085 -9 4 C-6.77642026 0.66463039 -4.04815944 -2.02407972 0 0 Z " fill="#3BAAE6" transform="translate(180,95)"/>
<path d="M0 0 C2.66735273 2.48952921 4.55746343 4.63408134 6 8 C2.17053157 6.54744301 0.87949705 4.57104439 -1 1 C-0.67 0.67 -0.34 0.34 0 0 Z " fill="#289AC5" transform="translate(224,173)"/>
<path d="M0 0 C1.98 1.65 3.96 3.3 6 5 C5.34 5.66 4.68 6.32 4 7 C2.35 5.02 0.7 3.04 -1 1 C-0.67 0.67 -0.34 0.34 0 0 Z " fill="#0DACD0" transform="translate(776,166)"/>
<path d="M0 0 C0.99 0.33 1.98 0.66 3 1 C1.35 2.98 -0.3 4.96 -2 7 C-2.33 6.01 -2.66 5.02 -3 4 C-1.5625 1.8125 -1.5625 1.8125 0 0 Z " fill="#35ABD0" transform="translate(222,78)"/>
<path d="" fill="#FFFFFF" transform="translate(0,0)"/>
<path d="" fill="#FFFFFF" transform="translate(0,0)"/>
<path d="" fill="#FFFFFF" transform="translate(0,0)"/>
<path d="" fill="#FFFFFF" transform="translate(0,0)"/>
<path d="" fill="#FFFFFF" transform="translate(0,0)"/>
<path d="" fill="#FFFFFF" transform="translate(0,0)"/>
<path d="" fill="#FFFFFF" transform="translate(0,0)"/>
<path d="" fill="#FFFFFF" transform="translate(0,0)"/>
<path d="" fill="#FFFFFF" transform="translate(0,0)"/>
<path d="" fill="#FFFFFF" transform="translate(0,0)"/>
<path d="" fill="#FFFFFF" transform="translate(0,0)"/>
<path d="" fill="#FFFFFF" transform="translate(0,0)"/>
<path d="" fill="#FFFFFF" transform="translate(0,0)"/>
<path d="" fill="#FFFFFF" transform="translate(0,0)"/>
<path d="" fill="#FFFFFF" transform="translate(0,0)"/>
<path d="" fill="#FFFFFF" transform="translate(0,0)"/>
<path d="" fill="#808080" transform="translate(0,0)"/>
<path d="" fill="#FFFFFF" transform="translate(0,0)"/>
<path d="" fill="#FFFFFF" transform="translate(0,0)"/>
<path d="" fill="#FFFFFF" transform="translate(0,0)"/>
<path d="" fill="#FFFFFF" transform="translate(0,0)"/>
<path d="" fill="#FFFFFF" transform="translate(0,0)"/>
<path d="" fill="#FFFFFF" transform="translate(0,0)"/>
<path d="" fill="#FFFFFF" transform="translate(0,0)"/>
<path d="" fill="#FFFFFF" transform="translate(0,0)"/>
<path d="" fill="#FFFFFF" transform="translate(0,0)"/>
<path d="" fill="#FFFFFF" transform="translate(0,0)"/>
<path d="" fill="#FFFFFF" transform="translate(0,0)"/>
<path d="" fill="#FFFFFF" transform="translate(0,0)"/>
<path d="" fill="#FFFFFF" transform="translate(0,0)"/>
<path d="" fill="#FFFFFF" transform="translate(0,0)"/>
<path d="" fill="#FFFFFF" transform="translate(0,0)"/>
<path d="" fill="#FFFFFF" transform="translate(0,0)"/>
<path d="" fill="#FFFFFF" transform="translate(0,0)"/>
<path d="" fill="#FFFFFF" transform="translate(0,0)"/>
<path d="" fill="#FFFFFF" transform="translate(0,0)"/>
<path d="" fill="#FFFFFF" transform="translate(0,0)"/>
<path d="" fill="#FFFFFF" transform="translate(0,0)"/>
<path d="" fill="#FFFFFF" transform="translate(0,0)"/>
<path d="" fill="#FFFFFF" transform="translate(0,0)"/>
<path d="" fill="#FFFFFF" transform="translate(0,0)"/>
<path d="" fill="#FFFFFF" transform="translate(0,0)"/>
<path d="" fill="#FFFFFF" transform="translate(0,0)"/>
<path d="" fill="#FFFFFF" transform="translate(0,0)"/>
<path d="" fill="#FFFFFF" transform="translate(0,0)"/>
<path d="" fill="#FFFFFF" transform="translate(0,0)"/>
<path d="" fill="#FFFFFF" transform="translate(0,0)"/>
<path d="" fill="#FFFFFF" transform="translate(0,0)"/>
<path d="" fill="#FFFFFF" transform="translate(0,0)"/>
<path d="" fill="#FFFFFF" transform="translate(0,0)"/>
<path d="" fill="#FFFFFF" transform="translate(0,0)"/>
<path d="" fill="#FFFFFF" transform="translate(0,0)"/>
<path d="" fill="#FFFFFF" transform="translate(0,0)"/>
<path d="" fill="#FFFFFF" transform="translate(0,0)"/>
<path d="" fill="#FFFFFF" transform="translate(0,0)"/>
<path d="" fill="#FFFFFF" transform="translate(0,0)"/>
<path d="" fill="#FFFFFF" transform="translate(0,0)"/>
<path d="" fill="#FFFFFF" transform="translate(0,0)"/>
<path d="" fill="#FFFFFF" transform="translate(0,0)"/>
<path d="" fill="#FFFFFF" transform="translate(0,0)"/>
<path d="" fill="#FFFFFF" transform="translate(0,0)"/>
<path d="" fill="#FFFFFF" transform="translate(0,0)"/>
<path d="" fill="#FFFFFF" transform="translate(0,0)"/>
<path d="" fill="#FFFFFF" transform="translate(0,0)"/>
</svg>
