<?xml version="1.0" encoding="UTF-8"?>
<svg version="1.1" xmlns="http://www.w3.org/2000/svg" width="1077" height="263">
<path d="M0 0 C355.41 0 710.82 0 1077 0 C1077 86.79 1077 173.58 1077 263 C721.59 263 366.18 263 0 263 C0 176.21 0 89.42 0 0 Z " fill="#FDFDFD" transform="translate(0,0)"/>
<path d="M0 0 C0.8919809 -0.00511093 1.78396179 -0.01022186 2.70297241 -0.01548767 C5.65434489 -0.02938945 8.60548339 -0.02842375 11.55688477 -0.02612305 C13.62695908 -0.03001506 15.6970326 -0.03435076 17.7671051 -0.03910828 C22.11738664 -0.04657571 26.46758708 -0.04627934 30.81787109 -0.04101562 C36.32990553 -0.03527812 41.84159764 -0.05200928 47.35357571 -0.0753603 C51.63936735 -0.09028248 55.92508059 -0.09094362 60.21089363 -0.08785057 C62.23858368 -0.0883565 64.266279 -0.09345347 66.29394341 -0.10366249 C76.92161315 -0.15052717 87.32980801 0.20841699 97.87353516 1.62158203 C99.1934088 1.79838643 99.1934088 1.79838643 100.53994656 1.97876263 C112.35903885 3.72544774 124.06044942 7.23071089 134.01782227 13.9777832 C136.28163461 15.41484955 138.56661858 16.30248875 141.06079102 17.2746582 C144.37329102 19.2746582 144.37329102 19.2746582 147.06079102 21.2746582 C147.06079102 21.9346582 147.06079102 22.5946582 147.06079102 23.2746582 C148.38079102 23.6046582 149.70079102 23.9346582 151.06079102 24.2746582 C151.06079102 24.9346582 151.06079102 25.5946582 151.06079102 26.2746582 C151.74657227 26.47317383 152.43235352 26.67168945 153.13891602 26.8762207 C157.12070353 28.78194253 159.74485678 31.52171631 162.81079102 34.6496582 C163.39989258 35.2271582 163.98899414 35.8046582 164.59594727 36.3996582 C165.15668945 36.96426758 165.71743164 37.52887695 166.29516602 38.1105957 C166.80273438 38.62154785 167.31030273 39.1325 167.83325195 39.65893555 C169.23485264 41.50376319 169.6502662 43.01309536 170.06079102 45.2746582 C170.72079102 45.2746582 171.38079102 45.2746582 172.06079102 45.2746582 C172.06079102 45.9346582 172.06079102 46.5946582 172.06079102 47.2746582 C172.65891602 47.4809082 173.25704102 47.6871582 173.87329102 47.8996582 C176.89913372 49.80161647 177.70787603 52.02766225 179.06079102 55.2746582 C179.06079102 55.9346582 179.06079102 56.5946582 179.06079102 57.2746582 C179.72079102 57.2746582 180.38079102 57.2746582 181.06079102 57.2746582 C181.73198651 58.7309127 182.39760909 60.18973687 183.06079102 61.6496582 C183.43204102 62.46176758 183.80329102 63.27387695 184.18579102 64.1105957 C185.06079102 66.2746582 185.06079102 66.2746582 185.06079102 68.2746582 C185.72079102 68.2746582 186.38079102 68.2746582 187.06079102 68.2746582 C188.44003219 71.59070613 189.75610822 74.92863497 191.06079102 78.2746582 C191.41915039 79.14348633 191.77750977 80.01231445 192.14672852 80.9074707 C202.33166364 107.78651002 199.15275703 142.21553533 187.68579102 168.0246582 C184.45224299 174.95016274 180.87291502 181.30849541 176.06079102 187.2746582 C175.17520508 188.45801758 175.17520508 188.45801758 174.27172852 189.6652832 C165.39822551 201.2775217 155.36561928 210.45141079 143.06079102 218.2746582 C142.23063477 218.82766602 141.40047852 219.38067383 140.54516602 219.95043945 C118.65804297 233.97414246 93.5372943 236.75327368 68.21313477 236.70825195 C65.94348496 236.71282285 63.67383653 236.7181311 61.40419006 236.72413635 C56.68004681 236.7330109 51.95607318 236.73070458 47.23193359 236.72070312 C41.1861753 236.70914825 35.14099547 236.72955333 29.09531307 236.75862026 C24.42239188 236.77696778 19.74961023 236.77669389 15.07666206 236.77098274 C12.8467788 236.77082974 10.61688597 236.77685671 8.38703728 236.78927422 C5.27653307 236.80417589 2.16711125 236.79351705 -0.94335938 236.77636719 C-1.85618179 236.78603516 -2.76900421 236.79570312 -3.70948792 236.80566406 C-10.49538308 236.72744476 -14.74287236 235.17275652 -19.86499023 230.52856445 C-20.32260742 229.97040039 -20.78022461 229.41223633 -21.25170898 228.8371582 C-21.7222168 228.28157227 -22.19272461 227.72598633 -22.67749023 227.15356445 C-25.53356323 222.90040312 -26.18726379 219.17989463 -26.16625977 214.10742188 C-26.1661087 212.88653366 -26.16595764 211.66564545 -26.165802 210.40776062 C-26.15547943 209.09926651 -26.14515686 207.7907724 -26.13452148 206.44262695 C-26.1307882 205.08214018 -26.12794272 203.72165071 -26.12594604 202.36116028 C-26.11833436 198.79204803 -26.09870732 195.22310029 -26.07653809 191.65405273 C-26.05602633 188.00742823 -26.04693296 184.36077698 -26.03686523 180.71411133 C-26.01545889 173.56755993 -25.98135296 166.42111985 -25.93920898 159.2746582 C-18.18535841 159.18193746 -10.43163793 159.11088312 -2.67737198 159.06740952 C0.92337387 159.04654308 4.52374017 159.018244 8.12426758 158.97290039 C11.59967015 158.92940695 15.07470789 158.90551399 18.55036163 158.89514923 C20.52024885 158.88417205 22.48998949 158.8529512 24.45965576 158.82147217 C26.26107025 158.82101898 26.26107025 158.82101898 28.09887695 158.82055664 C29.15588806 158.81167419 30.21289917 158.80279175 31.30194092 158.79364014 C34.74022229 159.39312014 35.78407692 160.71876491 38.06079102 163.2746582 C40.53903357 163.82864314 40.53903357 163.82864314 43.12329102 163.6496582 C43.98051758 163.63676758 44.83774414 163.62387695 45.72094727 163.6105957 C48.32781176 163.40779425 48.32781176 163.40779425 51.06079102 161.2746582 C54.07046652 161.06858465 56.9951934 160.97361741 60.00610352 160.96606445 C61.8238148 160.94088602 63.64152306 160.91548829 65.45922852 160.88989258 C68.31599001 160.86126624 71.17269842 160.83724475 74.02954102 160.81835938 C76.79285235 160.79653113 79.55551934 160.75706074 82.31860352 160.71606445 C83.15956573 160.71594864 84.00052795 160.71583282 84.86697388 160.7157135 C96.50621326 160.52415828 107.80475344 155.51505243 116.37329102 147.6496582 C125.54753799 137.83490939 128.70182463 125.39004585 128.37329102 112.28637695 C127.83639823 102.79008584 123.23545838 93.26923273 116.37719727 86.6496582 C115.06079102 85.2746582 115.06079102 85.2746582 115.06079102 83.2746582 C114.49875977 83.0065332 113.93672852 82.7384082 113.35766602 82.4621582 C110.06611962 80.76040632 107.00101767 78.71996572 103.88891602 76.7121582 C97.60148505 73.51633694 91.37361124 72.98027021 84.45751953 73.03173828 C83.63865768 73.02983994 82.81979584 73.02794159 81.97612 73.02598572 C79.29721186 73.02231129 76.61858086 73.03292907 73.93969727 73.04418945 C72.07022636 73.04538261 70.20075484 73.04583413 68.33128357 73.045578 C64.42866217 73.04713676 60.5261333 73.05538419 56.62353516 73.06884766 C51.61071343 73.08591928 46.5979924 73.08965933 41.585145 73.08890247 C37.7325697 73.0891736 33.88001659 73.0946442 30.02744865 73.10190392 C28.17778631 73.1050934 26.32812145 73.10705864 24.4784565 73.10779762 C21.90502703 73.10995356 19.33170694 73.11867903 16.75830078 73.12939453 C15.98900238 73.12894135 15.21970398 73.12848816 14.42709351 73.12802124 C10.95287423 72.83414684 10.95287423 72.83414684 8.06079102 74.2746582 C5.53985025 74.36313563 3.04648209 74.38993122 0.52563477 74.37231445 C-0.6042411 74.37019203 -0.6042411 74.37019203 -1.75694275 74.36802673 C-4.17190458 74.36241196 -6.58677499 74.34985703 -9.00170898 74.3371582 C-10.63517119 74.3321451 -12.26863484 74.32758187 -13.90209961 74.32348633 C-17.91450483 74.31243774 -21.92684139 74.29516327 -25.93920898 74.2746582 C-26.03224601 66.98106199 -26.10314341 59.68759554 -26.14645767 52.39352417 C-26.1672557 49.00586862 -26.19542785 45.61862164 -26.2409668 42.23120117 C-26.28965591 38.32891174 -26.31221827 34.42719668 -26.32983398 30.5246582 C-26.35047913 29.31914307 -26.37112427 28.11362793 -26.39239502 26.87158203 C-26.39453899 18.77764928 -25.45901119 13.29129134 -19.97436523 7.0324707 C-19.32338867 6.49364258 -18.67241211 5.95481445 -18.00170898 5.3996582 C-17.35331055 4.84536133 -16.70491211 4.29106445 -16.03686523 3.7199707 C-10.80892997 0.11785516 -6.14333161 -0.01821003 0 0 Z " fill="#4556B4" transform="translate(33.939208984375,19.725341796875)"/>
<path d="M0 0 C6.65279844 -0.05101786 13.30554577 -0.0858662 19.95849609 -0.10986328 C22.2182809 -0.11987519 24.4780529 -0.13348872 26.73779297 -0.15087891 C29.99970678 -0.17533966 33.26144819 -0.18653153 36.5234375 -0.1953125 C38.02093033 -0.21079636 38.02093033 -0.21079636 39.54867554 -0.22659302 C55.86949813 -0.22916056 71.37257821 4.8604085 83.625 15.875 C93.97659623 26.72303157 98.38244215 40.94955128 98.3737793 55.63134766 C97.96504809 70.58569209 92.9909948 84.66786383 82.65625 95.60546875 C69.30951923 107.63715399 53.41687059 111.36349347 35.8984375 111.23046875 C34.39381454 111.22978142 34.39381454 111.22978142 32.85879517 111.2290802 C30.76311034 111.22608517 28.66742719 111.21828272 26.57177734 111.20581055 C23.34855385 111.18734852 20.12561504 111.18530265 16.90234375 111.18554688 C14.85937249 111.18063834 12.81640319 111.17481294 10.7734375 111.16796875 C9.32365005 111.16629951 9.32365005 111.16629951 7.84457397 111.16459656 C6.5165123 111.15502678 6.5165123 111.15502678 5.16162109 111.14526367 C3.9889418 111.13954597 3.9889418 111.13954597 2.79257202 111.13371277 C1 111 1 111 0 110 C-0.09554399 108.57053529 -0.12188438 107.13637335 -0.12025452 105.70372009 C-0.12162918 104.77678848 -0.12300385 103.84985687 -0.12442017 102.89483643 C-0.12082489 101.86985046 -0.11722961 100.8448645 -0.11352539 99.78881836 C-0.11367142 98.71577957 -0.11381744 97.64274078 -0.1139679 96.53718567 C-0.11326824 92.97138484 -0.10547338 89.40563551 -0.09765625 85.83984375 C-0.09579226 83.37504607 -0.09436827 80.91024801 -0.09336853 78.44544983 C-0.08954187 71.94346095 -0.07971032 65.44149425 -0.06866455 58.93951416 C-0.05791748 52.31059183 -0.05387159 45.68166307 -0.04882812 39.05273438 C-0.03808819 26.03514676 -0.02120097 13.01757456 0 0 Z " fill="#1585BE" transform="translate(284,79)"/>
<path d="M0 0 C5.10869811 -0.02290896 10.21721926 -0.04283601 15.32592773 -0.05493164 C17.06519168 -0.05997204 18.80445136 -0.0668043 20.54370117 -0.07543945 C23.03825937 -0.08751792 25.53276173 -0.09323108 28.02734375 -0.09765625 C28.80963852 -0.10281754 29.59193329 -0.10797882 30.39793396 -0.11329651 C32.26567114 -0.11349226 34.13329204 -0.06199694 36 0 C36.495 0.495 36.495 0.495 37 1 C39.43144044 1.09313152 41.83514127 1.12240921 44.2668457 1.11010742 C45.84548443 1.11065048 47.42412314 1.11123752 49.00276184 1.11186218 C49.84487528 1.11043402 50.68698872 1.10900585 51.55462074 1.10753441 C56.01629298 1.1040183 60.47783865 1.12983572 64.93945312 1.15039062 C70.6163982 1.17464621 76.29298131 1.19052717 81.9699707 1.17504883 C86.55561179 1.16331323 91.14035047 1.18099091 95.72585106 1.21749306 C97.46592458 1.22605391 99.20608566 1.22411235 100.94613075 1.210989 C113.03366375 1.12673574 122.17442658 2.36148283 131.875 10.375 C132.57625 11.24125 133.2775 12.1075 134 13 C134.51175781 13.63164063 135.02351562 14.26328125 135.55078125 14.9140625 C142.1191001 23.28514189 142.8491181 30.55262283 142 41 C139.92533215 50.29252428 133.83116402 57.75684078 125.90127563 62.88726807 C119.48433694 66.64281643 113.81133155 67.43664651 106.5390625 67.328125 C105.66728363 67.32625183 104.79550476 67.32437866 103.89730835 67.32244873 C102.07033413 67.3157701 100.24337318 67.30194008 98.41650391 67.28125 C95.61217043 67.24985638 92.80839877 67.24024931 90.00390625 67.234375 C88.22395143 67.22521328 86.44400234 67.21484017 84.6640625 67.203125 C83.82453033 67.19887512 82.98499817 67.19462524 82.12002563 67.19024658 C76.23454368 67.11727184 76.23454368 67.11727184 74 66 C72.17065435 65.85320066 70.33499757 65.77897365 68.5 65.75 C67.5203125 65.72421875 66.540625 65.6984375 65.53125 65.671875 C64.6959375 65.78015625 63.860625 65.8884375 63 66 C62.34 66.99 61.68 67.98 61 69 C58.44369507 69.36076355 58.44369507 69.36076355 55.17333984 69.34057617 C53.95222504 69.34034958 52.73111023 69.34012299 51.47299194 69.33988953 C50.13563677 69.32456852 48.7982853 69.30892051 47.4609375 69.29296875 C46.09616562 69.28737422 44.73138772 69.28310344 43.36660767 69.28010559 C39.77269893 69.2686454 36.17915333 69.23916871 32.58538818 69.20599365 C28.9189555 69.17531771 25.25246246 69.16144133 21.5859375 69.14648438 C14.39030418 69.1158907 7.19566832 69.0571757 0 69 C0 59.43 0 49.86 0 40 C16.10145868 39.87967357 16.10145868 39.87967357 22.95898438 39.85351562 C27.64032171 39.8355742 32.3214832 39.81433785 37.00268555 39.77368164 C40.77632259 39.74111231 44.5497711 39.7231522 48.32353783 39.71536827 C49.76408036 39.70982035 51.20461246 39.69898664 52.64507484 39.68280983 C54.6608234 39.66107041 56.67676121 39.6597749 58.69262695 39.65942383 C59.84068314 39.65276199 60.98873932 39.64610016 62.17158508 39.63923645 C65.35893639 40.04578224 65.98659858 40.63499122 68 43 C70.91440699 43.66721536 70.91440699 43.66721536 74 43 C77.35694984 40.51877621 78.78441871 39.05634831 79.625 34.9375 C79.21257308 31.86159009 79.21257308 31.86159009 76.9375 29.5625 C73.13324885 27.53896216 71.10772726 27.91493997 67 29 C66.34 29.66 65.68 30.32 65 31 C62.2918396 31.24050903 62.2918396 31.24050903 58.80615234 31.22705078 C57.50495453 31.22689972 56.20375671 31.22674866 54.86312866 31.22659302 C53.43739673 31.21637893 52.01166635 31.20594692 50.5859375 31.1953125 C49.13148187 31.19158295 47.67702373 31.1887357 46.2225647 31.18673706 C42.39201944 31.179096 38.56162554 31.15944357 34.73114014 31.1373291 C30.13648608 31.11328641 25.54178146 31.10409193 20.94708252 31.09242249 C13.96461637 31.07301931 6.9824824 31.03470035 0 31 C0 20.77 0 10.54 0 0 Z " fill="#5034A1" transform="translate(8,102)"/>
<path d="M0 0 C6.93 0 13.86 0 21 0 C21.33 14.52 21.66 29.04 22 44 C24.31 42.02 26.62 40.04 29 38 C37.28898646 33.28665476 46.3521104 32.69536366 55.70703125 34.53125 C65.4820262 37.59530293 72.14515467 44.01802315 77.62109375 52.515625 C83.44255134 64.0595919 82.60100138 79.78836445 79 92 C75.79216118 100.08796083 71.04624931 105.94998996 64 111 C63.36964844 111.45503906 62.73929688 111.91007812 62.08984375 112.37890625 C54.57588179 116.66619667 44.34337202 116.0731749 36 115 C29.75878746 113.18491554 25.19621487 109.89558402 21 105 C20.7834375 106.9490625 20.7834375 106.9490625 20.5625 108.9375 C20.125 112.875 20.125 112.875 19 114 C12.73 114 6.46 114 0 114 C0 76.38 0 38.76 0 0 Z " fill="#3944A4" transform="translate(835,76)"/>
<path d="M0 0 C9.63803795 5.41565942 15.83733126 14.04533843 19.4609375 24.3828125 C22.36952734 38.00627203 21.0620384 51.26483726 13.7109375 63.1953125 C8.3017174 70.66003624 1.63577142 76.43488922 -7.5390625 78.3828125 C-10.58276243 78.70994582 -13.6040807 78.83315572 -16.6640625 78.8828125 C-17.41606934 78.90142334 -18.16807617 78.92003418 -18.94287109 78.93920898 C-28.43778093 78.83209226 -34.99854511 73.92332989 -41.5390625 67.3828125 C-41.5390625 81.2428125 -41.5390625 95.1028125 -41.5390625 109.3828125 C-47.8090625 109.3828125 -54.0790625 109.3828125 -60.5390625 109.3828125 C-60.5390625 73.0828125 -60.5390625 36.7828125 -60.5390625 -0.6171875 C-54.2690625 -0.6171875 -47.9990625 -0.6171875 -41.5390625 -0.6171875 C-41.5390625 2.6828125 -41.5390625 5.9828125 -41.5390625 9.3828125 C-40.8790625 9.3828125 -40.2190625 9.3828125 -39.5390625 9.3828125 C-39.28769531 8.78726563 -39.03632812 8.19171875 -38.77734375 7.578125 C-37.37732366 5.09607046 -36.01717353 3.9308783 -33.7265625 2.2578125 C-33.06011719 1.76023437 -32.39367187 1.26265625 -31.70703125 0.75 C-22.71776797 -4.91890477 -9.5537381 -4.1026563 0 0 Z " fill="#2055A7" transform="translate(621.5390625,112.6171875)"/>
<path d="M0 0 C0.66 0.33 1.32 0.66 2 1 C3.7528992 1.10423279 5.50966878 1.14597571 7.265625 1.15771484 C8.92005615 1.17310806 8.92005615 1.17310806 10.60791016 1.18881226 C12.41074463 1.19976425 12.41074463 1.19976425 14.25 1.2109375 C16.80469341 1.23905089 19.35938081 1.26771553 21.9140625 1.296875 C25.93324716 1.338927 29.95235821 1.37468372 33.97167969 1.40136719 C61.68685661 1.60125282 89.46916791 3.26340392 111 23 C111.95390625 23.86238281 112.9078125 24.72476563 113.890625 25.61328125 C126.59406736 37.48496255 135.24625692 52.24305565 140 69 C140.20625 69.68578125 140.4125 70.3715625 140.625 71.078125 C145.97834967 92.34281954 140.61057214 113.47618339 130 132 C129.51660156 132.85078125 129.03320312 133.7015625 128.53515625 134.578125 C122.07682148 144.98633988 113.34813031 153.55745436 103 160 C102.30390625 160.49757812 101.6078125 160.99515625 100.890625 161.5078125 C95.14940442 165.3963697 88.9614021 167.60404378 82.4375 169.8125 C81.5508667 170.11478516 80.6642334 170.41707031 79.75073242 170.72851562 C78.88295166 171.01017578 78.0151709 171.29183594 77.12109375 171.58203125 C76.3520874 171.83186768 75.58308105 172.0817041 74.79077148 172.33911133 C66.49276557 174.30418018 58.02440584 174.16913259 49.54680252 174.22979546 C47.31045079 174.24639898 45.07425428 174.26963368 42.83798218 174.29469299 C36.48695745 174.36499731 30.13587739 174.42584568 23.78466797 174.47680664 C19.88384833 174.50856606 15.98322348 174.54980757 12.08256149 174.59700203 C10.60021823 174.6130093 9.11783047 174.62533678 7.63542557 174.63390923 C5.57006147 174.6460428 3.5051591 174.67017551 1.43994141 174.69702148 C-0.32136612 174.71248268 -0.32136612 174.71248268 -2.11825562 174.72825623 C-5.19687225 174.78881673 -5.19687225 174.78881673 -8 177 C-11.8973724 177.50835292 -13.50556726 177.32962183 -16.8125 175.125 C-19.39266816 172.61855093 -19.91717964 171.74538327 -20.3125 168.1875 C-19.91645896 164.14788144 -19.01158942 162.70270845 -16 160 C-10.08783459 158.41638427 -10.08783459 158.41638427 -7.1771698 159.97793579 C-4.2548256 161.34981933 -1.88892201 161.26878065 1.3347168 161.29052734 C2.6209343 161.30328705 3.90715179 161.31604675 5.23234558 161.32919312 C6.63796843 161.33225442 8.04359332 161.33448022 9.44921875 161.3359375 C10.90493396 161.34237435 12.3606479 161.34910336 13.81636047 161.35610962 C16.87540673 161.36808989 19.93434014 161.3717906 22.9934082 161.37060547 C26.09976777 161.37044404 29.20553066 161.38414392 32.31176758 161.41162109 C60.72577184 162.09526873 60.72577184 162.09526873 87.375 153.25 C88.02944092 152.90348389 88.68388184 152.55696777 89.3581543 152.19995117 C104.97515616 143.73123952 116.06309956 132.43950379 123 116 C123.31453125 115.29359375 123.6290625 114.5871875 123.953125 113.859375 C130.17460871 98.85462017 130.1564921 79.11964084 124.23388672 64.05078125 C118.21691712 49.96691806 109.72857348 37.76096434 97 29 C96.2678125 28.47019531 95.535625 27.94039062 94.78125 27.39453125 C84.41535559 20.48985158 70.26583276 15.89878925 57.80444336 15.85473633 C55.96244606 15.84516655 55.96244606 15.84516655 54.08323669 15.83540344 C52.76541702 15.83429062 51.44759735 15.8331778 50.08984375 15.83203125 C48.71651678 15.82881556 47.34319015 15.82545125 45.96986389 15.82194519 C43.09765834 15.81597081 40.22548281 15.81410368 37.35327148 15.81469727 C33.67571947 15.81479909 29.99835963 15.80111809 26.32085323 15.78392506 C23.4872601 15.77280316 20.65371351 15.77077807 17.82010078 15.77130699 C15.80599158 15.76955615 13.79189689 15.75872205 11.77781677 15.74775696 C10.55297073 15.75083359 9.32812469 15.75391022 8.06616211 15.75708008 C6.98870224 15.75565506 5.91124237 15.75423004 4.8011322 15.75276184 C1.98318905 16.0014838 0.43756922 16.65157486 -2 18 C-5.57395971 17.90836001 -6.96238087 17.02925933 -9.8125 14.8125 C-12 12 -12 12 -12.5625 9 C-11.87642343 5.34092496 -10.57265686 3.64832324 -8 1 C-5.26094655 -0.36952673 -3.02912668 -0.12621361 0 0 Z " fill="#F8F8FC" transform="translate(61,48)"/>
<path d="M0 0 C6.6 0 13.2 0 20 0 C20.33 14.52 20.66 29.04 21 44 C23.64 41.69 26.28 39.38 29 37 C33.95499633 34.3017893 38.29350638 33.47713756 43.875 33.5625 C44.57753906 33.57079834 45.28007813 33.57909668 46.00390625 33.58764648 C54.81045271 33.87353368 60.81613575 37.0185868 67.20703125 42.9375 C72.8909071 49.4758147 75.13349728 56.99665943 75.11352539 65.5246582 C75.11341209 67.14577263 75.11341209 67.14577263 75.11329651 68.79963684 C75.10813522 69.9550145 75.10297394 71.11039215 75.09765625 72.30078125 C75.0962413 73.49229294 75.09482635 74.68380463 75.09336853 75.91142273 C75.08777728 79.71180751 75.07522632 83.51213307 75.0625 87.3125 C75.05748387 89.89127519 75.05292116 92.4700513 75.04882812 95.04882812 C75.0378107 101.36590818 75.02055201 107.68294406 75 114 C68.07 114 61.14 114 54 114 C53.98598145 111.68427979 53.98598145 111.68427979 53.97167969 109.32177734 C53.9317592 103.58515745 53.86599337 97.84907266 53.79248047 92.11279297 C53.76428304 89.63174319 53.74306245 87.15060378 53.72900391 84.66943359 C53.70755838 81.09946853 53.66089658 77.53057972 53.609375 73.9609375 C53.60814636 72.85446869 53.60691772 71.74799988 53.60565186 70.60800171 C53.48861864 64.43172022 53.14609077 60.69082566 49 56 C45.37883852 52.64380155 42.44858812 51.6685517 37.625 51.375 C32.61556178 51.57974543 29.60251967 52.8963833 25.65625 55.90625 C20.66608981 62.21456571 20.5488577 69.34048809 20.5234375 77.02734375 C20.50006821 78.57162804 20.50006821 78.57162804 20.47622681 80.14710999 C20.42897457 83.41056656 20.40101125 86.67381102 20.375 89.9375 C20.33852737 93.22603575 20.29800303 96.51445064 20.25234985 99.8028717 C20.2250802 101.84384556 20.20374772 103.88490875 20.18881226 105.92601013 C20.17341904 107.29862755 20.17341904 107.29862755 20.15771484 108.69897461 C20.15121918 109.50757431 20.14472351 110.31617401 20.13803101 111.14927673 C20 113 20 113 19 114 C12.73 114 6.46 114 0 114 C0 76.38 0 38.76 0 0 Z " fill="#235DAC" transform="translate(655,76)"/>
<path d="M0 0 C7.3181022 5.95659481 10.83780399 12.13552445 13.6875 21.1875 C13.6875 27.4575 13.6875 33.7275 13.6875 40.1875 C-4.4625 40.1875 -22.6125 40.1875 -41.3125 40.1875 C-39.32520697 48.90447378 -39.32520697 48.90447378 -34.3125 54.25 C-33.2915625 55.07177734 -33.2915625 55.07177734 -32.25 55.91015625 C-26.53312195 59.67914641 -18.87490246 58.67336395 -12.3125 58.1875 C-7.48786704 57.00515673 -2.87656384 55.75156384 0.6875 52.1875 C1.6775 52.1875 2.6675 52.1875 3.6875 52.1875 C5.546875 54.70703125 5.546875 54.70703125 7.4375 58 C8.07171875 59.07894531 8.7059375 60.15789062 9.359375 61.26953125 C10.6875 64.1875 10.6875 64.1875 9.6875 67.1875 C7.5 68.72265625 7.5 68.72265625 4.6875 70.25 C3.78 70.75660156 2.8725 71.26320313 1.9375 71.78515625 C-5.61641787 75.04459918 -13.09831069 75.55118607 -21.25 75.5625 C-22.17490234 75.58699219 -23.09980469 75.61148438 -24.05273438 75.63671875 C-34.38624086 75.68016727 -42.22688367 72.08562844 -50.05078125 65.453125 C-58.54535346 56.94388168 -61.56390216 46.3999877 -61.6875 34.6875 C-61.5703859 22.33532737 -58.06544647 13.04388939 -49.5625 4 C-35.76713893 -9.24771914 -16.07676687 -8.7967215 0 0 Z " fill="#1B6BB2" transform="translate(451.3125,115.8125)"/>
<path d="M0 0 C1.25683594 -0.01417969 2.51367188 -0.02835937 3.80859375 -0.04296875 C12.59923441 0.49672719 20.97476586 3.97833948 26.9375 10.5625 C33.18333511 17.97714636 32.97000554 25.49815045 32.85546875 34.77734375 C32.85122391 36.07700577 32.84697906 37.37666779 32.84260559 38.7157135 C32.83121949 42.15009259 32.8018075 45.58408351 32.76849365 49.01831055 C32.73765708 52.53103384 32.72407141 56.04382063 32.70898438 59.55664062 C32.67693056 66.43376808 32.62421477 73.31057536 32.5625 80.1875 C26.6225 80.1875 20.6825 80.1875 14.5625 80.1875 C14.0675 75.7325 14.0675 75.7325 13.5625 71.1875 C13.11261719 71.65800781 12.66273438 72.12851563 12.19921875 72.61328125 C5.00677592 79.57510467 -2.2099387 81.25710973 -12.0625 81.625 C-19.00956411 81.41922203 -24.2140969 80.08982193 -29.4375 75.38671875 C-35.04813899 69.36697066 -37.74061925 64.10430034 -37.5 55.75 C-36.80875624 49.40510993 -35.14885879 45.49643023 -30.4375 41.1875 C-19.75891156 32.66369815 -9.07500751 31.99910118 4.125 32.125 C5.03830078 32.12951172 5.95160156 32.13402344 6.89257812 32.13867188 C9.11595738 32.1503126 11.33919121 32.16666149 13.5625 32.1875 C13.29238019 30.74786703 13.00843383 29.31082419 12.71875 27.875 C12.56212891 27.07449219 12.40550781 26.27398437 12.24414062 25.44921875 C11.22868752 22.07989298 9.2602578 20.34570624 6.5625 18.1875 C0.60948396 15.21099198 -8.7966816 16.71292034 -15 18.5 C-18.43073214 19.68301108 -21.39504496 21.19088888 -24.4375 23.1875 C-25.0975 23.1875 -25.7575 23.1875 -26.4375 23.1875 C-27.4451952 21.4210343 -28.44341714 19.64916177 -29.4375 17.875 C-29.994375 16.88886719 -30.55125 15.90273437 -31.125 14.88671875 C-32.4375 12.1875 -32.4375 12.1875 -32.4375 9.1875 C-22.17712221 2.91726913 -12.04946498 0.06166563 0 0 Z " fill="#6F3AA5" transform="translate(996.4375,109.8125)"/>
<path d="M0 0 C5.58681574 5.5255568 8.02061991 11.40003851 10.78125 18.76171875 C10.78125 25.03171875 10.78125 31.30171875 10.78125 37.76171875 C-7.36875 37.76171875 -25.51875 37.76171875 -44.21875 37.76171875 C-41.3068679 47.51026897 -41.3068679 47.51026897 -35.21875 53.76171875 C-26.43261839 57.25142173 -17.22327144 56.54224919 -8.33984375 53.7109375 C-6.11468609 52.82128278 -6.11468609 52.82128278 -4.12890625 51.09375 C-3.49855469 50.65417969 -2.86820313 50.21460938 -2.21875 49.76171875 C1.52717831 51.01036152 2.02597985 52.24994809 4.03125 55.57421875 C4.57265625 56.44691406 5.1140625 57.31960937 5.671875 58.21875 C6.78125 60.76171875 6.78125 60.76171875 6.59375 62.9609375 C4.81830819 66.89593114 0.95552471 68.23662194 -2.76953125 69.90234375 C-14.79815968 74.33312257 -31.05500463 75.46598765 -42.93359375 70.08203125 C-53.62117485 63.90698439 -59.90017292 55.97579074 -63.53125 44.14453125 C-66.20887255 30.96941118 -64.53913419 18.07503977 -57.21875 6.76171875 C-52.43916042 -0.26708946 -45.39228987 -4.61130808 -37.53125 -7.67578125 C-24.24045574 -10.10969213 -10.72345751 -8.72379638 0 0 Z " fill="#1F63AE" transform="translate(537.21875,118.23828125)"/>
<path d="M0 0 C6.6 0 13.2 0 20 0 C20 26.07 20 52.14 20 79 C13.73 79 7.46 79 1 79 C0.67 75.7 0.34 72.4 0 69 C-0.56847656 69.54269531 -1.13695312 70.08539063 -1.72265625 70.64453125 C-2.49480469 71.35996094 -3.26695312 72.07539063 -4.0625 72.8125 C-4.81660156 73.52019531 -5.57070313 74.22789062 -6.34765625 74.95703125 C-12.27508955 79.52263893 -17.70472087 80.50463972 -24.9375 80.4375 C-25.69740234 80.45748047 -26.45730469 80.47746094 -27.24023438 80.49804688 C-34.1466866 80.49214897 -39.15766649 78.39378491 -44.42578125 73.95703125 C-45.04839844 73.24933594 -45.67101562 72.54164063 -46.3125 71.8125 C-46.94800781 71.11769531 -47.58351563 70.42289062 -48.23828125 69.70703125 C-53.34889839 61.85413175 -53.41076091 53.7839367 -53.29296875 44.65234375 C-53.28872391 43.39990372 -53.28447906 42.14746368 -53.28010559 40.85707092 C-53.26623684 37.5575067 -53.2393727 34.25839767 -53.20599365 30.95898438 C-53.17508207 27.58013424 -53.16155563 24.20121697 -53.14648438 20.82226562 C-53.11352886 14.21464551 -53.06180482 7.6074107 -53 1 C-46.73 1 -40.46 1 -34 1 C-33.9906543 2.36616455 -33.98130859 3.7323291 -33.97167969 5.13989258 C-33.93153534 10.25235522 -33.8657098 15.36423148 -33.79248047 20.47631836 C-33.76441191 22.68066829 -33.74312784 24.88511623 -33.72900391 27.08959961 C-33.70737809 30.27508211 -33.66062796 33.45940354 -33.609375 36.64453125 C-33.60814636 37.61582474 -33.60691772 38.58711823 -33.60565186 39.58784485 C-33.46037837 46.51419219 -32.22663703 52.80210005 -29 59 C-25.91072382 61.05951746 -24.60192391 61.53018384 -21 62 C-19.98873047 62.13341797 -19.98873047 62.13341797 -18.95703125 62.26953125 C-13.35968818 62.68379244 -10.19645324 61.40478017 -5.7265625 58.09375 C-0.55973445 51.82809426 -0.53726791 44.45130716 -0.48828125 36.71875 C-0.47033005 35.66465942 -0.45237885 34.61056885 -0.43388367 33.52453613 C-0.38003244 30.18306385 -0.34596548 26.84173235 -0.3125 23.5 C-0.27930474 21.22393885 -0.24481306 18.94789622 -0.20898438 16.671875 C-0.12432027 11.11468531 -0.05738897 5.55753557 0 0 Z " fill="#3144A2" transform="translate(798,111)"/>
<path d="M0 0 C34.85123967 0 34.85123967 0 45 8 C53.76908425 17.52447353 55.87936325 28.12488233 55.40234375 40.7421875 C54.58178359 52.1482293 49.34972989 60.4852431 41 68 C28 73 28 73 0 73 C0 48.91 0 24.82 0 0 Z " fill="#FCFDFD" transform="translate(305,98)"/>
<path d="M0 0 C5.49085168 2.44498301 9.00025622 6.10074368 11.7421875 11.46875 C13.94515038 18.46412337 14.15894525 29.17082464 11.0703125 35.984375 C8.33134447 40.34316283 4.23177649 43.997393 -0.3671875 46.296875 C-2.77968442 46.47290647 -5.19869645 46.56432468 -7.6171875 46.609375 C-8.92171875 46.64675781 -10.22625 46.68414062 -11.5703125 46.72265625 C-16.93769576 46.12075833 -19.90797896 43.83946689 -23.5546875 39.984375 C-28.93621086 32.00487485 -29.39847177 24.86879497 -28.3671875 15.296875 C-26.53857975 8.54781065 -23.00268614 3.84136754 -16.9609375 0.296875 C-11.38512171 -1.85283711 -5.69148751 -1.69054084 0 0 Z " fill="#FAFBFC" transform="translate(608.3671875,127.703125)"/>
<path d="M0 0 C5.56986188 4.1138399 8.1327086 9.15248394 9.5 15.875 C10.35763855 23.80439497 9.17120077 32.95979839 4.125 39.375 C-0.56700442 43.84357563 -4.38104857 45.63508066 -10.75 46.125 C-16.59876198 45.73508253 -20.8160913 44.29696734 -25.3125 40.5 C-32.11330986 32.33902816 -32.42118599 24.17553424 -31.5 13.875 C-29.52786593 7.27855157 -26.2216357 2.64884482 -20.5 -1.125 C-13.99096899 -3.25750909 -5.98821436 -3.51188512 0 0 Z " fill="#FAFAFC" transform="translate(886.5,129.125)"/>
<path d="M0 0 C6.6 0 13.2 0 20 0 C20 25.74 20 51.48 20 78 C13.4 78 6.8 78 0 78 C0 52.26 0 26.52 0 0 Z " fill="#7236A5" transform="translate(1046,112)"/>
<path d="M0 0 C0.87462891 0.00902344 1.74925781 0.01804688 2.65039062 0.02734375 C4.78788064 0.0507043 6.92522786 0.08656753 9.0625 0.125 C9.36548956 7.27555351 8.84688199 11.56936518 4.0625 17.125 C-1.66496862 21.45552506 -7.95956961 21.76963863 -14.9375 21.125 C-18.62373011 19.51227433 -19.69105 18.494675 -21.9375 15.125 C-22.71790541 8.21283784 -22.71790541 8.21283784 -19.875 4.25 C-13.67694788 -0.23369728 -7.37379713 -0.14579371 0 0 Z " fill="#FAF8FC" transform="translate(1000.9375,154.875)"/>
<path d="M0 0 C4.20546606 2.06616376 6.14599776 5.13738005 8.10546875 9.1875 C8.734375 11.3828125 8.734375 11.3828125 8.734375 17.3828125 C-3.145625 17.3828125 -15.025625 17.3828125 -27.265625 17.3828125 C-25.00658886 7.21714985 -25.00658886 7.21714985 -22.390625 4.4453125 C-21.65199219 3.62740234 -21.65199219 3.62740234 -20.8984375 2.79296875 C-15.22797878 -2.1042456 -6.98536328 -1.90290931 0 0 Z " fill="#F5F7FA" transform="translate(520.265625,125.6171875)"/>
<path d="M0 0 C4.18058495 1.97007157 5.63109808 3.35969327 8.54296875 7.2421875 C9.03796875 12.1921875 9.03796875 12.1921875 9.54296875 17.2421875 C-2.33703125 17.2421875 -14.21703125 17.2421875 -26.45703125 17.2421875 C-24.19799511 7.07652485 -24.19799511 7.07652485 -21.58203125 4.3046875 C-20.84339844 3.48677734 -20.84339844 3.48677734 -20.08984375 2.65234375 C-14.56504501 -2.11907334 -6.77220177 -2.0887236 0 0 Z " fill="#F4F7FA" transform="translate(436.45703125,125.7578125)"/>
<path d="M0 0 C3.0597733 1.74387915 5.39965689 3.79931379 7 7 C7.53118173 10.79415519 7.85089348 14.46331178 5.953125 17.890625 C3.52414924 20.8339721 1.62709223 22.79841335 -2.20703125 23.2734375 C-9.29132231 23.54958678 -9.29132231 23.54958678 -13.0625 20.625 C-16.11066652 16.49522601 -16.53113684 13.6371578 -16.46484375 8.5546875 C-15.78045405 4.79341973 -14.194174 3.17908416 -11.1328125 1.00390625 C-7.3630645 -0.77049895 -4.03423147 -1.00306663 0 0 Z " fill="#62339F" transform="translate(942,168)"/>
<path d="M0 0 C3.39488422 2.05107588 4.80323081 3.70484621 7 7 C7.67116683 13.93539055 7.67116683 13.93539055 5.1875 17.875 C1.87596156 21.09192305 -0.2523429 22.31841756 -4.8125 22.4375 C-8.51787612 22.37791062 -10.68152295 21.99551267 -13.5625 19.625 C-16.86092467 16.07285035 -17.39498317 13.99269051 -17.359375 9.10546875 C-16.72418186 5.38406547 -14.66020984 3.59687151 -12 1 C-8.30044901 -0.84977549 -4.03799166 -0.47056911 0 0 Z " fill="#7963BD" transform="translate(1061,76)"/>
<path d="M0 0 C19.8 0 39.6 0 60 0 C60 0.66 60 1.32 60 2 C59.01734161 1.99666908 59.01734161 1.99666908 58.01483154 1.99327087 C51.20178777 1.97116211 44.38875417 1.95606996 37.57568359 1.94506836 C35.03238511 1.94003695 32.48908953 1.93321119 29.94580078 1.92456055 C26.29198492 1.91244294 22.63820728 1.90675978 18.984375 1.90234375 C17.27637726 1.89460182 17.27637726 1.89460182 15.53387451 1.88670349 C14.47307678 1.88662796 13.41227905 1.88655243 12.31933594 1.88647461 C10.92035065 1.88314369 10.92035065 1.88314369 9.49310303 1.87974548 C6.71719327 1.93221287 6.71719327 1.93221287 3 3 C3 23.13 3 43.26 3 64 C0 61 0 61 -0.36076355 58.32344055 C-0.35410172 57.24644394 -0.34743988 56.16944733 -0.34057617 55.05981445 C-0.34034958 53.83877518 -0.34012299 52.6177359 -0.33988953 51.35969543 C-0.32440567 50.04087875 -0.30892181 48.72206207 -0.29296875 47.36328125 C-0.28737243 45.99993862 -0.2831025 44.63658996 -0.28010559 43.27323914 C-0.26865949 39.68756408 -0.23919486 36.10225446 -0.20599365 32.51672363 C-0.1752874 28.85690341 -0.16143469 25.19702229 -0.14648438 21.53710938 C-0.11591657 14.35775033 -0.05719789 7.17939436 0 0 Z " fill="#292C9D" transform="translate(8,179)"/>
<path d="M0 0 C11.55 0 23.1 0 35 0 C35 0.33 35 0.66 35 1 C19.16 1.495 19.16 1.495 3 2 C2.67 11.24 2.34 20.48 2 30 C22.46 30 42.92 30 64 30 C64 30.33 64 30.66 64 31 C42.88 31 21.76 31 0 31 C0 20.77 0 10.54 0 0 Z " fill="#2A2D9A" transform="translate(8,102)"/>
<path d="M0 0 C21.12 0 42.24 0 64 0 C64 0.33 64 0.66 64 1 C62.85701195 1.0154612 62.85701195 1.0154612 61.69093323 1.03123474 C54.5244026 1.1290441 47.35796173 1.2315344 40.19157505 1.33933926 C36.5068981 1.39460165 32.82221327 1.44802679 29.13745117 1.49731445 C25.58422159 1.54490932 22.03109125 1.59725007 18.47797966 1.65294075 C17.11957189 1.6733865 15.76113688 1.69209585 14.40268135 1.70907402 C12.50610295 1.73306877 10.60961201 1.76370332 8.71313477 1.79467773 C7.09097801 1.81799416 7.09097801 1.81799416 5.43605042 1.84178162 C3.05248949 1.72758019 3.05248949 1.72758019 2 3 C1.67 10.59 1.34 18.18 1 26 C20.14 26 39.28 26 59 26 C59 26.33 59 26.66 59 27 C39.53 27 20.06 27 0 27 C0 18.09 0 9.18 0 0 Z " fill="#221D90" transform="translate(9,143)"/>
<path d="M0 0 C6.6 0 13.2 0 20 0 C20.33 15.18 20.66 30.36 21 46 C20.34 46 19.68 46 19 46 C18.67 31.15 18.34 16.3 18 1 C10.44914343 1.54598006 10.44914343 1.54598006 3 3 C1.36054037 6.27891925 1.87969822 9.90613534 1.90234375 13.5078125 C1.9037587 14.34843231 1.90517365 15.18905212 1.90663147 16.05514526 C1.91223763 18.74513275 1.92479114 21.43503759 1.9375 24.125 C1.94251421 25.94661338 1.94707725 27.76822807 1.95117188 29.58984375 C1.96220906 34.05992777 1.9794778 38.52994986 2 43 C1.34 43 0.68 43 0 43 C0 28.81 0 14.62 0 0 Z " fill="#3F98C6" transform="translate(655,76)"/>
<path d="M0 0 C0.33 0 0.66 0 1 0 C1.33 4.29 1.66 8.58 2 13 C16.85 13 31.7 13 47 13 C46.67 13.66 46.34 14.32 46 15 C30.82 15 15.64 15 0 15 C0 10.05 0 5.1 0 0 Z " fill="#3260A9" transform="translate(285,175)"/>
<path d="M0 0 C0.87935211 0.00424484 1.75870422 0.00848969 2.66470337 0.01286316 C5.45647592 0.02957414 8.24751038 0.06721183 11.0390625 0.10546875 C12.93879161 0.12052541 14.83853211 0.13421209 16.73828125 0.14648438 C21.38049008 0.17945277 26.02215141 0.23118222 30.6640625 0.29296875 C30.3340625 0.95296875 30.0040625 1.61296875 29.6640625 2.29296875 C28.51405762 2.31278809 27.36405273 2.33260742 26.17919922 2.35302734 C21.89626865 2.42932921 17.61366694 2.51800821 13.33105469 2.61035156 C11.48053499 2.64853997 9.62994363 2.68341026 7.77929688 2.71484375 C5.11302143 2.76071516 2.44723502 2.81867234 -0.21875 2.87890625 C-1.45191452 2.89623306 -1.45191452 2.89623306 -2.70999146 2.91390991 C-7.28662278 3.03044163 -11.02614054 3.56541301 -15.3359375 5.29296875 C-15.3359375 4.63296875 -15.3359375 3.97296875 -15.3359375 3.29296875 C-10.0769997 0.06842909 -5.96561156 -0.10944607 0 0 Z " fill="#694FA8" transform="translate(94.3359375,180.70703125)"/>
<path d="M0 0 C0.65378128 -0.00014603 1.30756256 -0.00029205 1.9811554 -0.0004425 C4.14551086 0.00025504 6.30978063 0.00803999 8.47412109 0.01586914 C9.97341871 0.01773388 11.47271694 0.01915752 12.97201538 0.02015686 C16.92087482 0.0239776 20.86969756 0.03380411 24.81854248 0.04486084 C28.84695947 0.05508448 32.87538238 0.05965653 36.90380859 0.06469727 C44.81007545 0.07542677 52.71631246 0.09249789 60.62255859 0.11352539 C60.62255859 0.44352539 60.62255859 0.77352539 60.62255859 1.11352539 C59.41439484 1.12898659 59.41439484 1.12898659 58.18182373 1.14476013 C50.58946691 1.24275776 42.99719093 1.34527544 35.40496445 1.45286465 C31.50177539 1.50801732 27.59857875 1.56142495 23.6953125 1.61083984 C19.92810905 1.65859649 16.16099472 1.71094315 12.39389801 1.76646614 C10.95702587 1.78683856 9.52012934 1.80555996 8.08321381 1.82259941 C6.06990427 1.84675659 4.05667494 1.87734022 2.04345703 1.90820312 C0.89762146 1.92374741 -0.24821411 1.93929169 -1.42877197 1.95530701 C-3.91883944 2.08891793 -6.00396299 2.3902592 -8.37744141 3.11352539 C-8.37744141 2.45352539 -8.37744141 1.79352539 -8.37744141 1.11352539 C-5.54349754 -0.30344654 -3.16870402 -0.0059339 0 0 Z " fill="#483097" transform="translate(62.37744140625,221.886474609375)"/>
<path d="M0 0 C6.27 0 12.54 0 19 0 C18.67 0.66 18.34 1.32 18 2 C16.92878906 1.98839844 15.85757813 1.97679688 14.75390625 1.96484375 C13.35677257 1.95546701 11.95963701 1.94636669 10.5625 1.9375 C9.85544922 1.92912109 9.14839844 1.92074219 8.41992188 1.91210938 C6.61306441 1.90346412 4.80612397 1.94779989 3 2 C1.47208917 3.52791083 1.83816543 4.92989408 1.79467773 7.06079102 C1.7647599 8.35201622 1.7647599 8.35201622 1.73423767 9.66932678 C1.70916893 11.07244362 1.70916893 11.07244362 1.68359375 12.50390625 C1.66281265 13.45692123 1.64203156 14.40993622 1.62062073 15.39183044 C1.55501823 18.4486441 1.49619082 21.50554656 1.4375 24.5625 C1.39432494 26.62956663 1.35071099 28.69662414 1.30664062 30.76367188 C1.19932599 35.84235595 1.09808909 40.9211297 1 46 C0.67 46 0.34 46 0 46 C0 30.82 0 15.64 0 0 Z " fill="#1E42A3" transform="translate(799,112)"/>
<path d="M0 0 C-5.01299686 2.77505183 -9.99388356 4.27029585 -15.5 5.6875 C-16.32886719 5.91244141 -17.15773437 6.13738281 -18.01171875 6.36914062 C-22.44520498 7.52861357 -26.37542718 8.27777467 -31 8 C-31 7.34 -31 6.68 -31 6 C-30.22398438 5.91363281 -29.44796875 5.82726562 -28.6484375 5.73828125 C-20.85201239 4.72418777 -14.26743468 2.85577674 -6.99609375 -0.07421875 C-4.03149248 -0.99026895 -2.82338624 -1.1390189 0 0 Z " fill="#7448A9" transform="translate(155,215)"/>
<path d="M0 0 C2.80694169 2.80694169 3.22404175 6.06518104 4.125 9.8125 C4.30675781 10.52470703 4.48851562 11.23691406 4.67578125 11.97070312 C5.59675545 15.71345916 6.22735849 19.14248422 6 23 C4.1203117 20.18046755 3.61234176 18.82885955 3 15.625 C2.46434379 12.99348257 1.91679601 10.80123491 0.875 8.3125 C-0.20834223 5.44938126 -0.14114994 3.03472369 0 0 Z " fill="#59B3E8" transform="translate(224,98)"/>
<path d="M0 0 C6.27 0 12.54 0 19 0 C19 2.64 19 5.28 19 8 C18.67 8 18.34 8 18 8 C18 5.69 18 3.38 18 1 C8.76918825 1.1847704 8.76918825 1.1847704 1 5 C0.67 3.35 0.34 1.7 0 0 Z " fill="#1C9ACB" transform="translate(655,76)"/>
<path d="M0 0 C0.33 0.99 0.66 1.98 1 3 C0.34 3 -0.32 3 -1 3 C-1.20625 3.556875 -1.4125 4.11375 -1.625 4.6875 C-3.62143247 8.04513643 -5.78478875 9.74935212 -9 12 C-11.1953125 11.63671875 -11.1953125 11.63671875 -13 11 C-12.48050781 10.62488281 -11.96101562 10.24976563 -11.42578125 9.86328125 C-7.27747551 6.81914561 -3.52678314 3.74720709 0 0 Z " fill="#7B4EB0" transform="translate(154,163)"/>
<path d="M0 0 C-0.33 0.99 -0.66 1.98 -1 3 C-1.556875 3.268125 -2.11375 3.53625 -2.6875 3.8125 C-6.12757508 5.57902504 -8.33261312 8.21136826 -11 11 C-11.99 10.67 -12.98 10.34 -14 10 C-13.34 10 -12.68 10 -12 10 C-11.7525 9.40703125 -11.505 8.8140625 -11.25 8.203125 C-9.81031137 5.6656738 -8.34848507 4.45955898 -6 2.75 C-5.29875 2.22921875 -4.5975 1.7084375 -3.875 1.171875 C-2 0 -2 0 0 0 Z " fill="#2E77BB" transform="translate(688,112)"/>
</svg>
