<?xml version="1.0" encoding="UTF-8"?>
<svg version="1.1" xmlns="http://www.w3.org/2000/svg" width="1143" height="218">
<path d="M0 0 C4.81145032 2.02652817 9.20530125 4.70404958 13.64111328 7.43798828 C15.78827385 8.72787668 17.93670865 10.01564639 20.08642578 11.30126953 C21.11928711 11.92211426 22.15214844 12.54295898 23.21630859 13.18261719 C26.76042985 15.2787394 30.36053718 17.23253034 34.01611328 19.12548828 C39.9670965 22.24014543 45.74654424 25.5818191 51.51806641 29.01611328 C57.50110572 32.56565071 63.56129664 35.96128602 69.66381836 39.30078125 C71.0681994 40.072333 72.4622455 40.8629877 73.84545898 41.671875 C76.10746395 42.95524411 76.10746395 42.95524411 78.78637695 43.89550781 C81.89891938 45.24955954 83.79953078 46.34079491 86.07861328 48.87548828 C87.46899286 53.91489382 87.64553792 58.63726197 87.54711914 63.84228516 C87.51617734 66.24551257 87.6075879 68.62309662 87.70947266 71.02392578 C87.77210299 75.43844131 87.78673099 79.74194369 86.07861328 83.87548828 C82.17575179 87.78182083 78.16933703 89.70156475 73.07861328 91.87548828 C71.73343701 92.60612521 70.39495184 93.34959147 69.07080078 94.11767578 C68.04212891 94.65650391 67.01345703 95.19533203 65.95361328 95.75048828 C62.87991303 97.36624758 59.96924002 98.94840379 57.07861328 100.87548828 C52.79971376 100.56468984 49.724011 98.72074208 46.07861328 96.56298828 C44.832808 95.83332886 43.58669419 95.10419605 42.34033203 94.37548828 C41.66147949 93.97587891 40.98262695 93.57626953 40.28320312 93.16455078 C36.17319174 90.76135476 32.02865169 88.41835419 27.89111328 86.06298828 C17.92900009 80.37620237 7.99887171 74.63490689 -1.92138672 68.87548828 C-3.26543302 78.68326671 -4.69030754 89.21754572 -1.92138672 98.87548828 C2.96591904 105.1130511 10.323334 107.97729367 17.52490234 110.81787109 C21.28533407 112.37525066 25.19529071 114.10884313 27.07861328 117.87548828 C27.47848771 122.65389802 27.60548013 127.43002617 27.70336914 132.22314453 C27.74502831 133.81818821 27.80640152 135.41284479 27.88793945 137.00634766 C28.55354961 150.23620735 28.55354961 150.23620735 25.00366211 154.18164062 C22.41163778 155.74591435 19.92114622 156.84726307 17.07861328 157.87548828 C16.04349609 158.45556641 15.00837891 159.03564453 13.94189453 159.63330078 C13.10013672 160.08447266 12.25837891 160.53564453 11.39111328 161.00048828 C10.48232422 161.50322266 9.57353516 162.00595703 8.63720703 162.52392578 C6.07861328 163.87548828 6.07861328 163.87548828 3.86376953 164.78955078 C1.66985903 165.6552574 1.66985903 165.6552574 -0.92138672 167.87548828 C-1.47296124 169.87324925 -1.47296124 169.87324925 -1.56591797 172.19580078 C-1.63133789 173.08912109 -1.69675781 173.98244141 -1.76416016 174.90283203 C-2.04791902 180.26781331 -2.29346859 185.63132147 -2.48388672 191.00048828 C-2.52707031 192.14775391 -2.57025391 193.29501953 -2.61474609 194.47705078 C-2.71972318 197.27643971 -2.82188137 200.07590043 -2.92138672 202.87548828 C-3.54972412 203.18131836 -4.17806152 203.48714844 -4.82543945 203.80224609 C-10.36008072 206.52760208 -15.71932904 209.41156509 -20.98388672 212.62548828 C-21.97678711 213.22296875 -21.97678711 213.22296875 -22.98974609 213.83251953 C-26.12953654 215.62063851 -26.12953654 215.62063851 -28.92138672 217.87548828 C-34.8341828 218.69167179 -38.36256649 216.27374366 -43.17138672 213.25048828 C-44.2909375 212.56805054 -44.2909375 212.56805054 -45.43310547 211.87182617 C-46.91873233 210.96535562 -48.40124733 210.05376231 -49.88037109 209.13671875 C-52.53985553 207.49331007 -55.23010512 205.9036446 -57.92138672 204.31298828 C-61.79167961 202.00519539 -61.79167961 202.00519539 -62.92138672 200.87548828 C-63.04675528 197.83219641 -63.10751115 194.81051455 -63.12670898 191.76586914 C-63.13660858 190.8098732 -63.14650818 189.85387726 -63.15670776 188.86891174 C-63.18842524 185.69274414 -63.21312052 182.51656155 -63.23779297 179.34033203 C-63.25835366 177.14457295 -63.27934988 174.94881792 -63.30076599 172.75306702 C-63.35607811 166.96132671 -63.40544694 161.16955014 -63.45361328 155.37774658 C-63.50376174 149.47266395 -63.55948246 143.56763425 -63.61474609 137.66259766 C-63.72243939 126.0669397 -63.82385938 114.47123588 -63.92138672 102.87548828 C-64.69466309 103.34008957 -65.46793945 103.80469086 -66.26464844 104.28337097 C-70.77818457 106.98822115 -75.33982162 109.60036349 -79.92138672 112.18798828 C-80.90623047 112.76355469 -81.89107422 113.33912109 -82.90576172 113.93212891 C-83.85966797 114.46644531 -84.81357422 115.00076172 -85.79638672 115.55126953 C-86.66005859 116.0453833 -87.52373047 116.53949707 -88.41357422 117.04858398 C-91.72018536 118.1388772 -92.85582526 117.41721378 -95.92138672 115.87548828 C-96.86602783 115.53469238 -97.81066895 115.19389648 -98.78393555 114.84277344 C-107.10042493 111.67627421 -115.44562215 108.13256638 -120.92138672 100.87548828 C-124.75357573 89.83069153 -122.38824692 76.21409195 -120.92138672 64.87548828 C-120.25349121 64.51342285 -119.5855957 64.15135742 -118.89746094 63.77832031 C-112.24555337 60.16257241 -105.6333125 56.48313708 -99.04638672 52.75048828 C-98.06259033 52.19353271 -97.07879395 51.63657715 -96.06518555 51.06274414 C-89.24137417 47.19669959 -82.42212663 43.32263294 -75.60888672 39.43798828 C-74.7808252 38.9666748 -73.95276367 38.49536133 -73.09960938 38.00976562 C-69.0366604 35.68890146 -65.00432706 33.32922539 -61.00341797 30.90283203 C-56.68451598 28.29993357 -52.29466855 25.86116262 -47.85839844 23.46484375 C-42.37679559 20.49849009 -36.93340036 17.46276068 -31.48388672 14.43798828 C-30.34628906 13.80828125 -29.20869141 13.17857422 -28.03662109 12.52978516 C-26.90675781 11.90265625 -25.77689453 11.27552734 -24.61279297 10.62939453 C-23.49791504 10.01467285 -22.38303711 9.39995117 -21.234375 8.76660156 C-19.01847029 7.50172331 -16.83345497 6.18119986 -14.68261719 4.80859375 C-5.08510371 -1.26767087 -5.08510371 -1.26767087 0 0 Z " fill="#EA8C22" transform="translate(120.92138671875,0.12451171875)"/>
<path d="M0 0 C7.26 0 14.52 0 22 0 C24.85875294 8.99521399 27.30810206 17.98651598 29.453125 27.17578125 C29.76090785 28.48008632 30.06908219 29.78429906 30.37762451 31.08842468 C31.17713539 34.47231228 31.97142938 37.85740212 32.76452637 41.24279785 C33.57936384 44.71666491 34.39929051 48.18933029 35.21875 51.66210938 C36.81739541 58.440259 38.41051561 65.21969641 40 72 C40.19156677 71.30223953 40.38313354 70.60447906 40.58050537 69.88557434 C42.40207766 63.25209503 44.22558608 56.61915056 46.05117416 49.9867754 C46.98925522 46.57846311 47.92663307 43.16996093 48.86230469 39.76098633 C49.94246241 35.82572764 51.02585656 31.89136595 52.109375 27.95703125 C52.43871033 26.75544876 52.76804565 25.55386627 53.10736084 24.31587219 C59.36298691 1.63701309 59.36298691 1.63701309 61 0 C62.34267413 -0.08631874 63.68974322 -0.10706473 65.03515625 -0.09765625 C65.84404297 -0.09443359 66.65292969 -0.09121094 67.48632812 -0.08789062 C68.33646484 -0.07951172 69.18660156 -0.07113281 70.0625 -0.0625 C70.91650391 -0.05798828 71.77050781 -0.05347656 72.65039062 -0.04882812 C74.76695663 -0.03700373 76.88348685 -0.01906769 79 0 C83.5063722 13.39541228 87.19544457 26.96901432 90.75170898 40.64013672 C91.11822371 42.04787841 91.48484028 43.4555936 91.8515625 44.86328125 C92.02951859 45.5472699 92.20747467 46.23125854 92.39082336 46.93597412 C93.89085731 52.66517018 95.51313426 58.35312651 97.18115234 64.03588867 C97.9123178 66.68260299 98.47771419 69.30637674 99 72 C100.61771492 65.26382126 102.23510646 58.52756492 103.85229492 51.79125977 C104.40007568 49.50966724 104.94792487 47.22809115 105.49584961 44.9465332 C106.02820809 42.72975539 106.56044499 40.51294838 107.09255981 38.29611206 C107.62133924 36.09363998 108.15053337 33.89126742 108.68014526 31.68899536 C109.9593637 26.36410774 111.228709 21.03726521 112.47509766 15.70458984 C112.70469681 14.72620651 112.93429596 13.74782318 113.17085266 12.73979187 C113.60211847 10.8992062 114.03047005 9.05793454 114.45549011 7.21589661 C115.88849031 1.11150969 115.88849031 1.11150969 117 0 C118.63472882 -0.08700342 120.27314055 -0.10701063 121.91015625 -0.09765625 C122.89951172 -0.09443359 123.88886719 -0.09121094 124.90820312 -0.08789062 C125.94912109 -0.07951172 126.99003906 -0.07113281 128.0625 -0.0625 C129.62967773 -0.05573242 129.62967773 -0.05573242 131.22851562 -0.04882812 C133.8190666 -0.03699913 136.40950559 -0.02051689 139 0 C139.17735263 5.0386645 138.62891097 9.20873698 137.27734375 14.05859375 C137.09690018 14.71485748 136.9164566 15.37112122 136.73054504 16.04727173 C136.14159759 18.17988444 135.53976535 20.30861386 134.9375 22.4375 C134.51856375 23.94375063 134.10027706 25.45018206 133.68261719 26.95678711 C131.1941203 35.90156896 128.60988911 44.81649217 125.96020508 53.71484375 C123.77107316 61.15428211 121.7308915 68.63027058 119.7109375 76.1171875 C119.4178772 77.20335861 119.12481689 78.28952972 118.82287598 79.40861511 C117.32722763 84.95900158 115.83786984 90.51101937 114.35449219 96.06469727 C113.80145878 98.12516987 113.24839999 100.18563566 112.6953125 102.24609375 C112.43833588 103.2146933 112.18135925 104.18329285 111.91659546 105.1812439 C111.55980209 106.50776474 111.55980209 106.50776474 111.19580078 107.86108398 C110.98819122 108.6391893 110.78058167 109.41729462 110.56668091 110.21897888 C110 112 110 112 109 113 C106.02895987 113.15357265 103.09722447 113.23168121 100.125 113.25 C99.29613281 113.270625 98.46726562 113.29125 97.61328125 113.3125 C96.41638672 113.32023437 96.41638672 113.32023437 95.1953125 113.328125 C94.46328613 113.3374707 93.73125977 113.34681641 92.97705078 113.35644531 C90.39792144 112.8914504 89.67773849 111.98446126 88 110 C87.2240448 108.13032532 87.2240448 108.13032532 86.65307617 106.0012207 C86.43223358 105.19724854 86.21139099 104.39327637 85.9838562 103.56494141 C85.75586334 102.69401855 85.52787048 101.8230957 85.29296875 100.92578125 C85.04676788 100.01707275 84.80056702 99.10836426 84.54690552 98.17211914 C83.7504466 95.22149457 82.96877532 92.26717755 82.1875 89.3125 C81.64743297 87.30018515 81.10666119 85.28805932 80.56518555 83.27612305 C77.45506285 71.67957894 74.41042758 60.06617414 71.61206055 48.38989258 C70.95708497 44.37181389 70.95708497 44.37181389 69 41 C68.54560547 42.85238281 68.54560547 42.85238281 68.08203125 44.7421875 C65.7657228 54.12687635 63.35653158 63.47189655 60.73339844 72.77563477 C59.60882316 76.77407544 58.53912311 80.77464888 57.5625 84.8125 C56.13398512 90.64216189 54.51141238 96.41348818 52.875 102.1875 C52.60888916 103.13407471 52.34277832 104.08064941 52.06860352 105.0559082 C51.81651123 105.93851318 51.56441895 106.82111816 51.3046875 107.73046875 C50.9641333 108.92772583 50.9641333 108.92772583 50.61669922 110.14916992 C50 112 50 112 49 113 C46.02539596 113.2069804 43.10268416 113.32453078 40.125 113.375 C38.88169922 113.43107422 38.88169922 113.43107422 37.61328125 113.48828125 C36.81535156 113.49988281 36.01742188 113.51148438 35.1953125 113.5234375 C34.09727295 113.5531665 34.09727295 113.5531665 32.97705078 113.58349609 C31 113 31 113 29.36376953 110.86230469 C27.91954723 107.83114425 26.91309398 104.90658441 25.984375 101.6796875 C25.62384033 100.43558105 25.26330566 99.19147461 24.8918457 97.90966797 C24.51084588 96.56488755 24.13024018 95.21999541 23.75 93.875 C23.3507252 92.48187034 22.95122679 91.08880474 22.55151367 89.69580078 C19.69091267 79.6736453 17.02700435 69.60525854 14.45410156 59.50537109 C12.74339729 52.80262908 10.9340985 46.14156068 9 39.5 C6.57396243 31.13381108 4.28350224 22.73546259 2.0625 14.3125 C1.58393555 12.52779297 1.58393555 12.52779297 1.09570312 10.70703125 C0.80759766 9.60359375 0.51949219 8.50015625 0.22265625 7.36328125 C-0.03765381 6.37626221 -0.29796387 5.38924316 -0.56616211 4.37231445 C-1 2 -1 2 0 0 Z " fill="#A5A7A9" transform="translate(1004,89)"/>
<path d="M0 0 C12.14924118 8.32939243 19.5735064 20.22868984 22.71875 34.55078125 C25.94632546 54.74686007 23.34922818 73.37645604 12.25 90.875 C4.62023823 101.19451649 -5.155315 106.8894675 -17.7890625 109.50390625 C-32.26004513 111.31755183 -44.63439848 108.5493863 -56.4921875 99.8671875 C-67.41374695 90.60543952 -75.07464335 77.21810439 -76.75 62.875 C-77.35189852 51.38257501 -77.70334194 39.82271615 -73.75 28.875 C-73.29753906 27.56015625 -73.29753906 27.56015625 -72.8359375 26.21875 C-68.41213757 14.27808678 -60.88902055 3.7407663 -49.2421875 -2.0625 C-32.42001822 -9.23433392 -16.01764716 -9.41036771 0 0 Z M-46.17578125 23.78515625 C-54.22325329 34.46852483 -53.8348917 49.94618106 -52.44140625 62.69921875 C-50.92294105 70.39904673 -47.27786024 78.70462204 -40.73046875 83.2890625 C-33.92935526 87.22250132 -27.49863525 88.08696603 -19.75 86.875 C-16.53837389 85.71583693 -14.27921771 84.14795336 -11.75 81.875 C-11.12351562 81.3284375 -10.49703125 80.781875 -9.8515625 80.21875 C-2.59983289 72.99761841 -0.32143365 62.66674958 0.2890625 52.6953125 C0.13291275 41.42130076 -1.81588852 29.92541981 -9.8203125 21.60546875 C-16.19136808 15.89215372 -21.99330973 15.27309266 -30.4765625 15.5625 C-37.23910836 16.2080891 -41.53098784 18.84810617 -46.17578125 23.78515625 Z " fill="#EC6639" transform="translate(667.75,94.125)"/>
<path d="M0 0 C12.83841967 9.77621883 19.83227678 22.23081912 22.3125 38.1875 C24.52044038 57.23887124 21.37945533 76.16284465 10 92 C0.87016601 101.90160053 -10.55777271 108.4366176 -24.11328125 109.16796875 C-39.2679156 109.26048789 -50.76958047 105.44938403 -62.03125 95.140625 C-68.33404329 88.69238264 -71.67829835 81.2515287 -75 73 C-75.54527344 71.69482422 -75.54527344 71.69482422 -76.1015625 70.36328125 C-80.45533987 57.72918898 -79.55095212 40.41499739 -75 28 C-74.63648438 26.97648437 -74.27296875 25.95296875 -73.8984375 24.8984375 C-71.43255315 18.48713819 -68.5464468 13.14834047 -64 8 C-63.40316406 7.31035156 -62.80632813 6.62070313 -62.19140625 5.91015625 C-46.16225863 -11.40906362 -19.34791492 -12.24860126 0 0 Z M-46.6171875 22.26953125 C-55.44603593 33.31806192 -54.77167628 47.64052371 -54 61 C-53.01246388 69.66294057 -49.32578921 76.00773219 -43 82 C-36.46786564 86.77870699 -28.82179031 86.96377442 -21 86 C-14.62618164 84.21438484 -9.50525459 78.36990548 -6 73 C-2.35462564 65.32354406 -1.3705734 58.366407 -1.5 49.9375 C-1.48453125 48.92623047 -1.4690625 47.91496094 -1.453125 46.87304688 C-1.50147171 37.48774103 -4.13190002 29.42142057 -10 22 C-15.69669627 16.47266497 -19.97624878 14.6512672 -27.875 14.6875 C-28.56980469 14.67138672 -29.26460937 14.65527344 -29.98046875 14.63867188 C-37.12451633 14.6319449 -41.84360677 17.20853597 -46.6171875 22.26953125 Z " fill="#A5A7A9" transform="translate(984,95)"/>
<path d="M0 0 C0.86863678 0.00404846 1.73727356 0.00809692 2.63223267 0.01226807 C3.54614777 0.00876343 4.46006287 0.00525879 5.40167236 0.00164795 C8.43302937 -0.00717937 11.4641544 -0.00131668 14.49551392 0.00543213 C16.59536789 0.00408577 18.69522156 0.00214548 20.79507446 -0.00036621 C25.20013389 -0.00331883 29.60511232 0.00098461 34.01016235 0.01031494 C39.66655423 0.02170952 45.32275633 0.01515079 50.97914124 0.00317001 C55.31645141 -0.00404485 59.65371632 -0.00176237 63.99102783 0.0034256 C66.07710797 0.00476313 68.16319218 0.00311078 70.24926758 -0.00153351 C73.16088806 -0.0065926 76.07219792 0.00110281 78.98379517 0.01226807 C79.85243195 0.0082196 80.72106873 0.00417114 81.61602783 0 C87.57948619 0.04252941 87.57948619 0.04252941 89.80801392 2.27105713 C90.0350647 4.33404541 90.0350647 4.33404541 90.00332642 6.84136963 C89.9968811 7.73726807 89.99043579 8.6331665 89.98379517 9.55621338 C89.95865845 10.96193604 89.95865845 10.96193604 89.93301392 12.39605713 C89.92399048 13.34093994 89.91496704 14.28582275 89.90567017 15.25933838 C89.88205914 17.59683005 89.84912908 19.93381836 89.80801392 22.27105713 C86.88718936 23.73146941 84.32500023 23.39034509 81.06338501 23.38458252 C80.02419167 23.38480156 80.02419167 23.38480156 78.96400452 23.38502502 C76.6697885 23.38432731 74.37565328 23.37654154 72.08145142 23.36871338 C70.49247278 23.3668487 68.90349357 23.36542503 67.31451416 23.36442566 C63.12892067 23.36060444 58.94336178 23.35077751 54.75778198 23.33972168 C49.73759679 23.32770227 44.71740004 23.32310343 39.69720459 23.31726837 C32.06745028 23.30756556 24.43777194 23.28840625 16.80801392 23.27105713 C16.80801392 35.48105713 16.80801392 47.69105713 16.80801392 60.27105713 C19.75609985 60.25945557 22.70418579 60.247854 25.74160767 60.23590088 C28.58446139 60.22811096 31.42731394 60.22203383 34.27017212 60.21612549 C36.25194833 60.21108446 38.2337208 60.20425175 40.21548462 60.19561768 C43.057535 60.18354198 45.89953639 60.17782668 48.74160767 60.17340088 C49.63327133 60.16823959 50.524935 60.16307831 51.44361877 60.15776062 C53.56541993 60.15756536 55.68712171 60.20895683 57.80801392 60.27105713 C59.43001906 61.89306228 58.93792142 63.69128743 58.94082642 65.92730713 C58.94211548 66.86703369 58.94340454 67.80676025 58.94473267 68.77496338 C58.94086548 69.76367432 58.93699829 70.75238525 58.93301392 71.77105713 C58.9368811 72.75976807 58.94074829 73.748479 58.94473267 74.76715088 C58.9434436 75.70687744 58.94215454 76.646604 58.94082642 77.61480713 C58.93969849 78.48299072 58.93857056 79.35117432 58.93740845 80.2456665 C58.80801392 82.27105713 58.80801392 82.27105713 57.80801392 83.27105713 C54.77823588 83.35976985 51.7713437 83.38625063 48.74160767 83.36871338 C47.83298477 83.36729843 46.92436188 83.36588348 45.98820496 83.36442566 C43.07394171 83.35880906 40.15975411 83.34625378 37.24551392 83.33355713 C35.2748119 83.32854427 33.30410868 83.32398099 31.33340454 83.31988525 C26.49157833 83.30883424 21.64980897 83.29155851 16.80801392 83.27105713 C16.81023453 84.08316147 16.81245514 84.89526581 16.81474304 85.73197937 C16.83474463 93.36934661 16.84998736 101.00670123 16.85982609 108.64408779 C16.86505423 112.57094371 16.87215061 116.49777807 16.88345337 120.42462158 C16.89428472 124.2111997 16.90029127 127.99775703 16.90289116 131.78434944 C16.90474496 133.23210032 16.90836472 134.67985001 16.91374397 136.12759209 C16.92095759 138.14862848 16.921422 140.1696856 16.92153931 142.19073486 C16.92375992 143.34323227 16.92598053 144.49572968 16.92826843 145.68315125 C16.80801392 148.27105713 16.80801392 148.27105713 15.80801392 149.27105713 C12.16902216 149.52261982 8.51717719 149.45627939 4.87051392 149.45855713 C3.84248657 149.47080322 2.81445923 149.48304932 1.75527954 149.4956665 C0.77365845 149.4976001 -0.20796265 149.49953369 -1.21932983 149.50152588 C-2.12417114 149.50563477 -3.02901245 149.50974365 -3.96127319 149.51397705 C-6.19198608 149.27105713 -6.19198608 149.27105713 -8.19198608 147.27105713 C-8.44366837 144.76602936 -8.44366837 144.76602936 -8.44595337 141.53924561 C-8.45159302 140.31933426 -8.45723267 139.09942291 -8.46304321 137.84254456 C-8.45915426 136.48342837 -8.45505791 135.12431276 -8.45077515 133.76519775 C-8.453484 132.3395927 -8.45704434 130.91398905 -8.46139526 129.48838806 C-8.47053416 125.61036198 -8.46696888 121.73244199 -8.46063709 117.85441399 C-8.45558483 113.80208926 -8.46026638 109.7497738 -8.46340942 105.69744873 C-8.46705134 98.89140181 -8.46224409 92.08539825 -8.45272827 85.27935791 C-8.44184328 77.40291637 -8.4453687 69.52657836 -8.45638108 61.65013933 C-8.46544756 54.8959745 -8.46674238 48.1418409 -8.46150374 41.38767195 C-8.45838051 37.3500292 -8.45798433 33.31243517 -8.46457672 29.27479553 C-8.4703403 25.4794459 -8.46637155 21.68423016 -8.45478821 17.88889503 C-8.4521363 16.49326106 -8.45291572 15.09761588 -8.45731354 13.70198631 C-8.46274931 11.80228443 -8.45473563 9.90255801 -8.44595337 8.00286865 C-8.44519932 6.93803001 -8.44444527 5.87319138 -8.44366837 4.7760849 C-7.90918002 -0.54374982 -4.54583233 0.03241937 0 0 Z " fill="#A4A7A9" transform="translate(781.1919860839844,52.72894287109375)"/>
<path d="M0 0 C0.99 0.556875 1.98 1.11375 3 1.6875 C13.14603508 9.50840204 19.5437451 18.57284348 23 31 C23.351613 33.78771482 23.50321544 36.56888068 23.625 39.375 C23.66367187 40.11105469 23.70234375 40.84710938 23.7421875 41.60546875 C23.83557998 43.40327406 23.9188371 45.20160108 24 47 C13.17783623 50.66853009 2.24282 53.94159034 -8.71875 57.1640625 C-9.67211746 57.44439331 -10.62548492 57.72472412 -11.60774231 58.0135498 C-15.58407805 59.18210697 -19.5606264 60.34992146 -23.53808594 61.51464844 C-26.47394947 62.37478327 -29.40891002 63.23794273 -32.34375 64.1015625 C-33.23960815 64.36305084 -34.13546631 64.62453918 -35.05847168 64.89395142 C-39.12459245 66.09262398 -43.10110854 67.31657029 -47 69 C-44.45644843 76.85183311 -41.39661378 82.67169194 -34.2265625 87.09375 C-27.22580721 90.2839676 -18.83691942 90.19076809 -11.6015625 87.9453125 C-7.4679299 86.25382604 -3.71889697 84.47926465 0 82 C4.15002695 82.17400532 6.3780731 84.94472292 9.1875 87.75 C10.06792969 88.61109375 10.94835937 89.4721875 11.85546875 90.359375 C14.05039743 93.06205585 14.68660907 94.58342441 15 98 C0.60288376 107.96723432 -13.25997678 113.83105879 -31.14453125 111.609375 C-43.68532394 109.24375993 -54.75261063 102.60826663 -62 92 C-69.7507907 79.06635734 -72.22717092 67.34414605 -72.375 52.4375 C-72.38909912 51.39682373 -72.40319824 50.35614746 -72.41772461 49.28393555 C-72.32013172 33.59618702 -67.2898509 18.42762411 -56.15625 7.12890625 C-41.13213625 -6.73262727 -18.13317349 -10.55805989 0 0 Z M-44 25 C-47.10709981 31.8431672 -47.92297125 39.62552076 -49 47 C-46.23129866 48.38435067 -44.99187025 47.62238554 -42.0390625 46.77734375 C-41.01876953 46.48883545 -39.99847656 46.20032715 -38.94726562 45.90307617 C-37.85091797 45.58443604 -36.75457031 45.2657959 -35.625 44.9375 C-34.51060547 44.61821533 -33.39621094 44.29893066 -32.24804688 43.9699707 C-29.9523745 43.30988314 -27.65778198 42.64602902 -25.36425781 41.97851562 C-22.22207109 41.06459078 -19.07632724 40.16406934 -15.9296875 39.265625 C-14.11946853 38.74069638 -12.30955429 38.21471536 -10.5 37.6875 C-9.65260254 37.44572021 -8.80520508 37.20394043 -7.93212891 36.95483398 C-5.93599746 36.36316379 -3.96442155 35.68968278 -2 35 C-1.67 34.34 -1.34 33.68 -1 33 C-2.81703217 27.54890348 -5.51330333 22.70470161 -10 19 C-21.28736335 14.1921245 -35.56277945 15.77792172 -44 25 Z " fill="#EB673A" transform="translate(378,91)"/>
<path d="M0 0 C4.81145032 2.02652817 9.20530125 4.70404958 13.64111328 7.43798828 C15.78827385 8.72787668 17.93670865 10.01564639 20.08642578 11.30126953 C21.11928711 11.92211426 22.15214844 12.54295898 23.21630859 13.18261719 C26.76042985 15.2787394 30.36053718 17.23253034 34.01611328 19.12548828 C39.9670965 22.24014543 45.74654424 25.5818191 51.51806641 29.01611328 C57.54713337 32.59295737 63.66094639 36.00071645 69.80004883 39.38427734 C75.30302222 42.42435169 80.73008831 45.56961607 86.07861328 48.87548828 C84.66062146 51.71147192 83.04687297 51.70441708 80.07861328 52.87548828 C77.04039719 54.45274048 74.06201641 56.13482402 71.07861328 57.81298828 C70.28455078 58.25578125 69.49048828 58.69857422 68.67236328 59.15478516 C67.89892578 59.58726563 67.12548828 60.01974609 66.32861328 60.46533203 C65.21486328 61.08577393 65.21486328 61.08577393 64.07861328 61.71875 C62.4520218 62.65952032 60.88011362 63.69434956 59.32861328 64.75439453 C56.40257192 66.21233528 55.19616494 65.71747793 52.07861328 64.87548828 C49.83374023 63.84741211 49.83374023 63.84741211 47.56689453 62.58251953 C46.72578125 62.11652344 45.88466797 61.65052734 45.01806641 61.17041016 C44.15117187 60.68121094 43.28427734 60.19201172 42.39111328 59.68798828 C41.11977539 58.98319336 41.11977539 58.98319336 39.82275391 58.26416016 C33.83172368 54.92467334 27.95106821 51.41792776 22.07861328 47.87548828 C18.17813066 45.53439524 14.25970044 43.22726845 10.32861328 40.93798828 C9.32701172 40.33664063 8.32541016 39.73529297 7.29345703 39.11572266 C6.32021484 38.55304687 5.34697266 37.99037109 4.34423828 37.41064453 C3.47573242 36.89896729 2.60722656 36.38729004 1.71240234 35.86010742 C-1.58309746 34.62811347 -3.54200323 35.05321794 -6.92138672 35.87548828 C-8.34451172 36.15392578 -8.34451172 36.15392578 -9.79638672 36.43798828 C-10.49763672 36.58236328 -11.19888672 36.72673828 -11.92138672 36.87548828 C-11.92138672 37.53548828 -11.92138672 38.19548828 -11.92138672 38.87548828 C-12.64950562 39.27320435 -12.64950562 39.27320435 -13.39233398 39.67895508 C-27.30647047 47.28690597 -41.13547974 55.03781528 -54.92138672 62.87548828 C-55.87883789 63.41947266 -56.83628906 63.96345703 -57.82275391 64.52392578 C-60.62750292 66.11846517 -63.43099515 67.71518643 -66.23388672 69.31298828 C-67.06267334 69.78470459 -67.89145996 70.2564209 -68.74536133 70.74243164 C-73.76910695 73.61219997 -78.74165685 76.5550137 -83.68383789 79.56323242 C-89.42618873 82.93095046 -89.42618873 82.93095046 -91.87451172 82.65673828 C-94.27323045 81.74119678 -96.42886454 80.62907211 -98.67138672 79.37548828 C-99.62142578 78.84697266 -100.57146484 78.31845703 -101.55029297 77.77392578 C-102.66275391 77.14744141 -103.77521484 76.52095703 -104.92138672 75.87548828 C-106.34708531 75.07586171 -107.77287143 74.27639121 -109.19873047 73.47705078 C-113.10954753 71.28229264 -117.01627572 69.08038157 -120.92138672 66.87548828 C-120.92138672 66.21548828 -120.92138672 65.55548828 -120.92138672 64.87548828 C-120.25349121 64.51342285 -119.5855957 64.15135742 -118.89746094 63.77832031 C-112.24555337 60.16257241 -105.6333125 56.48313708 -99.04638672 52.75048828 C-98.06259033 52.19353271 -97.07879395 51.63657715 -96.06518555 51.06274414 C-89.24137417 47.19669959 -82.42212663 43.32263294 -75.60888672 39.43798828 C-74.7808252 38.9666748 -73.95276367 38.49536133 -73.09960938 38.00976562 C-69.0366604 35.68890146 -65.00432706 33.32922539 -61.00341797 30.90283203 C-56.68451598 28.29993357 -52.29466855 25.86116262 -47.85839844 23.46484375 C-42.37679559 20.49849009 -36.93340036 17.46276068 -31.48388672 14.43798828 C-30.34628906 13.80828125 -29.20869141 13.17857422 -28.03662109 12.52978516 C-26.90675781 11.90265625 -25.77689453 11.27552734 -24.61279297 10.62939453 C-23.49791504 10.01467285 -22.38303711 9.39995117 -21.234375 8.76660156 C-19.01847029 7.50172331 -16.83345497 6.18119986 -14.68261719 4.80859375 C-5.08510371 -1.26767087 -5.08510371 -1.26767087 0 0 Z " fill="#F5BC3B" transform="translate(120.92138671875,0.12451171875)"/>
<path d="M0 0 C0.495 1.485 0.495 1.485 1 3 C1.99 3.33 2.98 3.66 4 4 C15.29893389 18.1010695 15.15952388 35.93298618 15.1328125 53.03515625 C15.13348729 54.56546545 15.13445877 56.09577454 15.13571167 57.62608337 C15.13717639 60.81054723 15.13507112 63.99498281 15.13037109 67.17944336 C15.12463063 71.26849861 15.12798754 75.35748883 15.13394356 79.44654179 C15.13754523 82.59568275 15.13641317 85.74480809 15.13381577 88.89394951 C15.13314765 90.40310105 15.1339709 91.91225399 15.13629532 93.42140388 C15.13882006 95.51803527 15.13498587 97.61455838 15.12939453 99.71118164 C15.12859894 100.90457657 15.12780334 102.0979715 15.12698364 103.32752991 C15 106 15 106 14 107 C12.37742456 107.0991657 10.75060169 107.13079777 9.125 107.1328125 C8.14015625 107.13410156 7.1553125 107.13539063 6.140625 107.13671875 C5.10421875 107.13285156 4.0678125 107.12898438 3 107.125 C1.44539063 107.13080078 1.44539063 107.13080078 -0.140625 107.13671875 C-1.12546875 107.13542969 -2.1103125 107.13414062 -3.125 107.1328125 C-4.03507812 107.13168457 -4.94515625 107.13055664 -5.8828125 107.12939453 C-8 107 -8 107 -9 106 C-9.11342612 103.90599856 -9.15686996 101.80818621 -9.17358398 99.71118164 C-9.180271 99.05410217 -9.18695801 98.39702271 -9.19384766 97.72003174 C-9.2079336 96.28717492 -9.21981626 94.85429519 -9.22979546 93.42140388 C-9.24619607 91.1459605 -9.26944042 88.87068297 -9.29469299 86.59532166 C-9.36544457 80.12344664 -9.42521192 73.65149863 -9.47680664 67.17944336 C-9.50883 63.22298277 -9.55017824 59.26670409 -9.59700203 55.31039238 C-9.61290281 53.80871337 -9.62527858 52.30699237 -9.63390923 50.80525398 C-9.4781111 34.49036739 -9.4781111 34.49036739 -16 20 C-21.31316027 15.5789259 -27.25857635 15.44778043 -33.9375 15.6796875 C-39.15660266 16.22556303 -42.40682127 17.45107623 -46.25 21.1875 C-52.40038413 31.07204592 -52.15086159 41.71029654 -52.26036072 53.0382061 C-52.28159781 55.21931498 -52.30859277 57.40028798 -52.33703613 59.58131409 C-52.40643257 64.9883229 -52.46647745 70.39542676 -52.52606201 75.80255127 C-52.5769194 80.39263815 -52.63165971 84.98264454 -52.69187927 89.57261848 C-52.71848643 91.7247748 -52.73926635 93.87693875 -52.7598877 96.02915955 C-52.77660522 97.32463211 -52.79332275 98.62010468 -52.81054688 99.95483398 C-52.82933899 101.67403297 -52.82933899 101.67403297 -52.84851074 103.42796326 C-53 106 -53 106 -54 107 C-55.54955559 107.09899523 -57.10353673 107.13079524 -58.65625 107.1328125 C-60.06583984 107.13474609 -60.06583984 107.13474609 -61.50390625 107.13671875 C-62.98697266 107.13091797 -62.98697266 107.13091797 -64.5 107.125 C-65.48871094 107.12886719 -66.47742188 107.13273437 -67.49609375 107.13671875 C-68.43582031 107.13542969 -69.37554687 107.13414062 -70.34375 107.1328125 C-71.21193359 107.13168457 -72.08011719 107.13055664 -72.97460938 107.12939453 C-75 107 -75 107 -76 106 C-76.09770201 104.5728638 -76.12631695 103.1409257 -76.12698364 101.71044922 C-76.12980347 100.78496277 -76.13262329 99.85947632 -76.13552856 98.90594482 C-76.13249222 97.37082245 -76.13249222 97.37082245 -76.12939453 95.8046875 C-76.13114685 94.733255 -76.13289917 93.66182251 -76.13470459 92.55792236 C-76.13912553 88.99693203 -76.13618426 85.43599089 -76.1328125 81.875 C-76.13348547 79.41259756 -76.13445544 76.95019518 -76.13571167 74.48779297 C-76.13718897 69.31932952 -76.13503305 64.15088332 -76.13037109 58.98242188 C-76.1246738 52.34059273 -76.12795263 45.69880398 -76.13394356 39.05697632 C-76.1375483 33.96996758 -76.13641099 28.8829685 -76.13381577 23.79595947 C-76.13314625 21.3462117 -76.13397575 18.89646307 -76.13629532 16.44671631 C-76.13882042 13.0295579 -76.13498326 9.61246593 -76.12939453 6.1953125 C-76.13141876 5.17189758 -76.13344299 4.14848267 -76.13552856 3.09405518 C-76.13270874 2.16856873 -76.12988892 1.24308228 -76.12698364 0.28955078 C-76.12660662 -0.51940643 -76.12622959 -1.32836365 -76.12584114 -2.16183472 C-76 -4 -76 -4 -75 -5 C-73.43827255 -5.08685603 -71.87270656 -5.10702219 -70.30859375 -5.09765625 C-69.36435547 -5.09443359 -68.42011719 -5.09121094 -67.44726562 -5.08789062 C-66.45404297 -5.07951172 -65.46082031 -5.07113281 -64.4375 -5.0625 C-63.44041016 -5.05798828 -62.44332031 -5.05347656 -61.41601562 -5.04882812 C-58.94395151 -5.03700007 -56.47200482 -5.02051849 -54 -5 C-53.34 -3.35 -52.68 -1.7 -52 0 C-48.47525721 -0.56395885 -45.83399763 -2.22753543 -42.7890625 -4.015625 C-29.856292 -11.13147252 -11.72802464 -8.33474445 0 0 Z " fill="#EA663A" transform="translate(487,93)"/>
<path d="M0 0 C1.36298721 -0.00422974 1.36298721 -0.00422974 2.75350952 -0.00854492 C4.26057968 -0.00550858 4.26057968 -0.00550858 5.7980957 -0.00241089 C7.37598373 -0.00503937 7.37598373 -0.00503937 8.98574829 -0.00772095 C12.48180769 -0.01214179 15.97781699 -0.00920065 19.47387695 -0.00582886 C21.8914389 -0.00650183 24.30900078 -0.0074718 26.7265625 -0.00872803 C31.80086916 -0.01020532 36.87515826 -0.00804945 41.94946289 -0.00338745 C48.47022398 0.00230985 54.99094391 -0.00096899 61.51170349 -0.00695992 C66.50606601 -0.01056469 71.50041869 -0.00942733 76.49478149 -0.00683212 C78.89987188 -0.00616262 81.30496313 -0.00699207 83.71005249 -0.00931168 C87.06494531 -0.01183683 90.41977046 -0.00799953 93.7746582 -0.00241089 C94.77937164 -0.00443512 95.78408508 -0.00645935 96.81924438 -0.00854492 C97.72790253 -0.0057251 98.63656067 -0.00290527 99.57275391 0 C100.36696243 0.00037703 101.16117096 0.00075405 101.97944641 0.0011425 C103.78637695 0.12698364 103.78637695 0.12698364 104.78637695 1.12698364 C104.88537219 2.67653923 104.91717219 4.23052037 104.91918945 5.78323364 C104.92047852 6.72296021 104.92176758 7.66268677 104.9230957 8.63088989 C104.91922852 9.61960083 104.91536133 10.60831177 104.91137695 11.62698364 C104.91524414 12.61569458 104.91911133 13.60440552 104.9230957 14.62307739 C104.92180664 15.56280396 104.92051758 16.50253052 104.91918945 17.47073364 C104.91806152 18.33891724 104.91693359 19.20710083 104.91577148 20.10159302 C104.78637695 22.12698364 104.78637695 22.12698364 103.78637695 23.12698364 C100.68386495 23.21572499 97.60369575 23.24216819 94.5012207 23.22463989 C93.57040176 23.22322495 92.63958282 23.22181 91.68055725 23.22035217 C88.69496504 23.21473536 85.70944666 23.20218004 82.72387695 23.18948364 C80.70499782 23.18447081 78.68611753 23.17990753 76.66723633 23.17581177 C71.70692124 23.16476047 66.74666163 23.1474846 61.78637695 23.12698364 C61.78729875 23.77027839 61.78822054 24.41357313 61.78917027 25.07636166 C61.8112255 40.70727234 61.82778851 56.33817763 61.83818913 71.9691 C61.84335208 79.52799983 61.85039475 87.08688929 61.86181641 94.64578247 C61.87176327 101.2317803 61.87823039 107.81777062 61.88046545 114.40377575 C61.88177255 117.89311436 61.88485837 121.38243149 61.89210701 124.87176323 C61.90012093 128.76079597 61.90036809 132.64980742 61.89990234 136.53884888 C61.90349762 137.70409592 61.9070929 138.86934296 61.91079712 140.06990051 C61.90942245 141.12304443 61.90804779 142.17618835 61.90663147 143.26124573 C61.90755326 144.18211692 61.90847506 145.10298811 61.90942478 146.05176449 C61.78637695 148.12698364 61.78637695 148.12698364 60.78637695 149.12698364 C59.16380151 149.22614935 57.53697864 149.25778141 55.91137695 149.25979614 C54.9265332 149.26108521 53.94168945 149.26237427 52.92700195 149.26370239 C51.8905957 149.25983521 50.85418945 149.25596802 49.78637695 149.25198364 C48.7499707 149.25585083 47.71356445 149.25971802 46.64575195 149.26370239 C45.6609082 149.26241333 44.67606445 149.26112427 43.66137695 149.25979614 C42.75129883 149.25866821 41.8412207 149.25754028 40.90356445 149.25637817 C38.78637695 149.12698364 38.78637695 149.12698364 37.78637695 148.12698364 C37.69034673 146.50742025 37.66449841 144.88365282 37.66612244 143.26124573 C37.66474777 142.20810181 37.66337311 141.15495789 37.66195679 140.06990051 C37.6673497 138.32202995 37.6673497 138.32202995 37.67285156 136.53884888 C37.67270554 135.31950653 37.67255951 134.10016418 37.67240906 132.84387207 C37.67298803 129.49070853 37.67801727 126.1376059 37.68498302 122.78445315 C37.69121712 119.28372802 37.6918204 115.78300216 37.69300842 112.28227234 C37.69612157 105.64888709 37.70433473 99.01551824 37.71435791 92.38214022 C37.72551956 84.83208157 37.73102963 77.28202216 37.73605335 69.73195732 C37.74651736 54.19695658 37.76411648 38.66197222 37.78637695 23.12698364 C36.51930908 23.13222046 35.25224121 23.13745728 33.94677734 23.14285278 C29.26351625 23.16089878 24.58025825 23.17241418 19.89697266 23.18191528 C17.86669397 23.18695642 15.83641893 23.19378921 13.80615234 23.2024231 C10.89460349 23.21449832 7.98310245 23.22021399 5.0715332 23.22463989 C3.70122704 23.23238182 3.70122704 23.23238182 2.30323792 23.24028015 C0.13062268 23.24047532 -2.04189601 23.18910169 -4.21362305 23.12698364 C-5.83562819 21.50497849 -5.34353055 19.70675334 -5.34643555 17.47073364 C-5.34772461 16.53100708 -5.34901367 15.59128052 -5.3503418 14.62307739 C-5.34647461 13.63436646 -5.34260742 12.64565552 -5.33862305 11.62698364 C-5.34249023 10.63827271 -5.34635742 9.64956177 -5.3503418 8.63088989 C-5.34905273 7.69116333 -5.34776367 6.75143677 -5.34643555 5.78323364 C-5.34530762 4.91505005 -5.34417969 4.04686646 -5.34301758 3.15237427 C-5.10492334 -0.57447448 -3.27145225 0.00155302 0 0 Z " fill="#ED6639" transform="translate(222.213623046875,52.873016357421875)"/>
<path d="M0 0 C1 3 1 3 -0.36328125 5.77734375 C-1.00652344 6.82019531 -1.64976562 7.86304688 -2.3125 8.9375 C-5.33506331 13.87071931 -5.33506331 13.87071931 -8 19 C-11.6738285 18.42333203 -14.34337919 17.39810696 -17.5625 15.5625 C-26.49870992 10.98832727 -36.1781307 10.07596873 -46 12 C-47.68257747 12.62542408 -49.35483993 13.28189793 -51 14 C-50.67 14.99 -50.34 15.98 -50 17 C-50.66 17 -51.32 17 -52 17 C-50.82011492 22.57763856 -49.69648333 24.81615026 -45 28 C-41.91197867 29.5951417 -38.7493775 30.99006536 -35.5625 32.375 C-34.67449707 32.77001709 -33.78649414 33.16503418 -32.87158203 33.57202148 C-28.91417424 35.32487368 -24.94913072 37.04057027 -20.92578125 38.63671875 C-10.00747989 43.02085516 -1.37727357 48.12937955 3.94140625 59.0078125 C6.85377344 67.23981718 7.00299056 76.7589163 4 85 C-1.18956635 95.04173056 -8.71112581 100.11482063 -19 104.1875 C-36.74929329 108.99460027 -55.87076455 105.33941211 -72 97 C-79.34104046 92.31791908 -79.34104046 92.31791908 -81 89 C-80.3503125 88.4121875 -80.3503125 88.4121875 -79.6875 87.8125 C-77.72131827 85.70067518 -76.43072965 83.50377689 -75 81 C-73.24544457 77.92952799 -71.63029739 75.37979288 -69 73 C-67.94941406 73.55429688 -66.89882813 74.10859375 -65.81640625 74.6796875 C-53.19756165 81.24196833 -39.64194862 86.47618748 -25.2265625 82.171875 C-22.47048175 80.8386085 -20.40066621 79.80133243 -19 77 C-18.40001234 72.90994047 -18.40001234 72.90994047 -19 69 C-23.03670109 65.01252697 -27.29322302 62.60989328 -32.4375 60.3125 C-33.06720703 60.01794922 -33.69691406 59.72339844 -34.34570312 59.41992188 C-37.49676108 57.97879054 -40.55572483 56.7970198 -43.91015625 55.91796875 C-44.92980469 55.61503906 -45.94945312 55.31210938 -47 55 C-47.33 54.34 -47.66 53.68 -48 53 C-49.75039861 52.38077969 -49.75039861 52.38077969 -51.875 51.875 C-60.99281423 48.98114828 -69.38844865 42.45183279 -74 34 C-77.19961052 26.1061512 -77.67608693 16.04082145 -74.4375 8.0625 C-73.3046875 5.984375 -73.3046875 5.984375 -72 4 C-71.54882812 3.30390625 -71.09765625 2.6078125 -70.6328125 1.890625 C-65.30350933 -5.16208466 -57.14958173 -9.04139455 -48.55859375 -10.640625 C-31.30805893 -12.38272072 -14.46150126 -10.23465853 0 0 Z " fill="#EB663A" transform="translate(585,98)"/>
<path d="M0 0 C0.33 11.22 0.66 22.44 1 34 C2.98 34.66 4.96 35.32 7 36 C8.89750233 36.96517473 10.7700913 37.98061411 12.6171875 39.0390625 C13.53612793 39.56193848 14.45506836 40.08481445 15.40185547 40.62353516 C16.54799316 41.28401855 17.69413086 41.94450195 18.875 42.625 C22.54625 44.72875 26.2175 46.8325 30 49 C30 60.22 30 71.44 30 83 C25.8656876 81.9664219 22.56761089 80.28317846 18.875 78.25 C12.97603182 75.02787453 7.01986372 72.00993186 1 69 C1 90.45 1 111.9 1 134 C-3.41244957 133.11751009 -5.28086896 132.4594263 -8.90625 130.1640625 C-9.81503906 129.59429687 -10.72382812 129.02453125 -11.66015625 128.4375 C-12.59730469 127.839375 -13.53445312 127.24125 -14.5 126.625 C-16.36450095 125.45039005 -18.22908171 124.27590678 -20.09375 123.1015625 C-21.32641602 122.31773193 -21.32641602 122.31773193 -22.58398438 121.51806641 C-24.95239369 119.92358799 -24.95239369 119.92358799 -27.61354065 118.98469543 C-30 117 -30 117 -30.45747948 115.17498398 C-30.63349598 112.67966799 -30.6406258 110.22815517 -30.59936523 107.72680664 C-30.60330795 106.77694382 -30.60725067 105.82708099 -30.61131287 104.84843445 C-30.61803744 101.70180898 -30.58882721 98.55662695 -30.55859375 95.41015625 C-30.55434476 93.22684511 -30.5520152 91.04352945 -30.55152893 88.86021423 C-30.54535675 84.28103206 -30.5226254 79.70233773 -30.48706055 75.12329102 C-30.44181436 69.25074217 -30.42703644 63.37863603 -30.42332363 57.50592899 C-30.41889599 52.99608483 -30.40359333 48.48633382 -30.3844471 43.97653008 C-30.37556082 41.81116948 -30.3688328 39.64579893 -30.36428642 37.48042488 C-30.3552505 34.4543092 -30.33286414 31.42859495 -30.30639648 28.40258789 C-30.30539948 27.05667068 -30.30539948 27.05667068 -30.30438232 25.68356323 C-30.2944072 24.85781296 -30.28443207 24.03206268 -30.27415466 23.18128967 C-30.26950416 22.4661876 -30.26485365 21.75108553 -30.26006222 21.0143137 C-29.95249115 18.63201985 -29.25095342 17.04376586 -28 15 C-25.78515625 13.5078125 -25.78515625 13.5078125 -23.0625 12.125 C-22.08152344 11.61582031 -21.10054687 11.10664062 -20.08984375 10.58203125 C-18.56037109 9.79892578 -18.56037109 9.79892578 -17 9 C-15.03831203 7.94370648 -13.0798336 6.88142529 -11.125 5.8125 C-10.26132813 5.34457031 -9.39765625 4.87664062 -8.5078125 4.39453125 C-6.73209788 3.40710116 -4.97854855 2.37931633 -3.2421875 1.32421875 C-1 0 -1 0 0 0 Z " fill="#E15B2B" transform="translate(88,84)"/>
<path d="M0 0 C1.44953502 2.24007898 2.04248878 3.49694411 1.81567383 6.18237305 C1.51439575 7.33539917 1.51439575 7.33539917 1.20703125 8.51171875 C0.98853516 9.35154297 0.77003906 10.19136719 0.54492188 11.05664062 C0.30322266 11.92482422 0.06152344 12.79300781 -0.1875 13.6875 C-0.40986328 14.56728516 -0.63222656 15.44707031 -0.86132812 16.35351562 C-2.16463332 21.19703091 -2.16463332 21.19703091 -3 23 C-6.57029652 24.19009884 -7.66990845 23.67880197 -11.1875 22.5625 C-18.45292523 20.47572437 -24.84308841 19.9516858 -32 23 C-37.55137578 27.4697697 -39.67452652 33.17123958 -41 40 C-41.43814372 45.49250717 -41.4651938 50.96530768 -41.4765625 56.47265625 C-41.49089622 58.04781918 -41.50665743 59.6229697 -41.52377319 61.19810486 C-41.5653403 65.312465 -41.59053428 69.42674803 -41.61126709 73.54125977 C-41.64730499 80.15749786 -41.70794835 86.77354687 -41.76975632 93.38958549 C-41.78886757 95.69909994 -41.80057474 98.00856316 -41.81118774 100.31813049 C-41.82139124 101.72128415 -41.83174842 103.1244367 -41.84228516 104.52758789 C-41.84878082 105.7565126 -41.85527649 106.98543732 -41.86196899 108.25160217 C-42 111 -42 111 -43 112 C-44.62257544 112.0991657 -46.24939831 112.13079777 -47.875 112.1328125 C-48.85984375 112.13410156 -49.8446875 112.13539063 -50.859375 112.13671875 C-51.89578125 112.13285156 -52.9321875 112.12898438 -54 112.125 C-55.55460938 112.13080078 -55.55460938 112.13080078 -57.140625 112.13671875 C-58.12546875 112.13542969 -59.1103125 112.13414062 -60.125 112.1328125 C-61.03507813 112.13168457 -61.94515625 112.13055664 -62.8828125 112.12939453 C-65 112 -65 112 -66 111 C-66.0977394 109.56018786 -66.12631713 108.11561097 -66.12698364 106.67248535 C-66.12980347 105.73858475 -66.13262329 104.80468414 -66.13552856 103.84248352 C-66.13350433 102.80971786 -66.1314801 101.77695221 -66.12939453 100.71289062 C-66.13114685 99.63170456 -66.13289917 98.55051849 -66.13470459 97.43656921 C-66.13912558 93.84311341 -66.13618424 90.24970635 -66.1328125 86.65625 C-66.13348547 84.17142731 -66.13445543 81.68660469 -66.13571167 79.20178223 C-66.13737858 73.31686625 -66.13386577 67.43196813 -66.1285609 61.54705477 C-66.12480608 56.84630402 -66.12613367 52.14557419 -66.13037109 47.44482422 C-66.13615037 40.9792571 -66.13708453 34.51371029 -66.13381577 28.04814148 C-66.13314625 25.57606502 -66.13397577 23.1039877 -66.13629532 20.63191223 C-66.13882039 17.18362102 -66.1349833 13.73539565 -66.12939453 10.28710938 C-66.13141876 9.25434372 -66.13344299 8.22157806 -66.13552856 7.15751648 C-66.13270874 6.22361588 -66.12988892 5.28971527 -66.12698364 4.32751465 C-66.12660662 3.51118309 -66.12622959 2.69485153 -66.12584114 1.85378265 C-66 0 -66 0 -65 -1 C-63.36527118 -1.08700342 -61.72685945 -1.10701063 -60.08984375 -1.09765625 C-59.10048828 -1.09443359 -58.11113281 -1.09121094 -57.09179688 -1.08789062 C-56.05087891 -1.07951172 -55.00996094 -1.07113281 -53.9375 -1.0625 C-52.37032227 -1.05573242 -52.37032227 -1.05573242 -50.77148438 -1.04882812 C-48.1809334 -1.03699913 -45.59049441 -1.02051689 -43 -1 C-42.34 0.98 -41.68 2.96 -41 5 C-40.34 4.5875 -39.68 4.175 -39 3.75 C-36.68517317 2.39968435 -34.37705437 1.10854715 -32 -0.125 C-31.0409375 -0.62386719 -31.0409375 -0.62386719 -30.0625 -1.1328125 C-21.63496907 -4.67620619 -7.93352268 -4.96771981 0 0 Z " fill="#ED6639" transform="translate(765,90)"/>
<path d="M0 0 C0.02332743 19.93144943 0.04097841 39.86289611 0.05181217 59.79435635 C0.05697546 69.0482116 0.06401878 78.30205838 0.07543945 87.5559082 C0.08538529 95.61856198 0.09185319 103.68120963 0.09408849 111.74386936 C0.09539577 116.01568521 0.0984827 120.28748351 0.10573006 124.55929375 C0.11248869 128.57535956 0.11461728 132.59140051 0.11310768 136.60747147 C0.11338408 138.08576785 0.11539013 139.56406501 0.11920547 141.04235649 C0.12414021 143.05198957 0.12239814 145.06163581 0.12025452 147.0712738 C0.12117631 148.19862662 0.1220981 149.32597944 0.12304783 150.48749447 C0 153 0 153 -1 154 C-2.62257544 154.0991657 -4.24939831 154.13079777 -5.875 154.1328125 C-6.85984375 154.13410156 -7.8446875 154.13539063 -8.859375 154.13671875 C-9.89578125 154.13285156 -10.9321875 154.12898437 -12 154.125 C-13.03640625 154.12886719 -14.0728125 154.13273438 -15.140625 154.13671875 C-16.12546875 154.13542969 -17.1103125 154.13414062 -18.125 154.1328125 C-19.03507813 154.13168457 -19.94515625 154.13055664 -20.8828125 154.12939453 C-23 154 -23 154 -24 153 C-24.10300896 151.17198932 -24.1352168 149.33996694 -24.14044189 147.50906372 C-24.14615204 146.31721466 -24.15186218 145.1253656 -24.15774536 143.8973999 C-24.15886322 142.57790344 -24.15998108 141.25840698 -24.16113281 139.89892578 C-24.16575869 138.5046475 -24.17078303 137.11037049 -24.17617798 135.71609497 C-24.18932645 131.9185537 -24.19575171 128.12103013 -24.20018864 124.32346964 C-24.2031155 121.95300843 -24.20721956 119.58255211 -24.21169281 117.21209335 C-24.22537435 109.8015934 -24.23503772 102.39110456 -24.2388947 94.98059285 C-24.24337688 86.41492663 -24.26092935 77.84941987 -24.2898953 69.28380215 C-24.31148542 62.67062301 -24.32159755 56.05748881 -24.32293582 49.44427478 C-24.3239858 45.49093626 -24.32993419 41.5377475 -24.34775543 37.58444595 C-24.36419011 33.86622892 -24.36641427 30.14827496 -24.35761642 26.43003464 C-24.35647437 24.41122279 -24.37022736 22.39241986 -24.3843689 20.37365723 C-24.37879974 19.17616852 -24.37323059 17.97867981 -24.36749268 16.74490356 C-24.36895924 15.70181093 -24.3704258 14.6587183 -24.3719368 13.5840168 C-24 11 -24 11 -22.67795944 9.25056267 C-20.00915349 7.2615342 -17.05117592 5.87169433 -14.0625 4.4375 C-13.13147461 3.98213867 -13.13147461 3.98213867 -12.18164062 3.51757812 C-10.45643442 2.67426646 -8.72831104 1.83693008 -7 1 C-6.25621094 0.57847656 -5.51242187 0.15695313 -4.74609375 -0.27734375 C-3 -1 -3 -1 0 0 Z " fill="#A4A6A8" transform="translate(896,48)"/>
<path d="M0 0 C7.69840201 4.30629363 15.31155503 8.73196267 22.8125 13.375 C23.51181641 13.80345215 24.21113281 14.2319043 24.93164062 14.67333984 C29.88127641 17.76255283 29.88127641 17.76255283 31 20 C31.39987443 24.77840974 31.52686685 29.55453789 31.62475586 34.34765625 C31.66641503 35.94269993 31.72778824 37.53735651 31.80932617 39.13085938 C32.47493633 52.36071907 32.47493633 52.36071907 28.92504883 56.30615234 C26.3330245 57.87042607 23.84253294 58.97177479 21 60 C19.96488281 60.58007812 18.92976563 61.16015625 17.86328125 61.7578125 C17.02152344 62.20898438 16.17976563 62.66015625 15.3125 63.125 C14.40371094 63.62773437 13.49492187 64.13046875 12.55859375 64.6484375 C10 66 10 66 7.78515625 66.9140625 C5.59124575 67.77976912 5.59124575 67.77976912 3 70 C2.44842548 71.99776097 2.44842548 71.99776097 2.35546875 74.3203125 C2.29004883 75.21363281 2.22462891 76.10695313 2.15722656 77.02734375 C1.8734677 82.39232503 1.62791813 87.75583319 1.4375 93.125 C1.39431641 94.27226562 1.35113281 95.41953125 1.30664062 96.6015625 C1.20166354 99.40095143 1.09950535 102.20041215 1 105 C0.05423096 105.45874512 0.05423096 105.45874512 -0.91064453 105.92675781 C-7.09702004 108.96702583 -12.96562626 112.30466298 -18.8046875 115.95703125 C-21.945922 117.88758162 -24.3806628 119.0951657 -28 120 C-28 98.55 -28 77.1 -28 55 C-23.8511592 56.38294693 -20.82437706 57.4913392 -17.14453125 59.56640625 C-16.27505859 60.05173828 -15.40558594 60.53707031 -14.50976562 61.03710938 C-13.17461914 61.79217773 -13.17461914 61.79217773 -11.8125 62.5625 C-10.02859357 63.56602706 -8.24348834 64.56742689 -6.45703125 65.56640625 C-5.67303955 66.00927979 -4.88904785 66.45215332 -4.08129883 66.90844727 C-1.90484443 68.12092569 -1.90484443 68.12092569 1 69 C1 57.78 1 46.56 1 35 C-0.65 34.34 -2.3 33.68 -4 33 C-5.92610728 32.01259211 -7.83811616 30.99739119 -9.73828125 29.9609375 C-10.80498047 29.38085938 -11.87167969 28.80078125 -12.97070312 28.203125 C-14.07349609 27.59984375 -15.17628906 26.9965625 -16.3125 26.375 C-17.99569336 25.45847656 -17.99569336 25.45847656 -19.71289062 24.5234375 C-22.47661624 23.01808908 -25.23892206 21.51019759 -28 20 C-19.36570248 13 -19.36570248 13 -16 13 C-16 12.34 -16 11.68 -16 11 C-15.18015625 10.60167969 -14.3603125 10.20335938 -13.515625 9.79296875 C-11.89914063 8.99826172 -11.89914063 8.99826172 -10.25 8.1875 C-9.18265625 7.66542969 -8.1153125 7.14335938 -7.015625 6.60546875 C-4.43334655 5.23070652 -2.18660307 3.93716049 0 2 C0 1.34 0 0.68 0 0 Z " fill="#EA8C22" transform="translate(117,98)"/>
<path d="M0 0 C4.83509044 1.52557561 8.90392807 3.57207522 13.1875 6.25 C14.5315363 7.0732752 15.87659331 7.89488631 17.22265625 8.71484375 C18.19936279 9.31014893 18.19936279 9.31014893 19.19580078 9.91748047 C21.47129459 11.28277676 23.78627114 12.55894133 26.125 13.8125 C31.80621502 16.86032508 37.40209635 20.05261415 43 23.25 C43.93344238 23.78214111 44.86688477 24.31428223 45.82861328 24.86254883 C46.7101709 25.36681396 47.59172852 25.8710791 48.5 26.390625 C49.2940625 26.84469727 50.088125 27.29876953 50.90625 27.76660156 C52.63905209 28.7873707 54.32665341 29.88443561 56 31 C60.93771301 30.74519473 64.09723295 28.98006547 68.1875 26.3125 C69.32296339 25.58917141 70.45970629 24.86784785 71.59765625 24.1484375 C72.16371582 23.7884668 72.72977539 23.42849609 73.31298828 23.05761719 C75.87941167 21.44868143 78.48880042 19.92889578 81.125 18.4375 C81.99382812 17.94121094 82.86265625 17.44492187 83.7578125 16.93359375 C86 16 86 16 89 17 C89.32359485 21.55253911 89.55809751 26.09830403 89.71411133 30.65966797 C89.77915148 32.20675204 89.86763807 33.75304678 89.98071289 35.29736328 C90.34887512 40.45829812 90.40130445 44.9860803 89 50 C85.11536446 53.89938199 81.06575804 55.817506 76 58 C74.65510469 58.73115398 73.31667182 59.47467801 71.9921875 60.2421875 C70.96351563 60.78101563 69.93484375 61.31984375 68.875 61.875 C65.80129975 63.4907593 62.89062674 65.07291551 60 67 C55.72110048 66.68920155 52.64539771 64.84525379 49 62.6875 C47.75419472 61.95784058 46.50808091 61.22870777 45.26171875 60.5 C44.58286621 60.10039063 43.90401367 59.70078125 43.20458984 59.2890625 C39.09457658 56.88586538 34.94996963 54.54299013 30.8125 52.1875 C23.61653208 48.07720726 16.42767787 43.95465396 9.25 39.8125 C8.02567261 39.10806763 8.02567261 39.10806763 6.77661133 38.3894043 C6.03048584 37.95797119 5.28436035 37.52653809 4.515625 37.08203125 C3.85852539 36.70280518 3.20142578 36.3235791 2.52441406 35.93286133 C1 35 1 35 0 34 C-0.08847743 31.47905924 -0.11527301 28.98569107 -0.09765625 26.46484375 C-0.0962413 25.71159317 -0.09482635 24.95834259 -0.09336853 24.18226624 C-0.08775376 21.7673044 -0.07519883 19.35243399 -0.0625 16.9375 C-0.0574869 15.30403779 -0.05292366 13.67057414 -0.04882812 12.03710938 C-0.03777954 8.02470415 -0.02050506 4.01236759 0 0 Z " fill="#E05B2A" transform="translate(118,34)"/>
<path d="M0 0 C0.33 0 0.66 0 1 0 C2.34037434 33.21149753 2.34037434 33.21149753 1.16162109 46.89990234 C0.82442026 51.28147568 0.64610745 55.67327613 0.4375 60.0625 C0.35302442 61.78255994 0.26840381 63.50261277 0.18359375 65.22265625 C0.09271484 67.09244141 0.09271484 67.09244141 0 69 C-0.54785156 69.25652344 -1.09570312 69.51304687 -1.66015625 69.77734375 C-7.95175503 72.8157256 -13.89939627 76.26805389 -19.82055664 79.96459961 C-22.95579554 81.89514921 -25.38586117 83.09646529 -29 84 C-29 62.55 -29 41.1 -29 19 C-24.8511592 20.38294693 -21.82437706 21.4913392 -18.14453125 23.56640625 C-17.27505859 24.05173828 -16.40558594 24.53707031 -15.50976562 25.03710938 C-14.17461914 25.79217773 -14.17461914 25.79217773 -12.8125 26.5625 C-11.02859357 27.56602706 -9.24348834 28.56742689 -7.45703125 29.56640625 C-6.67303955 30.00927979 -5.88904785 30.45215332 -5.08129883 30.90844727 C-2.90484443 32.12092569 -2.90484443 32.12092569 0 33 C0 22.11 0 11.22 0 0 Z " fill="#EB8C23" transform="translate(118,134)"/>
<path d="M0 0 C0.32359485 4.55253911 0.55809751 9.09830403 0.71411133 13.65966797 C0.77915148 15.20675204 0.86763807 16.75304678 0.98071289 18.29736328 C1.34887711 23.4583259 1.40192672 27.98619667 0 33 C-3.88663268 36.89504986 -7.93821563 38.81342274 -13 41 C-14.32253443 41.72949261 -15.63792774 42.47253257 -16.9375 43.2421875 C-17.948125 43.78101563 -18.95875 44.31984375 -20 44.875 C-21.546875 45.70644531 -21.546875 45.70644531 -23.125 46.5546875 C-25.68494958 47.84161867 -28.33970223 48.93588089 -31 50 C-31 38.45 -31 26.9 -31 15 C-23.75 10.9375 -23.75 10.9375 -21.36743164 9.60571289 C-18.00551544 7.71974008 -14.66248943 5.81554234 -11.37109375 3.80859375 C-9.79521484 2.85146484 -9.79521484 2.85146484 -8.1875 1.875 C-7.25292969 1.29492188 -6.31835938 0.71484375 -5.35546875 0.1171875 C-3 -1 -3 -1 0 0 Z " fill="#E88B25" transform="translate(207,51)"/>
<path d="M0 0 C25.52382315 12.52382315 25.52382315 12.52382315 30 17 C30.17488254 19.43744897 30.23177405 21.7593608 30.1953125 24.1953125 C30.1924826 24.90275604 30.18965271 25.61019958 30.18673706 26.33908081 C30.17553137 28.6012251 30.15042679 30.86297515 30.125 33.125 C30.11497067 34.65754637 30.10584474 36.19009894 30.09765625 37.72265625 C30.07559086 41.48192301 30.04105896 45.24089464 30 49 C19.64242125 47.75689745 10.07982927 43.86056188 2.14453125 36.96826172 C-4.82775277 27.31787133 -1.40207417 11.13593893 0 0 Z " fill="#E25B2A" transform="translate(0,67)"/>
<path d="M0 0 C7.71266585 4.31427246 15.3471564 8.744698 22.875 13.375 C23.58269531 13.80345215 24.29039062 14.2319043 25.01953125 14.67333984 C26.71551574 15.72661338 28.3634597 16.85654717 30 18 C30 18.66 30 19.32 30 20 C29.35973877 20.34780518 28.71947754 20.69561035 28.05981445 21.05395508 C25.14343394 22.63901911 22.2279598 24.22574316 19.3125 25.8125 C17.80139648 26.63331055 17.80139648 26.63331055 16.25976562 27.47070312 C14.79506836 28.26831055 14.79506836 28.26831055 13.30078125 29.08203125 C12.40528564 29.56905518 11.50979004 30.0560791 10.5871582 30.55786133 C7.96383076 31.95860872 7.96383076 31.95860872 5.54370117 33.74487305 C2.18635898 35.40147121 0.56454308 35.01848185 -3 34 C-5.76074219 32.72485352 -5.76074219 32.72485352 -8.546875 31.12890625 C-10.06087891 30.26749023 -10.06087891 30.26749023 -11.60546875 29.38867188 C-12.64316406 28.78603516 -13.68085937 28.18339844 -14.75 27.5625 C-15.80316406 26.96373047 -16.85632813 26.36496094 -17.94140625 25.74804688 C-25.69754464 21.30245536 -25.69754464 21.30245536 -28 19 C-26.37829621 17.99466333 -24.75252763 16.99588093 -23.125 16 C-21.76761719 15.1646875 -21.76761719 15.1646875 -20.3828125 14.3125 C-18 13 -18 13 -16 13 C-16 12.34 -16 11.68 -16 11 C-15.18015625 10.60167969 -14.3603125 10.20335938 -13.515625 9.79296875 C-11.89914063 8.99826172 -11.89914063 8.99826172 -10.25 8.1875 C-9.18265625 7.66542969 -8.1153125 7.14335938 -7.015625 6.60546875 C-4.43334655 5.23070652 -2.18660307 3.93716049 0 2 C0 1.34 0 0.68 0 0 Z " fill="#F6BB3B" transform="translate(117,98)"/>
<path d="M0 0 C0.98484375 -0.00128906 1.9696875 -0.00257812 2.984375 -0.00390625 C4.02078125 -0.00003906 5.0571875 0.00382812 6.125 0.0078125 C7.67960938 0.00201172 7.67960938 0.00201172 9.265625 -0.00390625 C10.25046875 -0.00261719 11.2353125 -0.00132813 12.25 0 C13.16007813 0.00112793 14.07015625 0.00225586 15.0078125 0.00341797 C17.125 0.1328125 17.125 0.1328125 18.125 1.1328125 C18.16580783 3.13239614 18.16754356 5.13326504 18.125 7.1328125 C17.795 7.1328125 17.465 7.1328125 17.125 7.1328125 C17.125 5.4828125 17.125 3.8328125 17.125 2.1328125 C10.195 2.1328125 3.265 2.1328125 -3.875 2.1328125 C-3.545 38.1028125 -3.215 74.0728125 -2.875 111.1328125 C3.395 111.4628125 9.665 111.7928125 16.125 112.1328125 C16.10928955 110.00295898 16.0935791 107.87310547 16.07739258 105.67871094 C16.02768498 98.64195616 15.99454636 91.60519362 15.96956348 84.56830978 C15.95390702 80.30179305 15.93266924 76.03545618 15.89868164 71.76904297 C15.86608729 67.65175864 15.84814684 63.53464734 15.84036827 59.41724396 C15.83482488 57.84634935 15.82399996 56.27546421 15.80780983 54.70464325 C15.78603399 52.50438467 15.78303305 50.30484117 15.78442383 48.10449219 C15.77776199 46.85206726 15.77110016 45.59964233 15.76423645 44.30926514 C16.14777852 40.93225204 16.82221782 39.56882998 19.125 37.1328125 C19.01766182 46.89439952 18.9050622 56.65591009 18.78566074 66.41735744 C18.73039078 70.94951836 18.67696441 75.48168568 18.62768555 80.01391602 C18.58010189 84.38409798 18.52776152 88.75419898 18.47205925 93.12428474 C18.45160842 94.79529885 18.43289994 96.46633519 18.41592598 98.13738823 C18.39194207 100.4698481 18.3618798 102.80215357 18.33032227 105.13452148 C18.3245668 105.8322316 18.31881134 106.52994171 18.31288147 107.24879456 C18.23905216 112.01876034 18.23905216 112.01876034 17.125 113.1328125 C15.50242456 113.2319782 13.87560169 113.26361027 12.25 113.265625 C11.26515625 113.26691406 10.2803125 113.26820313 9.265625 113.26953125 C8.22921875 113.26566406 7.1928125 113.26179688 6.125 113.2578125 C4.57039062 113.26361328 4.57039062 113.26361328 2.984375 113.26953125 C1.99953125 113.26824219 1.0146875 113.26695312 0 113.265625 C-0.91007813 113.26449707 -1.82015625 113.26336914 -2.7578125 113.26220703 C-4.875 113.1328125 -4.875 113.1328125 -5.875 112.1328125 C-5.9727394 110.69300036 -6.00131713 109.24842347 -6.00198364 107.80529785 C-6.00480347 106.87139725 -6.00762329 105.93749664 -6.01052856 104.97529602 C-6.00850433 103.94253036 -6.0064801 102.90976471 -6.00439453 101.84570312 C-6.00614685 100.76451706 -6.00789917 99.68333099 -6.00970459 98.56938171 C-6.01412558 94.97592591 -6.01118424 91.38251885 -6.0078125 87.7890625 C-6.00848547 85.30423981 -6.00945543 82.81941719 -6.01071167 80.33459473 C-6.01237858 74.44967875 -6.00886577 68.56478063 -6.0035609 62.67986727 C-5.99980608 57.97911652 -6.00113367 53.27838669 -6.00537109 48.57763672 C-6.01115037 42.1120696 -6.01208453 35.64652279 -6.00881577 29.18095398 C-6.00814625 26.70887752 -6.00897577 24.2368002 -6.01129532 21.76472473 C-6.01382039 18.31643352 -6.0099833 14.86820815 -6.00439453 11.41992188 C-6.00641876 10.38715622 -6.00844299 9.35439056 -6.01052856 8.29032898 C-6.00770874 7.35642838 -6.00488892 6.42252777 -6.00198364 5.46032715 C-6.00160662 4.64399559 -6.00122959 3.82766403 -6.00084114 2.98659515 C-5.74234798 -0.82130213 -3.23569865 0.00401025 0 0 Z " fill="#C86C4E" transform="translate(704.875,88.8671875)"/>
<path d="M0 0 C1.36298721 -0.00422974 1.36298721 -0.00422974 2.75350952 -0.00854492 C4.26057968 -0.00550858 4.26057968 -0.00550858 5.7980957 -0.00241089 C7.37598373 -0.00503937 7.37598373 -0.00503937 8.98574829 -0.00772095 C12.48180769 -0.01214179 15.97781699 -0.00920065 19.47387695 -0.00582886 C21.8914389 -0.00650183 24.30900078 -0.0074718 26.7265625 -0.00872803 C31.80086916 -0.01020532 36.87515826 -0.00804945 41.94946289 -0.00338745 C48.47022398 0.00230985 54.99094391 -0.00096899 61.51170349 -0.00695992 C66.50606601 -0.01056469 71.50041869 -0.00942733 76.49478149 -0.00683212 C78.89987188 -0.00616262 81.30496313 -0.00699207 83.71005249 -0.00931168 C87.06494531 -0.01183683 90.41977046 -0.00799953 93.7746582 -0.00241089 C94.77937164 -0.00443512 95.78408508 -0.00645935 96.81924438 -0.00854492 C97.72790253 -0.0057251 98.63656067 -0.00290527 99.57275391 0 C100.36696243 0.00037703 101.16117096 0.00075405 101.97944641 0.0011425 C103.78637695 0.12698364 103.78637695 0.12698364 104.78637695 1.12698364 C104.88537219 2.67653923 104.91717219 4.23052037 104.91918945 5.78323364 C104.92047852 6.72296021 104.92176758 7.66268677 104.9230957 8.63088989 C104.91922852 9.61960083 104.91536133 10.60831177 104.91137695 11.62698364 C104.91524414 12.61569458 104.91911133 13.60440552 104.9230957 14.62307739 C104.92180664 15.56280396 104.92051758 16.50253052 104.91918945 17.47073364 C104.91806152 18.33891724 104.91693359 19.20710083 104.91577148 20.10159302 C104.78637695 22.12698364 104.78637695 22.12698364 103.78637695 23.12698364 C100.68386495 23.21572499 97.60369575 23.24216819 94.5012207 23.22463989 C93.57040176 23.22322495 92.63958282 23.22181 91.68055725 23.22035217 C88.69496504 23.21473536 85.70944666 23.20218004 82.72387695 23.18948364 C80.70499782 23.18447081 78.68611753 23.17990753 76.66723633 23.17581177 C71.70692124 23.16476047 66.74666163 23.1474846 61.78637695 23.12698364 C61.78637695 22.79698364 61.78637695 22.46698364 61.78637695 22.12698364 C75.31637695 22.12698364 88.84637695 22.12698364 102.78637695 22.12698364 C102.78637695 15.52698364 102.78637695 8.92698364 102.78637695 2.12698364 C67.80637695 2.12698364 32.82637695 2.12698364 -3.21362305 2.12698364 C-3.21362305 8.72698364 -3.21362305 15.32698364 -3.21362305 22.12698364 C10.31637695 22.12698364 23.84637695 22.12698364 37.78637695 22.12698364 C37.78637695 22.45698364 37.78637695 22.78698364 37.78637695 23.12698364 C31.82324529 23.15162938 25.86014301 23.16981764 19.89697266 23.18191528 C17.86669397 23.18695642 15.83641893 23.19378921 13.80615234 23.2024231 C10.89460349 23.21449832 7.98310245 23.22021399 5.0715332 23.22463989 C3.70122704 23.23238182 3.70122704 23.23238182 2.30323792 23.24028015 C0.13062268 23.24047532 -2.04189601 23.18910169 -4.21362305 23.12698364 C-5.83562819 21.50497849 -5.34353055 19.70675334 -5.34643555 17.47073364 C-5.34772461 16.53100708 -5.34901367 15.59128052 -5.3503418 14.62307739 C-5.34647461 13.63436646 -5.34260742 12.64565552 -5.33862305 11.62698364 C-5.34249023 10.63827271 -5.34635742 9.64956177 -5.3503418 8.63088989 C-5.34905273 7.69116333 -5.34776367 6.75143677 -5.34643555 5.78323364 C-5.34530762 4.91505005 -5.34417969 4.04686646 -5.34301758 3.15237427 C-5.10492334 -0.57447448 -3.27145225 0.00155302 0 0 Z " fill="#CC7051" transform="translate(222.213623046875,52.873016357421875)"/>
<path d="M0 0 C3.16317128 2.39305278 5.80175502 4.79990702 8.390625 7.80859375 C8.390625 8.46859375 8.390625 9.12859375 8.390625 9.80859375 C7.730625 9.80859375 7.070625 9.80859375 6.390625 9.80859375 C5.895625 8.81859375 5.895625 8.81859375 5.390625 7.80859375 C3.36599245 7.15646083 3.36599245 7.15646083 1.390625 6.80859375 C1.390625 6.14859375 1.390625 5.48859375 1.390625 4.80859375 C0.400625 4.47859375 -0.589375 4.14859375 -1.609375 3.80859375 C-2.104375 2.32359375 -2.104375 2.32359375 -2.609375 0.80859375 C-4.9150465 -0.81680649 -4.9150465 -0.81680649 -7.609375 -2.19140625 C-8.29773438 -2.56523438 -8.98609375 -2.9390625 -9.6953125 -3.32421875 C-19.70216694 -7.66166078 -30.88463464 -7.03458413 -41.609375 -7.19140625 C-41.609375 -7.52140625 -41.609375 -7.85140625 -41.609375 -8.19140625 C-26.71051462 -11.6621635 -12.54127628 -8.52586765 0 0 Z " fill="#CD6B4D" transform="translate(670.609375,96.19140625)"/>
<path d="M0 0 C1.05128687 3.23529832 0.91901775 5.39722097 0.125 8.6875 C-0.05804687 9.47511719 -0.24109375 10.26273438 -0.4296875 11.07421875 C-1 13 -1 13 -2 14 C-2.15888092 16.28988781 -2.25138073 18.58443441 -2.31640625 20.87890625 C-2.33718735 21.5655687 -2.35796844 22.25223114 -2.37937927 22.95970154 C-2.44494143 25.16052935 -2.50379015 27.36147975 -2.5625 29.5625 C-2.60567892 31.05144514 -2.649293 32.54037773 -2.69335938 34.02929688 C-2.8006293 37.68606553 -2.90187772 41.34297318 -3 45 C-3.33 45 -3.66 45 -4 45 C-6.75122803 32.60706853 -6.16714787 17.95259974 -2 6 C-1.4121875 4.14375 -1.4121875 4.14375 -0.8125 2.25 C-0.4103125 1.13625 -0.4103125 1.13625 0 0 Z " fill="#CD6E4E" transform="translate(596,117)"/>
<path d="M0 0 C5.51219067 0.95864186 10.3151479 3.06229192 15.4375 5.25 C16.36626953 5.63285156 17.29503906 6.01570312 18.25195312 6.41015625 C23.59610517 8.68474908 27.76481004 11.01227523 32 15 C28.30581799 15 26.22163822 13.71820705 23 12 C23 11.34 23 10.68 23 10 C20.69 10.33 18.38 10.66 16 11 C16 10.34 16 9.68 16 9 C15.34 8.67 14.68 8.34 14 8 C14 7.34 14 6.68 14 6 C12.56274129 5.83126522 11.12518162 5.66509263 9.6875 5.5 C8.88699219 5.4071875 8.08648438 5.314375 7.26171875 5.21875 C4.88103445 4.95186537 4.88103445 4.95186537 2 5 C2 3.68 2 2.36 2 1 C1.34 0.67 0.68 0.34 0 0 Z " fill="#D26C4B" transform="translate(548,131)"/>
<path d="M0 0 C1.98 0.99 1.98 0.99 4 2 C3.01 2 2.02 2 1 2 C1.33 11.9 1.66 21.8 2 32 C2.66 32 3.32 32 4 32 C4 32.66 4 33.32 4 34 C5.32 34 6.64 34 8 34 C8 34.99 8 35.98 8 37 C8.66 37 9.32 37 10 37 C10 37.66 10 38.32 10 39 C11.32 39 12.64 39 14 39 C14.33 39.99 14.66 40.98 15 42 C12.5625 41.375 12.5625 41.375 9 40 C8.24203125 39.72414062 7.4840625 39.44828125 6.703125 39.1640625 C3.77057277 37.7361204 2.0619467 36.55453597 0 34 C-1.15317355 28.18120601 -0.84917214 22.52311401 -0.5625 16.625 C-0.51732125 15.01443431 -0.47626251 13.40374745 -0.43945312 11.79296875 C-0.34059804 7.85897577 -0.18553571 3.93081986 0 0 Z " fill="#DB6122" transform="translate(118,34)"/>
<path d="M0 0 C1.24040039 0.01353516 1.24040039 0.01353516 2.50585938 0.02734375 C4.52486708 0.05068488 6.54372356 0.08654712 8.5625 0.125 C9.0575 1.61 9.0575 1.61 9.5625 3.125 C9.04171875 2.96515625 8.5209375 2.8053125 7.984375 2.640625 C-1.84723488 0.54744354 -10.60646395 1.88553553 -19.25 6.6875 C-24.14188263 12.13845493 -24.7833015 20.05965618 -25.4375 27.125 C-25.7675 27.125 -26.0975 27.125 -26.4375 27.125 C-26.75322141 19.38982547 -26.15544704 12.59033483 -21.4375 6.125 C-15.18101864 0.04230979 -8.25182834 -0.17288279 0 0 Z " fill="#C77151" transform="translate(356.4375,106.875)"/>
<path d="M0 0 C0 0.66 0 1.32 0 2 C-1.0725 2.37125 -2.145 2.7425 -3.25 3.125 C-6.50867961 4.47679695 -7.00973557 5.01504587 -9.0625 8.1875 C-9.701875 9.115625 -10.34125 10.04375 -11 11 C-12.99954746 11.04254356 -15.00041636 11.04080783 -17 11 C-19.87640616 13.37500791 -19.87640616 13.37500791 -22 16 C-22.66 15.67 -23.32 15.34 -24 15 C-18.17845651 8.60740592 -9.36272969 0 0 0 Z " fill="#DC6A44" transform="translate(628,89)"/>
<path d="M0 0 C0 4.62901661 -2.84452494 6.82353509 -6 10 C-11.03617399 14.5827958 -16.45872463 16.38113306 -23 18 C-23 17.34 -23 16.68 -23 16 C-21.68 16 -20.36 16 -19 16 C-19.33 14.68 -19.66 13.36 -20 12 C-18.25 10.875 -18.25 10.875 -16 10 C-13.75 10.875 -13.75 10.875 -12 12 C-12 11.01 -12 10.02 -12 9 C-11.195625 8.87625 -10.39125 8.7525 -9.5625 8.625 C-8.716875 8.41875 -7.87125 8.2125 -7 8 C-6.67 7.34 -6.34 6.68 -6 6 C-5.34 6 -4.68 6 -4 6 C-3.896875 5.38125 -3.79375 4.7625 -3.6875 4.125 C-3 2 -3 2 0 0 Z " fill="#DE683F" transform="translate(679,183)"/>
<path d="M0 0 C1.32 0 2.64 0 4 0 C4 0.66 4 1.32 4 2 C5.32 1.67 6.64 1.34 8 1 C8.33 1.99 8.66 2.98 9 4 C10.65 4 12.3 4 14 4 C14 4.99 14 5.98 14 7 C15.98 7.66 17.96 8.32 20 9 C20.33 8.34 20.66 7.68 21 7 C21.99 8.98 22.98 10.96 24 13 C24.99 13 25.98 13 27 13 C27 13.99 27 14.98 27 16 C21.16721154 13.8154129 16.02619192 10.61065726 10.6875 7.4375 C9.66076172 6.83486328 8.63402344 6.23222656 7.57617188 5.61132812 C6.12114258 4.74991211 6.12114258 4.74991211 4.63671875 3.87109375 C3.74686279 3.34443115 2.85700684 2.81776855 1.94018555 2.27514648 C1.29992432 1.85434814 0.65966309 1.4335498 0 1 C0 0.67 0 0.34 0 0 Z " fill="#C6613E" transform="translate(0,100)"/>
<path d="M0 0 C0 9.9 0 19.8 0 30 C-0.33 30 -0.66 30 -1 30 C-1 21.42 -1 12.84 -1 4 C-2.32 4 -3.64 4 -5 4 C-5.33 4.99 -5.66 5.98 -6 7 C-6.969375 7.12375 -7.93875 7.2475 -8.9375 7.375 C-10.4534375 7.684375 -10.4534375 7.684375 -12 8 C-12.33 8.66 -12.66 9.32 -13 10 C-13.66 9.34 -14.32 8.68 -15 8 C-14.40832031 7.67386719 -13.81664063 7.34773438 -13.20703125 7.01171875 C-9.77495725 5.11372024 -6.35726119 3.2158453 -3 1.1875 C-1 0 -1 0 0 0 Z " fill="#DB6120" transform="translate(88,84)"/>
<path d="M0 0 C0.66 0.33 1.32 0.66 2 1 C-4.11349934 4.77598489 -8.65228574 7.41723715 -16 7.3125 C-17.175625 7.30863281 -18.35125 7.30476562 -19.5625 7.30078125 C-23.00275637 6.99975882 -25.78543405 6.22996349 -29 5 C-29 4.34 -29 3.68 -29 3 C-28.13890625 3.15855469 -27.2778125 3.31710938 -26.390625 3.48046875 C-17.59727433 4.827837 -10.00260147 4.70339221 -1.92578125 0.77734375 C-1.29027344 0.52082031 -0.65476562 0.26429688 0 0 Z " fill="#D06D4C" transform="translate(373,176)"/>
<path d="M0 0 C3.9166043 -0.0580966 7.83309763 -0.09362893 11.75 -0.125 C12.86117187 -0.14175781 13.97234375 -0.15851563 15.1171875 -0.17578125 C16.72207031 -0.18544922 16.72207031 -0.18544922 18.359375 -0.1953125 C19.34389648 -0.20578613 20.32841797 -0.21625977 21.34277344 -0.22705078 C24.05973111 0.00510382 25.68112513 0.60963727 28 2 C28 2.66 28 3.32 28 4 C27.11699219 3.84402344 26.23398437 3.68804687 25.32421875 3.52734375 C16.68750984 2.12654564 8.43622327 1.18792558 0 4 C0 2.68 0 1.36 0 0 Z " fill="#CF6C4F" transform="translate(536,107)"/>
<path d="M0 0 C0.69222656 0.433125 1.38445313 0.86625 2.09765625 1.3125 C10.8078747 6.27009469 17.2236131 6.72120887 27 6 C26.67 6.99 26.34 7.98 26 9 C18.47220448 9.30563982 12.76403472 9.38201736 6 6 C3.20659843 5.74609778 3.20659843 5.74609778 1 6 C0.67 4.02 0.34 2.04 0 0 Z " fill="#CF6C4C" transform="translate(623,174)"/>
<path d="M0 0 C0.99 0.33 1.98 0.66 3 1 C2.01 1.495 2.01 1.495 1 2 C0.67 2.99 0.34 3.98 0 5 C-1.32 4.67 -2.64 4.34 -4 4 C-4.33 4.99 -4.66 5.98 -5 7 C-5.99 6.67 -6.98 6.34 -8 6 C-5.63055987 3.38114512 -3.16266898 1.58133449 0 0 Z M-8 7 C-10.22355226 9.5570851 -11.75018193 10.24170912 -15 11 C-15.33 11.66 -15.66 12.32 -16 13 C-18.5625 13.625 -18.5625 13.625 -21 14 C-21 13.34 -21 12.68 -21 12 C-18.91796875 10.45703125 -18.91796875 10.45703125 -16.1875 8.8125 C-15.29417969 8.26207031 -14.40085938 7.71164063 -13.48046875 7.14453125 C-11 6 -11 6 -8 7 Z " fill="#E2921E" transform="translate(204,50)"/>
<path d="M0 0 C0.66 0.99 1.32 1.98 2 3 C1.34 3 0.68 3 0 3 C0.80331586 6.79749316 1.38508143 9.36699559 4.125 12.1875 C7.63319684 14.39918931 11.24437271 16.24799521 15 18 C11.28272326 19.13583456 9.52948291 18.66670026 6 17 C6 16.34 6 15.68 6 15 C5.21625 14.731875 4.4325 14.46375 3.625 14.1875 C1 13 1 13 -1 10 C-1.99 10.66 -2.98 11.32 -4 12 C-3.52494322 10.18641846 -3.04483958 8.37415821 -2.5625 6.5625 C-2.29566406 5.55316406 -2.02882813 4.54382813 -1.75390625 3.50390625 C-1 1 -1 1 0 0 Z " fill="#CF6A47" transform="translate(533,112)"/>
<path d="M0 0 C1.65 0 3.3 0 5 0 C5 0.66 5 1.32 5 2 C5.721875 1.95875 6.44375 1.9175 7.1875 1.875 C10.24666798 2.01096302 12.20011257 2.81004784 15 4 C19.41921231 5.16337582 23.77683901 5.11519311 28.3125 5.0625 C29.42334961 5.05573242 29.42334961 5.05573242 30.55664062 5.04882812 C32.37112899 5.03712175 34.18557534 5.01918898 36 5 C36 5.33 36 5.66 36 6 C23.17194948 8.85067789 11.59214011 6.64534483 0 1 C0 0.67 0 0.34 0 0 Z " fill="#CD6F52" transform="translate(617,197)"/>
<path d="M0 0 C1.32 0.33 2.64 0.66 4 1 C4 12.22 4 23.44 4 35 C2.68 34.67 1.36 34.34 0 34 C0 32.68 0 31.36 0 30 C0.99 30 1.98 30 3 30 C3 20.76 3 11.52 3 2 C2.01 1.67 1.02 1.34 0 1 C0 0.67 0 0.34 0 0 Z " fill="#DC6021" transform="translate(114,132)"/>
<path d="M0 0 C7.13799572 0.73019163 11.57364566 2.62501984 16.9921875 7.34375 C18.92114122 8.93494918 20.72713958 9.98078008 23 11 C23 11.66 23 12.32 23 13 C17.50434318 11.46367421 12.97905386 8.84581871 8.125 5.9375 C7.34125 5.47794922 6.5575 5.01839844 5.75 4.54492188 C1.50437107 2.02639112 1.50437107 2.02639112 0 1 C0 0.67 0 0.34 0 0 Z " fill="#FDB448" transform="translate(7,70)"/>
<path d="M0 0 C0.69448242 0.08604492 1.38896484 0.17208984 2.10449219 0.26074219 C5.55960262 0.75772174 7.54788349 1.28192232 10.5 3.25 C7.53 3.25 4.56 3.25 1.5 3.25 C1.5 2.59 1.5 1.93 1.5 1.25 C-4.11 1.25 -9.72 1.25 -15.5 1.25 C-15.5 1.91 -15.5 2.57 -15.5 3.25 C-18.14 3.25 -20.78 3.25 -23.5 3.25 C-15.97610792 -0.82256544 -8.30929842 -1.03349483 0 0 Z " fill="#CB6E4C" transform="translate(361.5,85.75)"/>
<path d="M0 0 C0 0.66 0 1.32 0 2 C-0.99 2 -1.98 2 -3 2 C-3 3.65 -3 5.3 -3 7 C-3.721875 6.938125 -4.44375 6.87625 -5.1875 6.8125 C-8.0819944 6.7906172 -8.0819944 6.7906172 -10.5 8.5 C-13.29121788 10.17473073 -14.80839347 10.27356627 -18 10 C-13.67630171 6.12358085 -6.04191557 0 0 0 Z " fill="#E7BB53" transform="translate(34,47)"/>
<path d="M0 0 C-0.33 1.65 -0.66 3.3 -1 5 C-3.31 5 -5.62 5 -8 5 C-8.33 5.99 -8.66 6.98 -9 8 C-9.66 8 -10.32 8 -11 8 C-11 9.32 -11 10.64 -11 12 C-13.475 11.01 -13.475 11.01 -16 10 C-16 9.34 -16 8.68 -16 8 C-15.24074219 7.59007813 -14.48148438 7.18015625 -13.69921875 6.7578125 C-12.70535156 6.21898437 -11.71148437 5.68015625 -10.6875 5.125 C-9.20830078 4.32449219 -9.20830078 4.32449219 -7.69921875 3.5078125 C-1.41968912 0 -1.41968912 0 0 0 Z " fill="#E9BB55" transform="translate(16,57)"/>
<path d="M0 0 C4.62 2.31 9.24 4.62 14 7 C14 7.33 14 7.66 14 8 C12.35 8 10.7 8 9 8 C9 7.34 9 6.68 9 6 C8.01 6 7.02 6 6 6 C5.67 6.66 5.34 7.32 5 8 C2.5 6.8125 2.5 6.8125 0 5 C0 3.35 0 1.7 0 0 Z " fill="#E9BD4E" transform="translate(146,15)"/>
<path d="M0 0 C0.33 0 0.66 0 1 0 C1 11.22 1 22.44 1 34 C-0.65 34.66 -2.3 35.32 -4 36 C-4 34.68 -4 33.36 -4 32 C-2.68 32 -1.36 32 0 32 C0 21.44 0 10.88 0 0 Z " fill="#D1993C" transform="translate(147,118)"/>
<path d="M0 0 C0.33 0 0.66 0 1 0 C1 4.29 1 8.58 1 13 C-6.6171875 17.00390625 -6.6171875 17.00390625 -9 18 C-9.66 17.67 -10.32 17.34 -11 17 C-8.41552582 13.12328873 -6.37117286 13.19213805 -2 12 C-1.67 11.34 -1.34 10.68 -1 10 C-2.32 10 -3.64 10 -5 10 C-5 9.34 -5 8.68 -5 8 C-3.35 8 -1.7 8 0 8 C0 5.36 0 2.72 0 0 Z " fill="#D8923B" transform="translate(117,190)"/>
<path d="M0 0 C1.32 0.66 2.64 1.32 4 2 C0.81516089 4.63886669 -2.2898821 7.14494105 -6 9 C-6.99 8.67 -7.98 8.34 -9 8 C-9.33 7.01 -9.66 6.02 -10 5 C-6.38026598 3.68373308 -3.90432869 3 0 3 C0 2.01 0 1.02 0 0 Z " fill="#DE6C48" transform="translate(578,191)"/>
<path d="M0 0 C3.37705625 0.53725895 6.696686 1.11064623 10 2 C10 2.66 10 3.32 10 4 C12.64 3.67 15.28 3.34 18 3 C18.33 4.65 18.66 6.3 19 8 C18.33613281 7.79503906 17.67226563 7.59007812 16.98828125 7.37890625 C16.10527344 7.10949219 15.22226562 6.84007812 14.3125 6.5625 C13.44238281 6.29566406 12.57226562 6.02882812 11.67578125 5.75390625 C9.12974079 5.03655471 6.5996577 4.482459 4 4 C4 3.34 4 2.68 4 2 C2.68 1.34 1.36 0.68 0 0 Z " fill="#C66948" transform="translate(533,149)"/>
<path d="M0 0 C16.8929385 8.261959 16.8929385 8.261959 24 13 C23.01 13.495 23.01 13.495 22 14 C19.66573861 12.85089449 17.50584503 11.48937312 15.2890625 10.12890625 C12.827475 8.7051271 12.827475 8.7051271 9 9 C8.938125 8.071875 8.938125 8.071875 8.875 7.125 C8.58625 6.42375 8.2975 5.7225 8 5 C5.08333333 3.75 5.08333333 3.75 2 3 C1.34 2.67 0.68 2.34 0 2 C0 1.34 0 0.68 0 0 Z " fill="#D5631C" transform="translate(0,67)"/>
<path d="M0 0 C4.51451314 1.3489311 8.32277281 3.16618294 12.375 5.5625 C13.43460938 6.18253906 14.49421875 6.80257812 15.5859375 7.44140625 C16.38257813 7.95574219 17.17921875 8.47007813 18 9 C18 9.33 18 9.66 18 10 C16.35 10 14.7 10 13 10 C13 9.34 13 8.68 13 8 C12.401875 7.855625 11.80375 7.71125 11.1875 7.5625 C9.43849596 7.1127561 7.71322977 6.57107659 6 6 C6 5.34 6 4.68 6 4 C5.01 4 4.02 4 3 4 C3 3.34 3 2.68 3 2 C2.01 2 1.02 2 0 2 C0 1.34 0 0.68 0 0 Z " fill="#E1BB5B" transform="translate(170,29)"/>
<path d="M0 0 C0.66 0 1.32 0 2 0 C2 0.66 2 1.32 2 2 C4.64 2 7.28 2 10 2 C6.98112756 5.48331435 4.43090471 6.79157144 0 8 C0 5.36 0 2.72 0 0 Z " fill="#DC9031" transform="translate(132,152)"/>
<path d="M0 0 C0.66 0 1.32 0 2 0 C2.2475 0.763125 2.495 1.52625 2.75 2.3125 C4.1362594 5.29295772 5.42242461 6.08760536 8 8 C9.21514551 10.99112741 9.0536628 11.83901159 8 15 C1.48063781 5.77448747 1.48063781 5.77448747 0 0 Z " fill="#D16F4D" transform="translate(595,170)"/>
<path d="M0 0 C3.81530628 3.27026253 6.40632712 7.23853564 8 12 C7.67 12.99 7.34 13.98 7 15 C5 12 5 12 5 10 C3.68 9.34 2.36 8.68 1 8 C1.020625 7.236875 1.04125 6.47375 1.0625 5.6875 C1.12942841 2.89814214 1.12942841 2.89814214 0 0 Z " fill="#D66845" transform="translate(679,106)"/>
<path d="M0 0 C6.6 0 13.2 0 20 0 C20 0.33 20 0.66 20 1 C14.72 1 9.44 1 4 1 C3.34 2.32 2.68 3.64 2 5 C1.01 5.495 1.01 5.495 0 6 C-1.125 2.25 -1.125 2.25 0 0 Z " fill="#9AA3AE" transform="translate(1004,89)"/>
<path d="M0 0 C0.66 0.33 1.32 0.66 2 1 C1.01 2.485 1.01 2.485 0 4 C0.66 4 1.32 4 2 4 C0.25 7.875 0.25 7.875 -2 9 C-2 8.01 -2 7.02 -2 6 C-3.98 6.99 -3.98 6.99 -6 8 C-4.55746343 4.63408134 -2.66735273 2.48952921 0 0 Z M3 2 C3.33 2.66 3.66 3.32 4 4 C3.34 3.67 2.68 3.34 2 3 C2.33 2.67 2.66 2.34 3 2 Z " fill="#DC6B46" transform="translate(520,94)"/>
<path d="M0 0 C4.62 2.31 9.24 4.62 14 7 C14 7.99 14 8.98 14 10 C12.68 10 11.36 10 10 10 C9.92910156 9.37609375 9.85820312 8.7521875 9.78515625 8.109375 C9.19995468 5.80770679 9.19995468 5.80770679 6.93359375 4.953125 C6.10988281 4.72109375 5.28617188 4.4890625 4.4375 4.25 C3.61121094 4.00765625 2.78492188 3.7653125 1.93359375 3.515625 C1.29550781 3.34546875 0.65742188 3.1753125 0 3 C0 2.01 0 1.02 0 0 Z " fill="#E2B95F" transform="translate(192,41)"/>
<path d="M0 0 C0.66 0.33 1.32 0.66 2 1 C1.375 3.375 1.375 3.375 0 6 C-3.125 7.3125 -3.125 7.3125 -6 8 C-6 7.34 -6 6.68 -6 6 C-6.99 5.67 -7.98 5.34 -9 5 C-7.54735962 4.1361871 -6.0876837 3.28419546 -4.625 2.4375 C-3.40683594 1.72400391 -3.40683594 1.72400391 -2.1640625 0.99609375 C-1.44992188 0.66738281 -0.73578125 0.33867187 0 0 Z " fill="#E7BC50" transform="translate(62,30)"/>
<path d="M0 0 C0 4.07241025 -1.64363157 5.39479222 -4.265625 8.34765625 C-6.58170847 10.55419523 -9.05118885 11.80643358 -12 13 C-12 11.68 -12 10.36 -12 9 C-11.195625 8.87625 -10.39125 8.7525 -9.5625 8.625 C-8.716875 8.41875 -7.87125 8.2125 -7 8 C-6.67 7.34 -6.34 6.68 -6 6 C-5.34 6 -4.68 6 -4 6 C-3.896875 5.38125 -3.79375 4.7625 -3.6875 4.125 C-3 2 -3 2 0 0 Z " fill="#CD704D" transform="translate(679,183)"/>
<path d="M0 0 C0.33 0 0.66 0 1 0 C1.042721 1.66611905 1.04063832 3.33382885 1 5 C0 6 0 6 -2.13305664 6.11352539 C-3.04949951 6.10828857 -3.96594238 6.10305176 -4.91015625 6.09765625 C-5.89951172 6.09443359 -6.88886719 6.09121094 -7.90820312 6.08789062 C-8.94912109 6.07951172 -9.99003906 6.07113281 -11.0625 6.0625 C-12.10728516 6.05798828 -13.15207031 6.05347656 -14.22851562 6.04882812 C-16.8190666 6.03699913 -19.40950559 6.02051689 -22 6 C-22 5.67 -22 5.34 -22 5 C-15.4 5 -8.8 5 -2 5 C-1.34 3.35 -0.68 1.7 0 0 Z " fill="#C76850" transform="translate(283,196)"/>
<path d="M0 0 C1.17539996 0.92652701 2.34010577 1.86663387 3.5 2.8125 C4.1496875 3.33457031 4.799375 3.85664062 5.46875 4.39453125 C7 6 7 6 7 9 C3.25 10.125 3.25 10.125 1 9 C1.020625 8.071875 1.04125 7.14375 1.0625 6.1875 C1.15769604 2.97713989 1.15769604 2.97713989 0 0 Z " fill="#D96C4A" transform="translate(385,97)"/>
<path d="M0 0 C4.42761914 1.39153744 6.9556255 3.52071486 10 7 C10 7.66 10 8.32 10 9 C9.34 9 8.68 9 8 9 C7.67 8.34 7.34 7.68 7 7 C4.97536745 6.34786708 4.97536745 6.34786708 3 6 C3 5.34 3 4.68 3 4 C2.01 3.67 1.02 3.34 0 3 C0 2.01 0 1.02 0 0 Z " fill="#D66B47" transform="translate(669,97)"/>
<path d="M0 0 C2.97 0.99 5.94 1.98 9 3 C8.67 5.31 8.34 7.62 8 10 C7.67 10 7.34 10 7 10 C7 8.35 7 6.7 7 5 C5.02 5 3.04 5 1 5 C0.67 3.35 0.34 1.7 0 0 Z " fill="#E16746" transform="translate(758,89)"/>
<path d="M0 0 C0 0.66 0 1.32 0 2 C-0.64324219 1.84660156 -1.28648437 1.69320312 -1.94921875 1.53515625 C-5.89767537 0.84253326 -9.8131887 0.64199119 -13.8125 0.4375 C-14.60076172 0.39431641 -15.38902344 0.35113281 -16.20117188 0.30664062 C-18.13394215 0.20121679 -20.06695026 0.10016906 -22 0 C-22 -0.33 -22 -0.66 -22 -1 C-14.80068496 -2.47258717 -7.00181208 -2.33393736 0 0 Z " fill="#C86C50" transform="translate(474,87)"/>
<path d="M0 0 C10.55808656 5.0022779 10.55808656 5.0022779 15 9 C12.03 8.505 12.03 8.505 9 8 C9 7.34 9 6.68 9 6 C7.68 6.33 6.36 6.66 5 7 C4.731875 6.360625 4.46375 5.72125 4.1875 5.0625 C3.11332248 2.66868314 3.11332248 2.66868314 0 2 C0 1.34 0 0.68 0 0 Z " fill="#E7BD5E" transform="translate(122,1)"/>
<path d="M0 0 C2.0625 1.75 2.0625 1.75 4 4 C4.125 6 4.125 6 3 8 C-2.22222222 12 -2.22222222 12 -5 12 C-5 11.01 -5 10.02 -5 9 C-0.25 7 -0.25 7 2 7 C1.34 4.69 0.68 2.38 0 0 Z " fill="#D26D4C" transform="translate(389,182)"/>
<path d="M0 0 C0.33 0.66 0.66 1.32 1 2 C1.66 2 2.32 2 3 2 C3 2.66 3 3.32 3 4 C3.99 4.33 4.98 4.66 6 5 C2.25 8 2.25 8 0 8 C-0.38063221 5.6739143 -0.71269945 3.33944736 -1 1 C-0.67 0.67 -0.34 0.34 0 0 Z " fill="#DD8E2F" transform="translate(199,80)"/>
<path d="M0 0 C2.31 0 4.62 0 7 0 C7 0.99 7 1.98 7 3 C7.66 3 8.32 3 9 3 C9 3.66 9 4.32 9 5 C10.32 5 11.64 5 13 5 C13.33 5.99 13.66 6.98 14 8 C8.76481294 6.56032356 4.36973991 4.18303389 0 1 C0 0.67 0 0.34 0 0 Z " fill="#C3643C" transform="translate(119,68)"/>
<path d="M0 0 C4.9723422 1.49170266 9.41845739 3.60457417 14 6 C11.5332355 6.88336837 10.36140628 7.1312406 7.859375 6.22265625 C7.16328125 5.83980469 6.4671875 5.45695313 5.75 5.0625 C5.04359375 4.68222656 4.3371875 4.30195313 3.609375 3.91015625 C3.07828125 3.60980469 2.5471875 3.30945313 2 3 C1.34 3.66 0.68 4.32 0 5 C0 3.35 0 1.7 0 0 Z " fill="#F38631" transform="translate(89,153)"/>
<path d="M0 0 C5.96652354 1.57013777 10.82909025 4.75029782 16 8 C13 9 13 9 10 8 C10 7.34 10 6.68 10 6 C9.278125 5.938125 8.55625 5.87625 7.8125 5.8125 C4.15342375 4.75543353 2.50788398 2.79449929 0 0 Z " fill="#D4641D" transform="translate(98,123)"/>
<path d="M0 0 C1.69141656 0.08963062 3.37959602 0.24577676 5.0625 0.4375 C6.44115234 0.59025391 6.44115234 0.59025391 7.84765625 0.74609375 C8.55792969 0.82988281 9.26820312 0.91367188 10 1 C9.67 1.66 9.34 2.32 9 3 C6.6859378 3.73075648 4.35171131 4.40138258 2 5 C2 4.34 2 3.68 2 3 C1.01 2.34 0.02 1.68 -1 1 C-0.67 0.67 -0.34 0.34 0 0 Z " fill="#DC8F32" transform="translate(46,102)"/>
<path d="M0 0 C0.5534764 2.07553648 1 3.84365964 1 6 C-0.65 6.66 -2.3 7.32 -4 8 C-5.33332095 5.3333581 -4.67102033 3.83319697 -4 1 C-2.68 0.67 -1.36 0.34 0 0 Z " fill="#DB6542" transform="translate(439,92)"/>
<path d="M0 0 C1.04211409 3.12634226 0.99926113 4.04848841 0.25 7.125 C0.01023437 8.18074219 0.01023437 8.18074219 -0.234375 9.2578125 C-0.48703125 9.83273438 -0.7396875 10.40765625 -1 11 C-4.62326739 12.2077558 -5.64146369 11.54311128 -9 10 C-5.98968256 9.06576355 -5.13349732 8.95550089 -2 10 C-2 7.03 -2 4.06 -2 1 C-1.34 0.67 -0.68 0.34 0 0 Z " fill="#CE6C4C" transform="translate(763,102)"/>
<path d="M0 0 C1.32 0 2.64 0 4 0 C4 0.66 4 1.32 4 2 C5.65 2 7.3 2 9 2 C9.33 1.34 9.66 0.68 10 0 C10.66 2.31 11.32 4.62 12 7 C7.69235185 5.43358249 3.93828536 3.31663844 0 1 C0 0.67 0 0.34 0 0 Z " fill="#C4613F" transform="translate(74,210)"/>
<path d="M0 0 C1.77433812 0.93084971 3.54435149 1.86994613 5.3125 2.8125 C6.29863281 3.33457031 7.28476563 3.85664062 8.30078125 4.39453125 C10.61665068 5.7719876 12.23611001 6.99530591 14 9 C11.03 8.505 11.03 8.505 8 8 C8 7.34 8 6.68 8 6 C7.236875 5.71125 6.47375 5.4225 5.6875 5.125 C3 4 3 4 0 2 C0 1.34 0 0.68 0 0 Z " fill="#DCB55F" transform="translate(133,108)"/>
<path d="M0 0 C0 0.66 0 1.32 0 2 C-0.99 2 -1.98 2 -3 2 C-3 2.66 -3 3.32 -3 4 C-4.0625 5.625 -4.0625 5.625 -6 7 C-9.6875 7.1875 -9.6875 7.1875 -13 7 C-4.25 0 -4.25 0 0 0 Z " fill="#E5BE59" transform="translate(83,19)"/>
<path d="M0 0 C0.33 0 0.66 0 1 0 C0.67 5.28 0.34 10.56 0 16 C-0.66 15.67 -1.32 15.34 -2 15 C-2.19392201 9.47322267 -1.7479503 5.24385089 0 0 Z " fill="#CF6D4D" transform="translate(691,141)"/>
<path d="M0 0 C5.96564796 0.50771472 10.63809899 2.38592128 16 5 C13.13421241 6.16161779 11.98369837 5.9946154 8.984375 5.00390625 C7.91703125 4.52824219 6.8496875 4.05257812 5.75 3.5625 C4.67234375 3.08941406 3.5946875 2.61632812 2.484375 2.12890625 C1.66453125 1.75636719 0.8446875 1.38382812 0 1 C0 0.67 0 0.34 0 0 Z " fill="#CA664D" transform="translate(562,89)"/>
<path d="M0 0 C0 0.66 0 1.32 0 2 C-0.99 2 -1.98 2 -3 2 C-3.66 3.65 -4.32 5.3 -5 7 C-7.97 6.505 -7.97 6.505 -11 6 C-3.8 0 -3.8 0 0 0 Z " fill="#E4BD57" transform="translate(94,13)"/>
<path d="M0 0 C3.33773709 3.64116773 3.97864902 7.28607242 5 12 C3.0625 11.0625 3.0625 11.0625 1 9 C0.33825175 6.0141919 0.12794052 3.05138131 0 0 Z " fill="#D56849" transform="translate(395,110)"/>
<path d="M0 0 C2.0245738 1.93254772 3.42105792 3.63158688 5 6 C5.66 6 6.32 6 7 6 C7 6.99 7 7.98 7 9 C1.00274725 6.89285714 1.00274725 6.89285714 -1 4 C-0.6875 1.8125 -0.6875 1.8125 0 0 Z " fill="#D45E3A" transform="translate(20,107)"/>
<path d="M0 0 C3.99012371 0.55989303 6.5255052 1.75669768 9.8125 4.0625 C10.60269531 4.61035156 11.39289063 5.15820312 12.20703125 5.72265625 C12.79871094 6.14417969 13.39039063 6.56570312 14 7 C13.01 7.495 13.01 7.495 12 8 C9.1796875 6.6015625 9.1796875 6.6015625 5.875 4.625 C4.77929688 3.97789063 3.68359375 3.33078125 2.5546875 2.6640625 C1.71164063 2.11492188 0.86859375 1.56578125 0 1 C0 0.67 0 0.34 0 0 Z " fill="#FEB24A" transform="translate(159,56)"/>
<path d="M0 0 C0.99 0 1.98 0 3 0 C4.23921302 2.97411124 5.30058404 5.85262818 6 9 C1.2 5.67692308 1.2 5.67692308 0.1875 2.25 C0.125625 1.5075 0.06375 0.765 0 0 Z " fill="#D46B4F" transform="translate(513,132)"/>
<path d="M0 0 C1.41623216 -0.05447047 2.83308191 -0.09300508 4.25 -0.125 C5.03890625 -0.14820312 5.8278125 -0.17140625 6.640625 -0.1953125 C9.20731941 0.0171622 10.7916067 0.71345895 13 2 C13 2.66 13 3.32 13 4 C10.69 3.67 8.38 3.34 6 3 C6 2.34 6 1.68 6 1 C4.02 1 2.04 1 0 1 C0 0.67 0 0.34 0 0 Z " fill="#DB6C47" transform="translate(551,107)"/>
<path d="M0 0 C2.31 0.66 4.62 1.32 7 2 C4.61426621 3.89213369 2.92824652 5.02391783 0 6 C-1.125 2.25 -1.125 2.25 0 0 Z " fill="#E26A46" transform="translate(442,106)"/>
<path d="M0 0 C3.45925163 1.2491742 6.14693203 2.67527795 9 5 C6.03 4.67 3.06 4.34 0 4 C0 2.68 0 1.36 0 0 Z " fill="#EEC255" transform="translate(137,10)"/>
<path d="M0 0 C5.28137429 0.51525603 8.57221156 2.25477117 13 5 C12.67 5.66 12.34 6.32 12 7 C8.04 5.02 4.08 3.04 0 1 C0 0.67 0 0.34 0 0 Z " fill="#DB601E" transform="translate(91,153)"/>
<path d="M0 0 C0.66 0 1.32 0 2 0 C2 2.64 2 5.28 2 8 C0.02 8.99 0.02 8.99 -2 10 C-1.34 6.7 -0.68 3.4 0 0 Z " fill="#CE704D" transform="translate(567,168)"/>
<path d="M0 0 C0.99 0 1.98 0 3 0 C1.80100302 3.0831351 0.52299523 6.06279492 -1 9 C-1.99 8.67 -2.98 8.34 -4 8 C-3.01 7.67 -2.02 7.34 -1 7 C-0.67 4.69 -0.34 2.38 0 0 Z " fill="#CB7050" transform="translate(578,108)"/>
<path d="M0 0 C1.98 0 3.96 0 6 0 C3.12050853 2.23960447 0.23257974 4.29864224 -3 6 C-3.66 5.67 -4.32 5.34 -5 5 C-4 3 -4 3 -1 2 C-0.67 1.34 -0.34 0.68 0 0 Z " fill="#D69E38" transform="translate(192,89)"/>
<path d="M0 0 C-1.32 0.33 -2.64 0.66 -4 1 C-4 1.66 -4 2.32 -4 3 C-4.804375 3.28875 -5.60875 3.5775 -6.4375 3.875 C-9.1326468 4.73262568 -9.1326468 4.73262568 -10 7 C-10 5.68 -10 4.36 -10 3 C-3.375 -1.125 -3.375 -1.125 0 0 Z " fill="#E18F1D" transform="translate(55,71)"/>
<path d="M0 0 C2.64 0 5.28 0 8 0 C7.67 0.99 7.34 1.98 7 3 C8.32 3.33 9.64 3.66 11 4 C9 5 9 5 7.08984375 4.51171875 C6.02443359 4.10373047 6.02443359 4.10373047 4.9375 3.6875 C4.22464844 3.42324219 3.51179687 3.15898437 2.77734375 2.88671875 C1 2 1 2 0 0 Z " fill="#DA6747" transform="translate(514,194)"/>
<path d="M0 0 C0 0.66 0 1.32 0 2 C-1.28650706 2.69710731 -2.57940665 3.38242876 -3.875 4.0625 C-4.95394531 4.63677734 -4.95394531 4.63677734 -6.0546875 5.22265625 C-6.69664062 5.47917969 -7.33859375 5.73570313 -8 6 C-8.66 5.67 -9.32 5.34 -10 5 C-3.87096774 0 -3.87096774 0 0 0 Z " fill="#D26E4B" transform="translate(737,89)"/>
<path d="M0 0 C0.33 1.32 0.66 2.64 1 4 C2.32 4.33 3.64 4.66 5 5 C4.01 5.99 3.02 6.98 2 8 C1.67 7.34 1.34 6.68 1 6 C0.34 6 -0.32 6 -1 6 C-1.042721 4.33388095 -1.04063832 2.66617115 -1 1 C-0.67 0.67 -0.34 0.34 0 0 Z " fill="#E06B40" transform="translate(617,114)"/>
<path d="M0 0 C2.475 0.99 2.475 0.99 5 2 C4.67 2.66 4.34 3.32 4 4 C0.37 4 -3.26 4 -7 4 C-7 3.67 -7 3.34 -7 3 C-3.535 2.505 -3.535 2.505 0 2 C0 1.34 0 0.68 0 0 Z " fill="#9AA3AC" transform="translate(961,106)"/>
<path d="M0 0 C0.66 0 1.32 0 2 0 C1.34 3.3 0.68 6.6 0 10 C-0.33 10 -0.66 10 -1 10 C-2.25 3.375 -2.25 3.375 0 0 Z " fill="#99AAAB" transform="translate(1061,166)"/>
<path d="M0 0 C1.4835001 0.42257276 2.96176424 0.86356322 4.4375 1.3125 C5.67306641 1.67794922 5.67306641 1.67794922 6.93359375 2.05078125 C7.61550781 2.36402344 8.29742187 2.67726562 9 3 C9.33 3.99 9.66 4.98 10 6 C6.40992874 4.66654496 3.20429093 3.1056769 0 1 C0 0.67 0 0.34 0 0 Z " fill="#FEB54A" transform="translate(142,46)"/>
<path d="M0 0 C4 4.625 4 4.625 4 8 C3.01 7.67 2.02 7.34 1 7 C0.67 4.69 0.34 2.38 0 0 Z " fill="#D16D4B" transform="translate(618,166)"/>
<path d="M0 0 C0.99 0 1.98 0 3 0 C3.33 1.65 3.66 3.3 4 5 C2.35 4.67 0.7 4.34 -1 4 C-0.67 2.68 -0.34 1.36 0 0 Z " fill="#DC6B49" transform="translate(548,152)"/>
<path d="M0 0 C3 3 3 3 3.07421875 5.48046875 C2.94660156 6.37378906 2.81898438 7.26710937 2.6875 8.1875 C2.56761719 9.08855469 2.44773437 9.98960937 2.32421875 10.91796875 C2.21722656 11.60503906 2.11023438 12.29210937 2 13 C1.67 13 1.34 13 1 13 C0.67 8.71 0.34 4.42 0 0 Z " fill="#C86A4F" transform="translate(666,131)"/>
<path d="M0 0 C2.475 0.495 2.475 0.495 5 1 C5 2.32 5 3.64 5 5 C4.01 5 3.02 5 2 5 C2 3.68 2 2.36 2 1 C1.34 0.67 0.68 0.34 0 0 Z " fill="#D66E45" transform="translate(548,131)"/>
<path d="M0 0 C3.64553172 1.2808625 5.16671013 2.16671013 8 5 C3.545 4.01 3.545 4.01 -1 3 C-0.67 2.01 -0.34 1.02 0 0 Z " fill="#E0BC63" transform="translate(124,103)"/>
<path d="M0 0 C2.475 0.99 2.475 0.99 5 2 C4.34 3.98 3.68 5.96 3 8 C2.67 8 2.34 8 2 8 C2 6.35 2 4.7 2 3 C1.34 2.67 0.68 2.34 0 2 C0 1.34 0 0.68 0 0 Z " fill="#CD6E4C" transform="translate(581,97)"/>
<path d="M0 0 C4.875 1.75 4.875 1.75 6 4 C4.02 4.33 2.04 4.66 0 5 C0 3.35 0 1.7 0 0 Z " fill="#DA6B49" transform="translate(373,89)"/>
<path d="" fill="#000000" transform="translate(0,0)"/>
<path d="" fill="#000000" transform="translate(0,0)"/>
<path d="" fill="#000000" transform="translate(0,0)"/>
<path d="" fill="#000000" transform="translate(0,0)"/>
<path d="" fill="#000000" transform="translate(0,0)"/>
<path d="" fill="#000000" transform="translate(0,0)"/>
<path d="" fill="#000000" transform="translate(0,0)"/>
<path d="" fill="#000000" transform="translate(0,0)"/>
<path d="" fill="#000000" transform="translate(0,0)"/>
<path d="" fill="#000000" transform="translate(0,0)"/>
<path d="" fill="#000000" transform="translate(0,0)"/>
<path d="" fill="#000000" transform="translate(0,0)"/>
<path d="" fill="#000000" transform="translate(0,0)"/>
<path d="" fill="#000000" transform="translate(0,0)"/>
<path d="" fill="#000000" transform="translate(0,0)"/>
<path d="" fill="#000000" transform="translate(0,0)"/>
<path d="" fill="#000000" transform="translate(0,0)"/>
<path d="" fill="#000000" transform="translate(0,0)"/>
<path d="" fill="#000000" transform="translate(0,0)"/>
<path d="" fill="#000000" transform="translate(0,0)"/>
<path d="" fill="#000000" transform="translate(0,0)"/>
<path d="" fill="#000000" transform="translate(0,0)"/>
<path d="" fill="#000000" transform="translate(0,0)"/>
<path d="" fill="#000000" transform="translate(0,0)"/>
<path d="" fill="#000000" transform="translate(0,0)"/>
<path d="" fill="#FF0000" transform="translate(0,0)"/>
<path d="" fill="#000000" transform="translate(0,0)"/>
<path d="" fill="#000000" transform="translate(0,0)"/>
<path d="" fill="#000000" transform="translate(0,0)"/>
<path d="" fill="#000000" transform="translate(0,0)"/>
<path d="" fill="#000000" transform="translate(0,0)"/>
<path d="" fill="#000000" transform="translate(0,0)"/>
<path d="" fill="#000000" transform="translate(0,0)"/>
<path d="" fill="#000000" transform="translate(0,0)"/>
<path d="" fill="#000000" transform="translate(0,0)"/>
<path d="" fill="#000000" transform="translate(0,0)"/>
<path d="" fill="#000000" transform="translate(0,0)"/>
<path d="" fill="#000000" transform="translate(0,0)"/>
<path d="" fill="#000000" transform="translate(0,0)"/>
<path d="" fill="#000000" transform="translate(0,0)"/>
<path d="" fill="#000000" transform="translate(0,0)"/>
<path d="" fill="#000000" transform="translate(0,0)"/>
<path d="" fill="#000000" transform="translate(0,0)"/>
<path d="" fill="#000000" transform="translate(0,0)"/>
<path d="" fill="#000000" transform="translate(0,0)"/>
<path d="" fill="#000000" transform="translate(0,0)"/>
<path d="" fill="#000000" transform="translate(0,0)"/>
<path d="" fill="#000000" transform="translate(0,0)"/>
<path d="" fill="#000000" transform="translate(0,0)"/>
<path d="" fill="#000000" transform="translate(0,0)"/>
<path d="" fill="#000000" transform="translate(0,0)"/>
<path d="" fill="#000000" transform="translate(0,0)"/>
<path d="" fill="#000000" transform="translate(0,0)"/>
<path d="" fill="#000000" transform="translate(0,0)"/>
<path d="" fill="#000000" transform="translate(0,0)"/>
<path d="" fill="#000000" transform="translate(0,0)"/>
<path d="" fill="#000000" transform="translate(0,0)"/>
</svg>
